# This file uses centimeters as units for non-parametric coordinates.

mtllib AA_Tank_01_complete_Prototype.mtl
g default
v 0.575211 -0.432350 0.640754
v 0.575211 0.159071 0.541102
v 0.575211 0.159071 -1.073158
v 0.575211 -0.432350 -0.738157
v 0.575211 0.022418 0.910026
v 0.575211 0.022418 -1.073158
v 0.575211 -0.147203 1.007558
v 0.575211 -0.147203 -1.073158
v 0.575211 0.032464 0.711708
v 0.575211 0.022418 0.711708
v 0.575211 -0.147203 0.711708
v 0.575211 -0.432350 0.640449
v 0.007160 0.159071 0.541102
v 0.007160 0.159071 -1.073158
v 0.007160 0.022418 -1.073158
v 0.007160 -0.147203 -1.073158
v 0.007160 -0.432350 -0.738157
v 0.007160 -0.432350 0.640678
v 0.007160 0.032464 0.711708
v 0.007160 0.022418 0.910026
v 0.007160 -0.147203 1.007558
v -0.560890 -0.432350 0.640754
v -0.560890 0.159071 0.541102
v -0.560890 0.159071 -1.073158
v -0.560890 -0.432350 -0.738157
v -0.560890 0.022418 0.910026
v -0.560890 0.022418 -1.073158
v -0.560890 -0.147203 1.007558
v -0.560890 -0.147203 -1.073158
v -0.560890 0.032464 0.711708
v -0.560890 0.022418 0.711708
v -0.560890 -0.147203 0.711708
v -0.560890 -0.432350 0.640449
vt 0.881593 0.193224
vt 0.881812 0.154877
vt 0.991398 0.155503
vt 0.991179 0.193850
vt 0.783437 0.838392
vt 0.777377 0.838393
vt 0.777263 0.036910
vt 0.882086 0.107064
vt 0.991671 0.107690
vt 0.675063 0.838408
vt 0.674949 0.036924
vt 0.882670 0.004753
vt 0.992256 0.005379
vt 0.503059 0.806434
vt 0.502971 0.187379
vt 0.777390 0.927447
vt 0.675082 0.971258
vt 0.503059 0.806571
vt 0.879547 0.551111
vt 0.881327 0.239696
vt 0.990913 0.240322
vt 0.989133 0.551737
vt 0.988930 0.587150
vt 0.879345 0.586523
vt 0.879094 0.630479
vt 0.988679 0.631105
vt 0.878532 0.728646
vt 0.988118 0.729272
vt 0.877012 0.994630
vt 0.986598 0.995227
vt 0.859691 0.036898
vt 0.859794 0.761772
vt 0.881593 0.193224
vt 0.991179 0.193850
vt 0.991398 0.155503
vt 0.881812 0.154877
vt 0.783437 0.838392
vt 0.777263 0.036910
vt 0.777377 0.838393
vt 0.991671 0.107690
vt 0.882086 0.107064
vt 0.674949 0.036924
vt 0.675063 0.838408
vt 0.992256 0.005379
vt 0.882670 0.004753
vt 0.502971 0.187379
vt 0.503059 0.806434
vt 0.777390 0.927447
vt 0.675082 0.971258
vt 0.503059 0.806571
vt 0.879547 0.551111
vt 0.989133 0.551737
vt 0.990913 0.240322
vt 0.881327 0.239696
vt 0.988930 0.587150
vt 0.879345 0.586523
vt 0.879094 0.630479
vt 0.988679 0.631105
vt 0.878532 0.728646
vt 0.988118 0.729272
vt 0.877012 0.994630
vt 0.986598 0.995227
vt 0.859794 0.761772
vt 0.859691 0.036898
vn 0.000000 0.937737 0.347347
vn 0.000000 0.854731 0.519071
vn 0.000000 0.854731 0.519071
vn 0.000000 0.937737 0.347347
vn 1.000000 -0.000000 -0.000000
vn 1.000000 0.000000 -0.000000
vn 1.000000 -0.000000 -0.000000
vn 0.000000 -0.509548 0.860442
vn -0.000036 -0.509548 0.860442
vn 1.000000 0.000000 -0.000000
vn 1.000000 0.000000 -0.000000
vn 0.000000 -0.789534 0.613706
vn -0.000041 -0.789535 0.613706
vn 1.000000 0.000000 -0.000000
vn 1.000000 0.000000 -0.000000
vn 1.000000 0.000000 0.000000
vn 1.000000 0.000000 0.000000
vn 1.000000 0.000000 0.000000
vn 0.000000 1.000000 0.000000
vn 0.000000 1.000000 0.000000
vn 0.000000 1.000000 0.000000
vn 0.000000 1.000000 0.000000
vn 0.000000 0.000000 -1.000000
vn 0.000000 0.000000 -1.000000
vn 0.000000 0.000000 -1.000000
vn 0.000000 0.000000 -1.000000
vn 0.000000 -0.593094 -0.805133
vn 0.000000 -0.593094 -0.805133
vn 0.000000 -0.761494 -0.648172
vn 0.000000 -0.761494 -0.648172
vn 0.000000 -1.000000 0.000000
vn 0.000000 -1.000000 0.000000
vn 0.000000 -1.000000 0.000000
vn 0.000000 -1.000000 0.000000
vn 0.000000 0.803035 0.595932
vn 0.000000 0.803035 0.595932
vn 1.000000 -0.000000 -0.000000
vn 1.000000 -0.000000 -0.000000
vn 0.000000 0.937737 0.347347
vn 0.000000 0.854731 0.519071
vn -1.000000 -0.000000 -0.000000
vn -1.000000 -0.000000 -0.000000
vn -1.000000 0.000000 -0.000000
vn 0.000036 -0.509548 0.860442
vn -1.000000 0.000000 -0.000000
vn -1.000000 0.000000 -0.000000
vn 0.000041 -0.789535 0.613706
vn -1.000000 0.000000 -0.000000
vn -1.000000 0.000000 -0.000000
vn -1.000000 0.000000 0.000000
vn -1.000000 0.000000 0.000000
vn -1.000000 -0.000000 0.000000
vn 0.000000 1.000000 0.000000
vn 0.000000 1.000000 0.000000
vn 0.000000 0.000000 -1.000000
vn 0.000000 0.000000 -1.000000
vn 0.000000 -0.593094 -0.805133
vn 0.000000 -0.761494 -0.648172
vn 0.000000 -1.000000 0.000000
vn 0.000000 -1.000000 0.000000
vn 0.000000 0.803035 0.595932
vn -1.000000 -0.000001 -0.000000
vn -1.000000 -0.000001 -0.000000
s 1
g AA_Tank_01_Body_Prototype_GEO
usemtl initialShadingGroup
f 19/1/1 20/2/2 5/3/3 9/4/4
s 2
f 9/5/5 10/6/6 6/7/7
s 1
f 20/2/2 21/8/8 7/9/9 5/3/3
s 2
f 10/6/6 11/10/10 8/11/11 6/7/7
s 1
f 21/8/8 18/12/12 1/13/13 7/9/9
s 2
f 11/10/10 12/14/14 4/15/15 8/11/11
f 5/16/16 10/6/6 9/5/5
f 7/17/17 11/10/10 10/6/6 5/16/16
f 1/18/18 12/14/14 11/10/10 7/17/17
s 3
f 14/19/19 13/20/20 2/21/21 3/22/22
s 4
f 6/23/23 15/24/24 14/19/25 3/22/26
f 16/25/27 15/24/24 6/23/23 8/26/28
f 17/27/29 16/25/27 8/26/28 4/28/30
s 5
f 18/29/31 17/27/32 4/28/33 12/30/34
s 1
f 13/20/35 19/1/1 9/4/4 2/21/36
s 2
f 9/5/5 6/7/7 3/31/37 2/32/38
s 1
f 19/33/1 30/34/39 26/35/40 20/36/2
s 6
f 30/37/41 27/38/42 31/39/43
s 1
f 20/36/2 26/35/40 28/40/44 21/41/8
s 6
f 31/39/43 27/38/42 29/42/45 32/43/46
s 1
f 21/41/8 28/40/44 22/44/47 18/45/12
s 6
f 32/43/46 29/42/45 25/46/48 33/47/49
f 26/48/50 30/37/41 31/39/43
f 28/49/51 26/48/50 31/39/43 32/43/46
f 22/50/52 28/49/51 32/43/46 33/47/49
s 3
f 14/51/19 24/52/53 23/53/54 13/54/20
s 4
f 27/55/55 24/52/56 14/51/25 15/56/24
f 16/57/27 29/58/57 27/55/55 15/56/24
f 17/59/29 25/60/58 29/58/57 16/57/27
s 5
f 18/61/31 33/62/59 25/60/60 17/59/32
s 1
f 13/54/35 23/53/61 30/34/39 19/33/1
s 6
f 30/37/41 23/63/62 24/64/63 27/38/42
g default
v 0.440584 0.455881 -1.040634
v 0.448538 0.159071 -1.046439
v 0.448538 0.344674 -1.046439
v 0.439924 0.456005 -0.196722
v 0.439924 0.344674 -0.160529
v 0.439924 0.159071 -0.163623
v 0.427287 0.458484 -0.196696
v 0.423421 0.464394 -1.057076
v 0.427287 0.344674 -1.064251
v 0.427287 0.159071 -1.064251
v 0.427287 0.159071 -0.164334
v 0.427287 0.344674 -0.160173
v 0.427287 0.448038 -1.064251
v 0.448538 0.448038 -1.046439
v 0.439924 0.448038 -0.191451
v 0.427287 0.448038 -0.187817
v 0.448538 0.159071 -0.178464
v 0.448538 0.344674 -0.175421
v 0.448538 0.448038 -0.201696
v 0.439924 0.457760 -0.205853
v 0.427287 0.464394 -0.206851
v 0.427287 0.464394 -1.046439
v 0.007160 0.448038 -0.188173
v 0.007160 0.344674 -0.160529
v 0.007160 0.159071 -0.164690
v 0.007160 0.159071 -1.064251
v 0.007160 0.344674 -1.064251
v 0.007160 0.448038 -1.064251
v 0.007160 0.464394 -1.064251
v 0.007160 0.464394 -1.046439
v 0.007160 0.464394 -0.207201
v 0.007160 0.460259 -0.197052
v 0.437355 0.455374 -1.054504
v 0.437060 0.448038 -1.056060
v 0.437365 0.344674 -1.055804
v 0.437912 0.159071 -1.055345
v -0.426264 0.455881 -1.040634
v -0.434218 0.159071 -1.046439
v -0.434218 0.344674 -1.046439
v -0.425603 0.456005 -0.196722
v -0.425603 0.344674 -0.160529
v -0.425603 0.159071 -0.163623
v -0.412966 0.458484 -0.196696
v -0.409100 0.464394 -1.057076
v -0.412966 0.344674 -1.064251
v -0.412966 0.159071 -1.064251
v -0.412966 0.159071 -0.164334
v -0.412966 0.344674 -0.160173
v -0.412966 0.448038 -1.064251
v -0.434218 0.448038 -1.046439
v -0.425603 0.448038 -0.191451
v -0.412966 0.448038 -0.187817
v -0.434218 0.159071 -0.178464
v -0.434218 0.344674 -0.175421
v -0.434218 0.448038 -0.201696
v -0.425603 0.457760 -0.205853
v -0.412966 0.464394 -0.206851
v -0.412966 0.464394 -1.046439
v -0.423034 0.455374 -1.054504
v -0.422739 0.448038 -1.056060
v -0.423044 0.344674 -1.055804
v -0.423592 0.159071 -1.055345
vt 0.158274 0.939882
vt 0.242233 0.924603
vt 0.242768 0.932602
vt 0.158305 0.950272
vt 0.007629 0.947330
vt 0.007703 0.936961
vt 0.477149 0.556870
vt 0.484536 0.557642
vt 0.484642 0.562654
vt 0.476996 0.563228
vt 0.192869 0.283610
vt 0.193947 0.223459
vt 0.199429 0.223399
vt 0.198569 0.283712
vt 0.190830 0.391626
vt 0.196837 0.391739
vt 0.268680 0.557551
vt 0.268660 0.563291
vt 0.010847 0.280177
vt 0.011975 0.220024
vt 0.008807 0.388189
vt 0.209299 0.138490
vt 0.472696 0.136307
vt 0.473986 0.292633
vt 0.210595 0.294816
vt 0.474684 0.381386
vt 0.211313 0.383573
vt 0.481914 0.292584
vt 0.482891 0.381881
vt 0.480631 0.136248
vt 0.012130 0.210505
vt 0.192520 0.213425
vt 0.199344 0.218718
vt 0.249784 0.928311
vt 0.251694 0.922211
vt 0.482955 0.389560
vt 0.474798 0.391787
vt 0.211405 0.395274
vt 0.011765 0.412637
vt 0.162336 0.413830
vt 0.246203 0.414618
vt 0.254145 0.418123
vt 0.485924 0.976684
vt 0.477225 0.979566
vt 0.268751 0.979759
vt 0.484825 0.983830
vt 0.475342 0.984845
vt 0.268780 0.988596
vt 0.246660 0.405689
vt 0.253147 0.408136
vt 0.162440 0.405025
vt 0.011840 0.404262
vt 0.158274 0.939882
vt 0.158305 0.950272
vt 0.242768 0.932602
vt 0.242233 0.924603
vt 0.007703 0.936961
vt 0.007629 0.947330
vt 0.477149 0.556870
vt 0.476996 0.563228
vt 0.484642 0.562654
vt 0.484536 0.557642
vt 0.192869 0.283610
vt 0.198569 0.283712
vt 0.199429 0.223399
vt 0.193947 0.223459
vt 0.190830 0.391626
vt 0.196837 0.391739
vt 0.268680 0.557551
vt 0.268660 0.563291
vt 0.010847 0.280177
vt 0.011975 0.220024
vt 0.008807 0.388189
vt 0.209299 0.138490
vt 0.210595 0.294816
vt 0.473986 0.292633
vt 0.472696 0.136307
vt 0.211313 0.383573
vt 0.474684 0.381386
vt 0.481914 0.292584
vt 0.482891 0.381881
vt 0.480631 0.136248
vt 0.192520 0.213425
vt 0.012130 0.210505
vt 0.199344 0.218718
vt 0.249784 0.928311
vt 0.251694 0.922211
vt 0.474798 0.391787
vt 0.482955 0.389560
vt 0.211405 0.395274
vt 0.162336 0.413830
vt 0.011765 0.412637
vt 0.246203 0.414618
vt 0.254145 0.418123
vt 0.477225 0.979566
vt 0.485924 0.976684
vt 0.268751 0.979759
vt 0.475342 0.984845
vt 0.484825 0.983830
vt 0.268780 0.988596
vt 0.253147 0.408136
vt 0.246660 0.405689
vt 0.162440 0.405025
vt 0.011840 0.404262
vn 0.999939 0.001062 0.011004
vn 0.998568 0.053009 0.007262
vn 0.813078 0.159999 0.559736
vn 0.853132 0.040327 0.520135
vn 0.865210 -0.008290 0.501340
vn 0.999954 -0.000158 0.009556
vn 0.010607 0.897263 0.441369
vn 0.305529 0.884841 0.351723
vn 0.502524 0.864556 0.003617
vn 0.018105 0.999819 0.005812
vn 0.019863 0.000000 -0.999803
vn 0.018918 0.026561 -0.999468
vn 0.642366 0.004648 -0.766384
vn 0.642373 0.000000 -0.766392
vn 0.020152 0.000000 -0.999797
vn 0.642373 0.000000 -0.766393
vn 0.000000 0.896294 0.443461
vn 0.000000 0.999983 0.005906
vn 0.000000 0.000000 -1.000000
vn 0.000000 0.029971 -0.999551
vn 0.000000 0.000000 -1.000000
vn 0.000000 -0.022414 0.999749
vn -0.000846 -0.022414 0.999748
vn -0.000843 0.080989 0.996715
vn 0.000000 0.081006 0.996714
vn -0.000650 0.303400 0.952863
vn -0.000000 0.303437 0.952852
vn 0.150129 0.269483 0.951231
vn 0.153623 0.308465 0.938749
vn 0.152787 0.298920 0.941968
vn 0.150129 0.269483 0.951231
vn -0.014061 -0.019542 0.999710
vn -0.014061 -0.019542 0.999710
vn -0.014061 -0.019542 0.999710
vn -0.014061 -0.019542 0.999710
vn 0.008377 0.215181 -0.976538
vn 0.012279 0.217560 -0.975970
vn 0.581805 0.439113 -0.684604
vn 0.736781 0.563034 0.374361
vn 0.727376 0.686240 -0.000036
vn 0.171979 0.600311 0.781057
vn 0.171979 0.600311 0.781057
vn -0.000000 0.616732 0.787173
vn 0.000637 0.616732 0.787173
vn 1.000000 0.000000 0.000000
vn 1.000000 0.000000 0.000000
vn 0.998675 0.051470 -0.000036
vn 0.727402 0.686212 -0.000482
vn 0.504881 0.863188 -0.001508
vn 0.013655 0.999907 -0.000087
vn 0.000000 1.000000 0.000000
vn 0.574143 0.799338 -0.177253
vn 0.004677 0.999988 -0.001699
vn 0.000000 1.000000 0.000000
vn 0.652069 0.028597 -0.757620
vn 0.642371 0.000000 -0.766394
vn 0.642371 0.000000 -0.766394
vn 0.624487 0.761579 -0.173242
vn -0.999939 0.001062 0.011004
vn -0.853133 0.040327 0.520132
vn -0.813080 0.159997 0.559734
vn -0.998568 0.053009 0.007262
vn -0.999954 -0.000158 0.009556
vn -0.865212 -0.008290 0.501338
vn -0.010607 0.897263 0.441369
vn -0.018105 0.999819 0.005812
vn -0.502522 0.864557 0.003617
vn -0.305529 0.884840 0.351726
vn -0.019863 0.000000 -0.999803
vn -0.642373 0.000000 -0.766392
vn -0.642366 0.004648 -0.766384
vn -0.018918 0.026561 -0.999468
vn -0.020152 0.000000 -0.999797
vn -0.642373 0.000000 -0.766392
vn 0.000843 0.080989 0.996715
vn 0.000846 -0.022414 0.999748
vn 0.000650 0.303400 0.952863
vn -0.150129 0.269483 0.951231
vn -0.150129 0.269483 0.951231
vn -0.152787 0.298921 0.941967
vn -0.153622 0.308465 0.938749
vn 0.014061 -0.019542 0.999710
vn 0.014061 -0.019542 0.999710
vn 0.014061 -0.019542 0.999710
vn 0.014061 -0.019542 0.999710
vn -0.012279 0.217560 -0.975970
vn -0.008377 0.215181 -0.976538
vn -0.581804 0.439117 -0.684602
vn -0.736781 0.563034 0.374362
vn -0.727379 0.686236 -0.000036
vn -0.171978 0.600312 0.781057
vn -0.171978 0.600312 0.781056
vn -0.000637 0.616732 0.787173
vn -1.000000 -0.000000 0.000000
vn -1.000000 0.000000 0.000000
vn -0.998675 0.051469 -0.000036
vn -0.727405 0.686208 -0.000482
vn -0.013655 0.999907 -0.000087
vn -0.504879 0.863189 -0.001508
vn -0.004677 0.999988 -0.001699
vn -0.574143 0.799338 -0.177252
vn -0.652071 0.028597 -0.757618
vn -0.642373 0.000000 -0.766392
vn -0.642374 0.000000 -0.766392
vn -0.624485 0.761580 -0.173245
s 1
g AA_Tank_01_Turret_Prototype_GEO
usemtl initialShadingGroup
f 51/65/64 52/66/65 48/67/66 38/68/67
f 38/68/67 39/69/68 50/70/69 51/65/64
s 2
f 40/71/70 37/72/71 53/73/72 54/74/73
s 3
f 42/75/74 46/76/75 67/77/76 68/78/77
f 43/79/78 42/75/74 68/78/77 69/80/79
s 2
f 65/81/80 40/71/70 54/74/73 64/82/81
s 3
f 60/83/82 61/84/83 46/76/75 42/75/74
f 59/85/84 60/83/82 42/75/74 43/79/78
s 4
f 58/86/85 44/87/86 45/88/87 57/89/88
f 57/89/88 45/88/87 49/90/89 56/91/90
s 5
f 38/92/91 48/93/92 49/90/93 45/88/94
s off
f 39/94/95 38/92/96 45/88/97 44/87/98
s 3
f 46/76/75 61/84/83 62/95/99 41/96/100
f 66/97/101 46/76/75 41/96/100
s 1
f 37/98/102 52/66/65 53/99/103
s 5
f 49/90/93 48/93/92 37/100/104 40/101/105
s 4
f 65/102/106 56/91/90 49/90/89 40/101/107
s 1
f 51/65/64 50/70/69 35/103/108 36/104/109
f 47/105/110 52/66/65 51/65/64 36/104/109
f 53/99/103 52/66/65 47/105/110 34/106/111
s 2
f 54/74/73 53/73/72 34/107/112 55/108/113
f 64/82/81 54/74/73 55/108/113 63/109/114
f 55/108/113 66/110/115 41/111/116
f 63/109/114 55/108/113 41/111/116 62/112/117
f 55/108/113 34/107/112 66/110/115
s 3
f 47/105/118 67/113/76 66/114/101
f 68/115/77 67/113/76 47/105/118 36/104/119
f 69/116/79 68/115/77 36/104/119 35/103/120
f 47/105/118 66/114/101 34/106/121
f 66/97/101 67/77/76 46/76/75
s 1
f 37/98/102 48/67/66 52/66/65
s 6
f 87/117/122 74/118/123 84/119/124 88/120/125
f 74/118/123 87/117/122 86/121/126 75/122/127
s 2
f 76/123/128 90/124/129 89/125/130 73/126/131
s 3
f 78/127/132 94/128/133 93/129/134 82/130/135
f 79/131/136 95/132/137 94/128/133 78/127/132
s 2
f 65/133/80 64/134/81 90/124/129 76/123/128
s 3
f 60/135/82 78/127/132 82/130/135 61/136/83
f 59/137/84 79/131/136 78/127/132 60/135/82
s 4
f 58/138/85 57/139/88 81/140/138 80/141/139
f 57/139/88 56/142/90 85/143/140 81/140/138
s 8
f 74/144/141 81/140/142 85/143/143 84/145/144
s off
f 75/146/145 80/141/146 81/140/147 74/144/148
s 3
f 82/130/135 77/147/149 62/148/150 61/136/83
f 92/149/151 77/147/149 82/130/135
s 6
f 73/150/152 89/151/153 88/120/125
s 8
f 85/143/143 76/152/154 73/153/155 84/145/144
s 4
f 65/154/106 76/152/156 85/143/140 56/142/90
s 6
f 87/117/122 72/155/157 71/156/158 86/121/126
f 83/157/159 72/155/157 87/117/122 88/120/125
f 89/151/153 70/158/160 83/157/159 88/120/125
s 2
f 90/124/129 91/159/161 70/160/162 89/125/130
f 64/134/81 63/161/114 91/159/161 90/124/129
f 91/159/161 77/162/163 92/163/164
f 63/161/114 62/164/117 77/162/163 91/159/161
f 91/159/161 92/163/164 70/160/162
s 3
f 83/157/165 92/165/151 93/166/134
f 94/167/133 72/155/166 83/157/165 93/166/134
f 95/168/137 71/156/167 72/155/166 94/167/133
f 83/157/165 70/158/168 92/165/151
f 92/149/151 82/130/135 93/129/134
s 6
f 73/150/152 88/120/125 84/119/124
