# This file uses centimeters as units for non-parametric coordinates.

mtllib Factory_01_Prototype.mtl
g default
v -3.025700 -0.093697 0.000000
v 0.000001 -0.093697 0.000000
v -3.025700 4.726069 -0.000000
v 0.000001 6.970303 0.000000
v -3.025700 4.726069 -14.936710
v 0.000001 6.970303 -14.936710
v -3.025700 -0.093697 -14.936710
v 0.000001 -0.093697 -14.936710
v -0.058267 6.970303 0.000000
v -0.058267 6.970303 -14.936710
v -0.058267 -0.093697 -14.936710
v -0.058267 -0.093697 0.000000
v 0.000001 4.631882 0.000000
v -0.058267 4.631882 0.000000
v -3.025700 4.631882 0.000000
v -3.025700 4.631882 -14.936710
v -0.058267 4.631882 -14.936710
v 0.000001 4.631882 -14.936710
v -3.025700 0.000000 0.000000
v -3.025700 0.000000 -14.936710
v -0.058267 4.725580 -14.936710
v 0.000001 4.726560 -14.936710
v -0.058268 4.726560 -0.000000
v 0.000000 4.726560 -0.000000
v -6.051400 -0.093697 0.000000
v -6.051400 4.726069 -0.000000
v -3.025700 6.970303 0.000000
v -6.051400 4.726069 -14.936710
v -3.025700 6.970303 -14.936710
v -6.051400 -0.093697 -14.936710
v -3.083966 6.970303 0.000000
v -3.083966 6.970303 -14.936710
v -3.083966 -0.093697 -14.936710
v -3.083966 -0.093697 0.000000
v -3.083966 4.631882 0.000000
v -6.051400 4.631882 0.000000
v -6.051400 4.631882 -14.936710
v -3.083966 4.631882 -14.936710
v -6.051399 0.000000 0.000000
v -6.051399 0.000000 -14.936710
v -3.083966 4.725580 -14.936710
v -3.083968 4.726560 -0.000000
v -9.077100 -0.093697 0.000000
v -9.077101 4.726069 -0.000000
v -6.051400 6.970303 0.000000
v -9.077100 4.726069 -14.936710
v -6.051400 6.970303 -14.936710
v -9.077100 -0.093697 -14.936710
v -6.109667 6.970303 0.000000
v -6.109667 6.970303 -14.936710
v -6.109667 -0.093697 -14.936710
v -6.109667 -0.093697 0.000000
v -6.109667 4.631882 0.000000
v -9.077100 4.631882 0.000000
v -9.077100 4.631882 -14.936710
v -6.109667 4.631882 -14.936710
v -9.077100 0.000000 0.000000
v -9.077100 0.000000 -14.936710
v -6.109667 4.725580 -14.936710
v -6.109669 4.726560 -0.000000
v -15.128499 -0.093697 0.000000
v -12.102799 -0.093697 0.000000
v -15.128499 4.725580 0.000000
v -12.102799 6.970303 0.000000
v -15.128499 4.725580 -14.936710
v -12.102799 6.970303 -14.936710
v -15.128499 -0.093697 -14.936710
v -12.102799 -0.093697 -14.936710
v -12.161066 6.970303 0.000000
v -12.161066 6.970303 -14.936710
v -12.161066 -0.093697 -14.936710
v -12.161066 -0.093697 0.000000
v -12.102799 4.631882 0.000000
v -12.161066 4.631882 0.000000
v -15.128499 4.631882 0.000000
v -15.128499 4.631882 -14.936710
v -12.161066 4.631882 -14.936710
v -12.102799 4.631882 -14.936710
v -15.128499 0.000000 0.000000
v -15.128499 0.000000 -14.936710
v -12.161066 4.725580 -14.936710
v -12.102799 4.726069 -14.936710
v -12.161068 4.726560 -0.000000
v -12.102800 4.726069 -0.000000
v -9.077100 6.970303 0.000000
v -9.077100 6.970303 -14.936710
v -9.135366 6.970303 0.000000
v -9.135366 6.970303 -14.936710
v -9.135366 -0.093697 -14.936710
v -9.135366 -0.093697 0.000000
v -9.135366 4.631882 0.000000
v -9.135366 4.631882 -14.936710
v -12.102799 0.000000 0.000000
v -12.102799 0.000000 -14.936710
v -9.135366 4.725580 -14.936710
v -9.135368 4.726560 -0.000000
vt 0.258292 0.995001
vt 0.009360 0.995001
vt 0.009360 0.208172
vt 0.258292 0.208172
vt 0.263280 0.208172
vt 0.263280 0.995001
vt 0.381474 0.208172
vt 0.381474 0.995001
vt 0.544627 0.208172
vt 0.547696 0.208172
vt 0.547696 0.995001
vt 0.544627 0.995001
vt 0.388310 0.208172
vt 0.388310 0.995001
vt 0.381378 0.169144
vt 0.381378 0.166226
vt 0.617984 0.166226
vt 0.617984 0.169144
vt 0.381378 0.017650
vt 0.386069 0.017650
vt 0.617984 0.017649
vt 0.622675 0.166226
vt 0.622724 0.169144
vt 0.622675 0.017649
vt 0.735066 0.166226
vt 0.735066 0.169144
vt 0.355804 0.160936
vt 0.355804 0.163853
vt 0.119199 0.163853
vt 0.119199 0.160936
vt 0.114458 0.163853
vt 0.114458 0.160936
vt 0.351113 0.012359
vt 0.355804 0.012359
vt 0.119199 0.012359
vt 0.002116 0.160936
vt 0.002116 0.163853
vt 0.114507 0.012359
vt 0.544627 0.208172
vt 0.547696 0.208172
vt 0.547696 0.995001
vt 0.544627 0.995001
vt 0.381378 0.169144
vt 0.381378 0.166226
vt 0.617984 0.166226
vt 0.617984 0.169144
vt 0.355804 0.160936
vt 0.355804 0.163853
vt 0.119199 0.163853
vt 0.119199 0.160936
vt 0.388310 0.208172
vt 0.388310 0.995001
vt 0.381378 0.017650
vt 0.386069 0.017650
vt 0.617984 0.017649
vt 0.351113 0.012359
vt 0.355804 0.012359
vt 0.119199 0.012359
vt 0.002116 0.160936
vt 0.114458 0.160936
vt 0.114458 0.163853
vt 0.002116 0.163853
vt 0.114507 0.012359
vt 0.622675 0.017649
vt 0.622675 0.166226
vt 0.622724 0.169144
vt 0.263280 0.995001
vt 0.263280 0.208172
vt 0.381474 0.208172
vt 0.381474 0.995001
vt 0.735066 0.166226
vt 0.735066 0.169144
vt 0.258292 0.995001
vt 0.258292 0.208172
vt 0.544627 0.208172
vt 0.547696 0.208172
vt 0.547696 0.995001
vt 0.544627 0.995001
vt 0.381378 0.169144
vt 0.381378 0.166226
vt 0.617984 0.166226
vt 0.617984 0.169144
vt 0.355804 0.160936
vt 0.355804 0.163853
vt 0.119199 0.163853
vt 0.119199 0.160936
vt 0.388310 0.208172
vt 0.388310 0.995001
vt 0.381378 0.017650
vt 0.386069 0.017650
vt 0.617984 0.017649
vt 0.351113 0.012359
vt 0.355804 0.012359
vt 0.119199 0.012359
vt 0.002116 0.160936
vt 0.114458 0.160936
vt 0.114458 0.163853
vt 0.002116 0.163853
vt 0.114507 0.012359
vt 0.622675 0.017649
vt 0.622675 0.166226
vt 0.622724 0.169144
vt 0.263280 0.995001
vt 0.263280 0.208172
vt 0.381474 0.208172
vt 0.381474 0.995001
vt 0.735066 0.166226
vt 0.735066 0.169144
vt 0.258292 0.995001
vt 0.258292 0.208172
vt 0.544627 0.208172
vt 0.547696 0.208172
vt 0.547696 0.995001
vt 0.544627 0.995001
vt 0.381378 0.169144
vt 0.381378 0.166226
vt 0.617984 0.166226
vt 0.617984 0.169144
vt 0.355804 0.160936
vt 0.355804 0.163853
vt 0.119199 0.163853
vt 0.119199 0.160936
vt 0.388310 0.208172
vt 0.388310 0.995001
vt 0.381378 0.017650
vt 0.386069 0.017650
vt 0.617984 0.017649
vt 0.351113 0.012359
vt 0.355804 0.012359
vt 0.119199 0.012359
vt 0.002116 0.160936
vt 0.114458 0.160936
vt 0.114458 0.163853
vt 0.002116 0.163853
vt 0.114507 0.012359
vt 0.617984 0.017649
vt 0.622675 0.017649
vt 0.622675 0.166226
vt 0.622724 0.169144
vt 0.263280 0.995001
vt 0.263280 0.208172
vt 0.381474 0.208172
vt 0.381474 0.995001
vt 0.735066 0.166226
vt 0.735066 0.169144
vt 0.119199 0.012359
vt 0.258292 0.995001
vt 0.258292 0.208172
vt 0.681807 0.989724
vt 0.681702 0.222715
vt 0.929174 0.222681
vt 0.929280 0.989690
vt 0.544627 0.208172
vt 0.547696 0.208172
vt 0.547696 0.995001
vt 0.544627 0.995001
vt 0.381378 0.169144
vt 0.381378 0.166226
vt 0.617984 0.166226
vt 0.617984 0.169144
vt 0.355804 0.160936
vt 0.355804 0.163853
vt 0.119199 0.163853
vt 0.119199 0.160936
vt 0.388310 0.208172
vt 0.388310 0.995001
vt 0.381378 0.017650
vt 0.386069 0.017650
vt 0.617984 0.017649
vt 0.351113 0.012359
vt 0.355804 0.012359
vt 0.119199 0.012359
vt 0.002116 0.160936
vt 0.114458 0.160936
vt 0.114458 0.163853
vt 0.002116 0.163853
vt 0.114507 0.012359
vt 0.622675 0.017649
vt 0.622675 0.166226
vt 0.622724 0.169144
vt 0.263280 0.995001
vt 0.263280 0.208172
vt 0.381474 0.208172
vt 0.381474 0.995001
vt 0.735066 0.166226
vt 0.735066 0.169144
vt 0.258292 0.995001
vt 0.258292 0.208172
vn 1.000000 0.000000 0.000000
vn 1.000000 0.000000 0.000000
vn 1.000000 0.000000 0.000000
vn 1.000000 0.000000 0.000000
vn -0.595737 0.803180 -0.000000
vn 0.000000 1.000000 0.000000
vn 0.000000 1.000000 0.000000
vn -0.595737 0.803180 -0.000000
vn 0.000000 0.000000 -1.000000
vn 0.000000 0.000000 -1.000000
vn 0.000000 0.000000 -1.000000
vn 0.000000 0.000000 -1.000000
vn 0.000000 0.000000 1.000000
vn 0.000000 0.000000 1.000000
vn 0.000000 0.000000 1.000000
vn 0.000000 0.000002 1.000000
vn -0.603205 0.797586 -0.000000
vn -0.603205 0.797586 -0.000000
vn 0.000000 0.000000 -1.000000
vn 0.000000 0.000000 -1.000000
vn 0.000000 0.000000 -1.000000
vn 0.000000 0.000000 -1.000000
vn 0.000000 0.000000 -1.000000
vn 0.000000 0.000000 1.000000
vn 0.000000 0.000000 1.000000
vn 0.000000 0.000000 1.000000
vn 0.000000 0.000000 1.000000
vn 0.000000 0.000000 1.000000
vn 0.000000 -0.000000 1.000000
vn 0.000000 0.000000 1.000000
vn 0.000000 0.000000 1.000000
vn 0.000000 -0.000000 1.000000
vn 0.000000 0.000000 1.000000
vn 0.000000 0.000000 -1.000000
vn 0.000001 0.000000 -1.000000
vn 0.000001 0.000000 -1.000000
vn 0.000000 0.000000 -1.000000
vn 1.000000 0.000000 0.000000
vn 1.000000 -0.000000 0.000000
vn 1.000000 -0.000000 0.000000
vn 1.000000 -0.000000 0.000000
vn 0.000001 0.000000 -1.000000
vn 0.000000 0.000000 -1.000000
vn 0.000000 0.000004 1.000000
vn -0.595737 0.803180 0.000000
vn 0.000000 1.000000 0.000000
vn 0.000000 1.000000 0.000000
vn -0.595737 0.803180 0.000000
vn 0.000000 0.000000 -1.000000
vn 0.000000 0.000000 -1.000000
vn 0.000000 0.000000 -1.000000
vn 0.000000 0.000000 -1.000000
vn 0.000000 0.000000 1.000000
vn 0.000000 0.000000 1.000000
vn -0.000000 0.000000 1.000000
vn -0.000000 0.000002 1.000000
vn -0.603205 0.797586 0.000000
vn -0.603205 0.797586 0.000000
vn 0.000000 0.000000 -1.000000
vn 0.000000 0.000000 -1.000000
vn 0.000000 0.000000 -1.000000
vn 0.000000 0.000000 -1.000000
vn 0.000000 0.000000 -1.000000
vn 0.000000 0.000000 1.000000
vn 0.000000 0.000000 1.000000
vn 0.000000 0.000000 1.000000
vn 0.000000 0.000000 1.000000
vn 0.000000 0.000000 1.000000
vn -0.000000 -0.000000 1.000000
vn -0.000000 0.000000 1.000000
vn -0.000002 0.000000 1.000000
vn -0.000002 -0.000000 1.000000
vn 0.000000 0.000000 1.000000
vn 0.000000 0.000000 -1.000000
vn 0.000001 0.000000 -1.000000
vn 0.000000 0.000000 -1.000000
vn -0.000028 0.000000 -1.000000
vn 1.000000 -0.000000 0.000000
vn 1.000000 -0.000000 0.000000
vn 1.000000 -0.000000 0.000000
vn 1.000000 -0.000000 0.000000
vn -0.000001 0.000000 -1.000000
vn -0.000029 0.000000 -1.000000
vn 0.000000 0.000004 1.000000
vn 1.000000 0.000003 0.000000
vn 1.000000 0.000003 0.000000
vn 1.000000 0.000003 0.000000
vn 1.000000 0.000003 0.000000
vn -0.595737 0.803180 -0.000000
vn 0.000000 1.000000 0.000000
vn 0.000000 1.000000 0.000000
vn -0.595737 0.803180 -0.000000
vn 0.000000 0.000000 -1.000000
vn 0.000000 0.000000 -1.000000
vn 0.000000 0.000000 -1.000000
vn 0.000000 0.000000 -1.000000
vn 0.000000 0.000000 1.000000
vn 0.000000 0.000000 1.000000
vn -0.000000 0.000000 1.000000
vn -0.000000 0.000002 1.000000
vn -0.603205 0.797587 -0.000000
vn -0.603205 0.797587 -0.000000
vn 0.000000 0.000000 -1.000000
vn 0.000000 0.000000 -1.000000
vn 0.000000 0.000000 -1.000000
vn 0.000000 0.000000 -1.000000
vn 0.000000 0.000000 -1.000000
vn 0.000000 0.000000 1.000000
vn 0.000000 0.000000 1.000000
vn 0.000000 0.000000 1.000000
vn 0.000000 0.000000 1.000000
vn 0.000000 0.000000 1.000000
vn -0.000000 -0.000000 1.000000
vn -0.000000 0.000000 1.000000
vn -0.000002 0.000000 1.000000
vn -0.000002 -0.000000 1.000000
vn 0.000000 0.000000 1.000000
vn 0.000000 0.000000 -1.000000
vn 0.000001 0.000000 -1.000000
vn 0.000000 0.000000 -1.000000
vn -0.000028 0.000000 -1.000000
vn 1.000000 -0.000000 0.000000
vn 1.000000 -0.000000 0.000000
vn 1.000000 -0.000000 0.000000
vn 1.000000 -0.000000 0.000000
vn -0.000001 0.000000 -1.000000
vn -0.000029 0.000000 -1.000000
vn 0.000000 0.000004 1.000000
vn 1.000000 0.000001 0.000000
vn 1.000000 0.000001 0.000000
vn 1.000000 0.000001 0.000000
vn 1.000000 0.000001 0.000000
vn -0.595821 0.803117 0.000000
vn 0.000000 1.000000 0.000000
vn 0.000000 1.000000 0.000000
vn -0.595821 0.803117 0.000000
vn 0.000000 0.000000 -1.000000
vn 0.000000 0.000000 -1.000000
vn 0.000000 0.000000 -1.000000
vn 0.000000 0.000000 -1.000000
vn 0.000000 0.000000 1.000000
vn 0.000000 0.000000 1.000000
vn -0.000000 0.000000 1.000000
vn 0.000000 0.000001 1.000000
vn -0.603289 0.797523 0.000000
vn -0.603289 0.797523 0.000000
vn 0.000000 0.000000 -1.000000
vn 0.000000 0.000000 -1.000000
vn 0.000000 0.000000 -1.000000
vn 0.000000 0.000000 -1.000000
vn 0.000000 0.000000 -1.000000
vn 0.000000 0.000000 1.000000
vn 0.000000 0.000000 1.000000
vn 0.000000 0.000000 1.000000
vn 0.000000 0.000000 1.000000
vn 0.000000 0.000000 1.000000
vn 0.000000 -0.000000 1.000000
vn 0.000000 -0.000000 1.000000
vn -0.000002 0.000000 1.000000
vn -0.000002 -0.000000 1.000000
vn 0.000000 0.000000 1.000000
vn 0.000000 0.000000 -1.000000
vn 0.000000 0.000000 -1.000000
vn -0.000001 0.000000 -1.000000
vn -0.000028 0.000000 -1.000000
vn 1.000000 -0.000000 0.000000
vn 1.000000 -0.000000 0.000000
vn 1.000000 -0.000000 0.000000
vn 1.000000 -0.000000 0.000000
vn -0.000002 0.000000 -1.000000
vn -0.000029 0.000000 -1.000000
vn 0.000000 0.000003 1.000000
vn 1.000000 0.000002 0.000000
vn 1.000000 0.000002 0.000000
vn 1.000000 0.000002 0.000000
vn 1.000000 0.000002 0.000000
vn -1.000000 0.000000 0.000000
vn -1.000000 0.000000 0.000000
vn -1.000000 0.000000 0.000000
vn -1.000000 0.000000 0.000000
vn -0.595737 0.803179 -0.000000
vn 0.000000 1.000000 0.000000
vn 0.000000 1.000000 0.000000
vn -0.595737 0.803180 -0.000000
vn 0.000000 0.000000 -1.000000
vn 0.000000 0.000000 -1.000000
vn 0.000000 0.000000 -1.000000
vn 0.000000 0.000000 -1.000000
vn 0.000000 0.000000 1.000000
vn 0.000000 0.000000 1.000000
vn -0.000000 0.000000 1.000000
vn -0.000000 0.000002 1.000000
vn -0.603205 0.797586 -0.000000
vn -0.603205 0.797586 -0.000000
vn 0.000000 0.000000 -1.000000
vn 0.000000 0.000000 -1.000000
vn 0.000000 0.000000 -1.000000
vn 0.000000 0.000000 -1.000000
vn 0.000000 0.000000 -1.000000
vn 0.000000 0.000000 1.000000
vn 0.000000 0.000000 1.000000
vn 0.000000 0.000000 1.000000
vn 0.000000 0.000000 1.000000
vn 0.000000 0.000000 1.000000
vn -0.000000 -0.000000 1.000000
vn -0.000000 0.000000 1.000000
vn -0.000002 0.000000 1.000000
vn -0.000002 -0.000000 1.000000
vn 0.000000 0.000000 1.000000
vn 0.000000 0.000000 -1.000000
vn 0.000001 0.000000 -1.000000
vn 0.000000 0.000000 -1.000000
vn -0.000028 0.000000 -1.000000
vn 1.000000 -0.000001 0.000000
vn 1.000000 -0.000001 0.000000
vn 1.000000 -0.000001 0.000000
vn 1.000000 -0.000001 0.000000
vn -0.000001 0.000000 -1.000000
vn -0.000029 0.000000 -1.000000
vn 0.000000 0.000004 1.000000
vn 1.000000 0.000012 0.000000
vn 1.000000 0.000012 0.000000
vn 1.000000 0.000012 0.000000
vn 1.000000 0.000012 0.000000
s 1
g Factory_01_Prototype_GEO
usemtl initialShadingGroup
f 13/1/1 2/2/2 8/3/3 18/4/4
s 2
f 9/9/5 4/10/6 6/11/7 10/12/8
s 3
f 8/15/9 11/16/10 17/17/11 18/18/12
s 4
f 12/27/13 2/28/14 13/29/15 14/30/16
s 2
f 3/13/17 9/9/5 10/12/8 5/14/18
s off
f 11/16/19 7/19/20 20/20/21 16/21/22 17/17/23
f 19/33/24 1/34/25 12/27/26 14/30/27 15/35/28
s 4
f 9/36/29 23/32/30 24/31/31 4/37/32
f 3/38/33 23/32/30 9/36/29
s 3
f 17/17/11 16/21/34 5/24/35 21/22/36
f 18/18/12 17/17/11 21/22/36 22/23/37
s 1
f 24/6/38 22/5/39 6/7/40 4/8/41
s 3
f 21/22/36 5/24/35 10/25/42
f 22/23/37 21/22/36 10/25/42 6/26/43
s 4
f 3/38/33 15/35/44 14/30/16 23/32/30
f 24/31/31 23/32/30 14/30/16 13/29/15
s 1
f 13/1/1 18/4/4 22/5/39 24/6/38
s 7
f 31/39/45 27/40/46 29/41/47 32/42/48
s 8
f 7/43/49 33/44/50 38/45/51 16/46/52
s 9
f 34/47/53 1/48/54 15/49/55 35/50/56
s 7
f 26/51/57 31/39/45 32/42/48 28/52/58
s off
f 33/44/59 30/53/60 40/54/61 37/55/62 38/45/63
f 39/56/64 25/57/65 34/47/66 35/50/67 36/58/68
s 9
f 31/59/69 42/60/70 3/61/71 27/62/72
f 26/63/73 42/60/70 31/59/69
s 8
f 38/45/51 37/55/74 28/64/75 41/65/76
f 16/46/52 38/45/51 41/65/76 5/66/77
s off
f 3/67/78 5/68/79 29/69/80 27/70/81
s 8
f 41/65/76 28/64/75 32/71/82
f 5/66/77 41/65/76 32/71/82 29/72/83
s 9
f 26/63/73 36/58/84 35/50/56 42/60/70
f 3/61/71 42/60/70 35/50/56 15/49/55
s off
f 15/73/85 16/74/86 5/68/87 3/67/88
s 12
f 49/75/89 45/76/90 47/77/91 50/78/92
s 13
f 30/79/93 51/80/94 56/81/95 37/82/96
s 14
f 52/83/97 25/84/98 36/85/99 53/86/100
s 12
f 44/87/101 49/75/89 50/78/92 46/88/102
s off
f 51/80/103 48/89/104 58/90/105 55/91/106 56/81/107
f 57/92/108 43/93/109 52/83/110 53/86/111 54/94/112
s 14
f 49/95/113 60/96/114 26/97/115 45/98/116
f 44/99/117 60/96/114 49/95/113
s 13
f 56/81/95 55/91/118 46/100/119 59/101/120
f 37/82/96 56/81/95 59/101/120 28/102/121
s off
f 26/103/122 28/104/123 47/105/124 45/106/125
s 13
f 59/101/120 46/100/119 50/107/126
f 28/102/121 59/101/120 50/107/126 47/108/127
s 14
f 44/99/117 54/94/128 53/86/100 60/96/114
f 26/97/115 60/96/114 53/86/100 36/85/99
s off
f 36/109/129 37/110/130 28/104/131 26/103/132
s 17
f 69/111/133 64/112/134 66/113/135 70/114/136
s 18
f 68/115/137 71/116/138 77/117/139 78/118/140
s 19
f 72/119/141 62/120/142 73/121/143 74/122/144
s 17
f 63/123/145 69/111/133 70/114/136 65/124/146
s off
f 71/116/147 67/125/148 80/126/149 76/127/150 77/117/151
f 79/128/152 61/129/153 72/119/154 74/122/155 75/130/156
s 19
f 69/131/157 83/132/158 84/133/159 64/134/160
f 63/135/161 83/132/158 69/131/157
s 18
f 77/117/139 76/136/162 65/137/163 81/138/164
f 78/118/140 77/117/139 81/138/164 82/139/165
s off
f 84/140/166 82/141/167 66/142/168 64/143/169
s 18
f 81/138/164 65/137/163 70/144/170
f 82/139/165 81/138/164 70/144/170 66/145/171
s 19
f 63/135/161 75/146/172 74/122/144 83/132/158
f 84/133/159 83/132/158 74/122/144 73/121/143
s off
f 73/147/173 78/148/174 82/141/175 84/140/176
f 63/149/177 65/150/178 67/151/179 61/152/180
s 22
f 87/153/181 85/154/182 86/155/183 88/156/184
s 23
f 48/157/185 89/158/186 92/159/187 55/160/188
s 24
f 90/161/189 43/162/190 54/163/191 91/164/192
s 22
f 84/165/193 87/153/181 88/156/184 82/166/194
s off
f 89/158/195 68/167/196 94/168/197 78/169/198 92/159/199
f 93/170/200 62/171/201 90/161/202 91/164/203 73/172/204
s 24
f 87/173/205 96/174/206 44/175/207 85/176/208
f 84/177/209 96/174/206 87/173/205
s 23
f 92/159/187 78/169/210 82/178/211 95/179/212
f 55/160/188 92/159/187 95/179/212 46/180/213
s off
f 44/181/214 46/182/215 86/183/216 85/184/217
s 23
f 95/179/212 82/178/211 88/185/218
f 46/180/213 95/179/212 88/185/218 86/186/219
s 24
f 84/177/209 73/172/220 91/164/192 96/174/206
f 44/175/207 96/174/206 91/164/192 54/163/191
s off
f 54/187/221 55/188/222 46/182/223 44/181/224
