# This file uses centimeters as units for non-parametric coordinates.

mtllib Hanger_01_Complete.mtl
g default
v -4.046726 4.647125 8.093451
v 0.000000 4.647125 8.093451
v -4.046726 4.744425 8.093451
v 0.000000 4.744425 8.093451
v -4.046726 4.744425 -0.000000
v 0.000000 4.744425 -0.000000
v -4.046726 4.647125 -0.000000
v 0.000000 4.647125 -0.000000
vt 0.841795 0.443113
vt 0.841795 0.000000
vt 0.896544 0.000000
vt 0.896544 0.443113
vt 0.738067 0.955697
vt 0.738067 0.512584
vt 0.792816 0.512584
vt 0.792816 0.955697
vt 0.000000 0.000000
vt 0.221556 0.000000
vt 0.221556 0.443113
vt 0.000000 0.443113
vt 0.446829 0.000000
vt 0.668386 0.000000
vt 0.668386 0.443113
vt 0.446829 0.443113
vt 0.897649 0.664669
vt 0.897649 0.443113
vt 0.952398 0.443113
vt 0.952398 0.664669
vt 0.367038 1.000000
vt 0.367038 0.778443
vt 0.421788 0.778443
vt 0.421788 1.000000
vn 0.000000 0.000000 1.000000
vn 0.000000 0.000000 1.000000
vn 0.000000 0.000000 1.000000
vn 0.000000 0.000000 1.000000
vn 0.000000 1.000000 0.000000
vn 0.000000 1.000000 0.000000
vn 0.000000 1.000000 0.000000
vn 0.000000 1.000000 0.000000
vn 0.000000 0.000000 -1.000000
vn 0.000000 0.000000 -1.000000
vn 0.000000 0.000000 -1.000000
vn 0.000000 0.000000 -1.000000
vn 0.000000 -1.000000 0.000000
vn 0.000000 -1.000000 0.000000
vn 0.000000 -1.000000 0.000000
vn 0.000000 -1.000000 0.000000
vn 1.000000 0.000000 0.000000
vn 1.000000 0.000000 0.000000
vn 1.000000 0.000000 0.000000
vn 1.000000 0.000000 0.000000
vn -1.000000 0.000000 0.000000
vn -1.000000 0.000000 0.000000
vn -1.000000 0.000000 0.000000
vn -1.000000 0.000000 0.000000
s off
g Hanger01_Right_Door_Prototype_GEO
usemtl initialShadingGroup
f 1/17/1 2/18/2 4/19/3 3/20/4
f 3/9/5 4/10/6 6/11/7 5/12/8
f 5/21/9 6/22/10 8/23/11 7/24/12
f 7/13/13 8/14/14 2/15/15 1/16/16
f 2/1/17 8/2/18 6/3/19 4/4/20
f 7/5/21 1/6/22 3/7/23 5/8/24
g default
v -8.093452 0.000000 8.093452
v 0.000000 0.000000 8.093452
v -8.093452 4.647125 8.093452
v 0.000000 4.647125 8.093452
v -8.093452 4.647125 0.000000
v 0.000000 4.647125 0.000000
v -8.093452 0.000000 0.000000
v 0.000000 0.000000 0.000000
v -7.942049 4.647125 7.942049
v -0.151402 4.647125 7.942049
v -0.151402 4.647125 0.151402
v -7.942049 4.647125 0.151402
v -7.942049 0.760438 7.942049
v -0.151402 0.760438 7.942049
v -0.151402 0.760438 0.151402
v -7.942049 0.760438 0.151402
vt 0.223415 0.443113
vt 0.394276 0.443113
vt 0.394276 0.613974
vt 0.223415 0.613974
vt 0.670244 0.170861
vt 0.841106 0.170861
vt 0.841106 0.341723
vt 0.670244 0.341723
vt 0.541857 0.446309
vt 0.541857 0.610778
vt 0.398955 0.610778
vt 0.398955 0.446309
vt 0.366317 0.778443
vt 0.366317 0.942912
vt 0.223415 0.942912
vt 0.223415 0.778443
vt 0.387884 0.613974
vt 0.387884 0.778443
vt 0.223415 0.778443
vt 0.223415 0.613974
vt 0.841106 0.000000
vt 0.841106 0.170861
vt 0.670244 0.170861
vt 0.670244 0.000000
vt 0.394965 0.443113
vt 0.398162 0.446309
vt 0.398162 0.610778
vt 0.394965 0.613974
vt 0.565827 0.443113
vt 0.562630 0.446309
vt 0.565827 0.613974
vt 0.562630 0.610778
vt 0.670244 0.341723
vt 0.841106 0.341723
vt 0.841106 0.512584
vt 0.670244 0.512584
vt 0.566516 0.512584
vt 0.737377 0.512584
vt 0.737377 0.683445
vt 0.566516 0.683445
vt 0.390976 0.613974
vt 0.533878 0.613974
vt 0.533878 0.778443
vt 0.390976 0.778443
vt 0.534600 0.683445
vt 0.677502 0.683445
vt 0.677502 0.847914
vt 0.534600 0.847914
vn 0.000000 0.000000 1.000000
vn 0.000000 0.000000 1.000000
vn 0.000000 0.000000 1.000000
vn 0.000000 0.000000 1.000000
vn 0.000000 1.000000 0.000000
vn 0.000000 1.000000 0.000000
vn 0.000000 1.000000 0.000000
vn 0.000000 1.000000 0.000000
vn 0.000000 0.000000 -1.000000
vn 0.000000 0.000000 -1.000000
vn 0.000000 0.000000 -1.000000
vn 0.000000 0.000000 -1.000000
vn 0.000000 -1.000000 0.000000
vn 0.000000 -1.000000 0.000000
vn 0.000000 -1.000000 0.000000
vn 0.000000 -1.000000 0.000000
vn 1.000000 0.000000 0.000000
vn 1.000000 0.000000 0.000000
vn 1.000000 0.000000 0.000000
vn 1.000000 0.000000 0.000000
vn -1.000000 0.000000 0.000000
vn -1.000000 0.000000 0.000000
vn -1.000000 0.000000 0.000000
vn -1.000000 0.000000 0.000000
vn 0.000000 1.000000 0.000002
vn 0.000000 1.000000 0.000002
vn 0.000000 1.000000 0.000002
vn 0.000000 1.000000 0.000002
vn 0.000000 1.000000 -0.000002
vn 0.000000 1.000000 -0.000002
vn 0.000000 1.000000 -0.000002
vn 0.000000 1.000000 -0.000002
vn 0.000000 0.000000 -1.000000
vn 0.000000 0.000000 -1.000000
vn 0.000000 0.000000 -1.000000
vn 0.000000 0.000000 -1.000000
vn -1.000000 0.000000 0.000000
vn -1.000000 0.000000 0.000000
vn -1.000000 0.000000 0.000000
vn -1.000000 0.000000 0.000000
vn 0.000000 0.000000 1.000000
vn 0.000000 0.000000 1.000000
vn 0.000000 0.000000 1.000000
vn 0.000000 0.000000 1.000000
vn 1.000000 0.000000 0.000000
vn 1.000000 0.000000 0.000000
vn 1.000000 0.000000 0.000000
vn 1.000000 0.000000 0.000000
s off
g Hanger01_Prototype_GEO
usemtl initialShadingGroup
f 9/57/25 10/58/26 12/59/27 11/60/28
f 22/41/29 23/42/30 24/43/31 21/44/32
f 14/61/33 16/62/34 15/63/35 13/64/36
f 16/45/37 10/46/38 9/47/39 15/48/40
f 10/25/41 16/26/42 14/27/43 12/28/44
f 15/29/45 9/30/46 11/31/47 13/32/48
s 1
f 12/49/49 18/50/50 17/51/51 11/52/52
f 12/49/49 14/53/53 19/54/54 18/50/50
f 19/54/54 14/53/53 13/55/55 20/56/56
f 13/55/55 11/52/52 17/51/51 20/56/56
s off
f 18/65/57 22/66/58 21/67/59 17/68/60
f 18/33/61 19/34/62 23/35/63 22/36/64
f 23/69/65 19/70/66 20/71/67 24/72/68
f 20/37/69 17/38/70 21/39/71 24/40/72
g default
v -4.046726 4.647125 8.093451
v -8.093451 4.647125 8.093451
v -4.046726 4.744425 8.093451
v -8.093451 4.744425 8.093451
v -4.046726 4.744425 -0.000000
v -8.093451 4.744425 -0.000000
v -4.046726 4.647125 -0.000000
v -8.093451 4.647125 -0.000000
vt 0.841795 0.886226
vt 0.841795 0.443113
vt 0.896544 0.443113
vt 0.896544 0.886226
vt 0.897649 0.443113
vt 0.897649 0.000000
vt 0.952398 0.000000
vt 0.952398 0.443113
vt 0.223415 0.000000
vt 0.444971 0.000000
vt 0.444971 0.443113
vt 0.223415 0.443113
vt 0.000000 0.443113
vt 0.221556 0.443113
vt 0.221556 0.886226
vt 0.000000 0.886226
vt 0.897649 0.886226
vt 0.897649 0.664669
vt 0.952398 0.664669
vt 0.952398 0.886226
vt 0.422892 1.000000
vt 0.422892 0.778443
vt 0.477642 0.778443
vt 0.477642 1.000000
vn 0.000000 0.000000 1.000000
vn 0.000000 0.000000 1.000000
vn 0.000000 0.000000 1.000000
vn 0.000000 0.000000 1.000000
vn 0.000000 1.000000 0.000000
vn 0.000000 1.000000 0.000000
vn 0.000000 1.000000 0.000000
vn 0.000000 1.000000 0.000000
vn 0.000000 0.000000 -1.000000
vn 0.000000 0.000000 -1.000000
vn 0.000000 0.000000 -1.000000
vn 0.000000 0.000000 -1.000000
vn 0.000000 -1.000000 0.000000
vn 0.000000 -1.000000 0.000000
vn 0.000000 -1.000000 0.000000
vn 0.000000 -1.000000 0.000000
vn -1.000000 0.000000 0.000000
vn -1.000000 0.000000 0.000000
vn -1.000000 0.000000 0.000000
vn -1.000000 0.000000 0.000000
vn 1.000000 0.000000 0.000000
vn 1.000000 0.000000 0.000000
vn 1.000000 0.000000 0.000000
vn 1.000000 0.000000 0.000000
s off
g Hanger01_Left_Door_Prototype_GEO
usemtl initialShadingGroup
f 25/89/73 27/92/74 28/91/75 26/90/76
f 27/81/77 29/84/78 30/83/79 28/82/80
f 29/93/81 31/96/82 32/95/83 30/94/84
f 31/85/85 25/88/86 26/87/87 32/86/88
f 26/73/89 28/76/90 30/75/91 32/74/92
f 31/77/93 29/80/94 27/79/95 25/78/96
