# This file uses centimeters as units for non-parametric coordinates.

mtllib pine_tree.mtl
g default
v 89.764374 211.107819 -90.048836
v 118.322327 -1.852173 -118.606773
v 90.951843 211.107819 -0.244817
v 90.855286 -1.852173 -0.244817
v 63.726501 91.597260 -0.244817
v 62.539063 91.597260 -62.823509
v 80.374207 53.705101 -0.244817
v 79.186768 53.705101 -79.471214
v 89.764374 211.107819 89.990593
v 118.322327 -1.852173 118.548538
v 62.539063 91.597260 62.765263
v 79.186768 53.705101 79.412971
v -0.744965 211.107819 90.904137
v -0.744965 -1.852173 90.807579
v -0.744965 91.597260 63.678791
v -0.744965 53.705101 80.326500
v -90.562439 211.107819 89.990593
v -119.120392 -1.852173 118.548538
v -63.337097 91.597260 62.765263
v -79.984802 53.705101 79.412971
v -90.562439 211.107819 -90.048836
v -119.120377 -1.852173 -118.606773
v -0.744965 211.107819 -90.530983
v -0.744965 -1.852173 -90.434425
v -0.744965 91.597260 -63.305645
v -63.337097 91.597260 -62.823509
v -0.744965 53.705101 -79.953346
v -79.984802 53.705101 -79.471214
v -91.058044 211.107819 -0.244821
v -90.961487 -1.852173 -0.244821
v -63.832703 91.597260 -0.244821
v -80.480408 53.705101 -0.244821
v 146.774246 147.469391 -125.940796
v 30.706589 147.469391 -192.952637
v -101.280785 147.469391 -169.679733
v -187.429443 147.469391 -67.011749
v -187.429443 147.469391 67.011726
v -101.280823 147.469391 169.679703
v 30.706526 147.469391 192.952637
v 146.774216 147.469391 125.940819
v 192.613007 147.469391 0.000002
v 80.469261 359.124298 -68.024582
v 17.777460 359.124298 -104.219711
v -53.513031 359.124298 -91.649292
v -100.044601 359.124298 -36.195141
v -100.044601 359.124298 36.195118
v -53.513046 359.124298 91.649269
v 17.777435 359.124298 104.219711
v 80.469238 359.124298 68.024582
v 105.228157 359.124298 0.000000
v 117.576088 214.652023 -100.436714
v 154.132065 214.652023 0.000002
v 117.576050 214.652023 100.436722
v 25.013050 214.652023 153.878052
v -80.245728 214.652023 135.318085
v -148.948517 214.652023 53.441277
v -148.948502 214.652023 -53.441299
v -80.245697 214.652023 -135.318130
v 25.013096 214.652023 -153.878082
v 105.486748 421.261444 -86.295357
v 24.772442 421.261444 -135.560669
v -68.725433 421.261444 -121.417839
v -131.258133 421.261444 -50.484493
v -133.565903 421.261444 44.048817
v -74.568954 421.261444 117.948959
v 18.127491 421.261444 136.637207
v 101.149567 421.261444 91.369057
v 135.650497 421.261444 3.326146
v 56.916351 568.453674 -45.916679
v 13.945554 568.453674 -72.144539
v -35.830952 568.453674 -64.615173
v -69.122131 568.453674 -26.851645
v -70.350754 568.453674 23.476068
v -38.941845 568.453674 62.819061
v 10.407928 568.453674 72.768326
v 54.607285 568.453674 48.668468
v 72.974876 568.453674 1.796101
v -0.599305 649.926758 0.000000
v 77.281960 490.794098 -62.847500
v 99.254837 490.794098 2.437650
v 74.122536 490.794098 66.572876
v 13.644740 490.794098 99.548607
v -53.880348 490.794098 85.935089
v -96.856918 490.794098 32.102245
v -95.175819 490.794098 -36.760921
v -49.623611 490.794098 -88.432594
v 18.485262 490.794098 -98.734993
v 90.576881 280.519592 -137.368011
v -19.967680 280.519592 -165.100113
v -122.475563 280.519592 -115.287415
v -168.982147 280.519592 -11.237823
v -137.726501 280.519592 98.362617
v -43.333477 280.519592 162.230698
v 70.029358 280.519592 150.481812
v 149.318237 280.519592 68.613327
v 157.433136 280.519592 -45.067410
v 50.395210 462.514984 -75.366699
v -9.980023 462.514984 -90.512886
v -65.965912 462.514984 -63.307079
v -91.366035 462.514984 -6.479189
v -74.295403 462.514984 53.380386
v -22.741529 462.514984 88.262672
v 39.172916 462.514984 81.845879
v 82.477501 462.514984 37.132488
v 86.909523 462.514984 -24.955612
v 71.560051 348.400360 -108.024574
v 124.056351 348.400360 -35.549080
v 117.684456 348.400360 53.714355
v 55.425892 348.400360 117.998405
v -33.587910 348.400360 127.223778
v -107.706398 348.400360 77.073830
v -132.248688 348.400360 -8.985699
v -95.731171 348.400360 -90.686623
v -15.240807 348.400360 -129.800140
vt 0.246204 0.090070
vt 0.297721 0.011576
vt 0.108668 0.011576
vt 0.122196 0.090070
vt 0.267693 0.133543
vt 0.143685 0.133543
vt 0.108543 0.298075
vt 0.232551 0.298075
vt 0.246204 0.086318
vt 0.297721 0.011576
vt 0.122196 0.086318
vt 0.108668 0.011576
vt 0.267693 0.137295
vt 0.232551 0.298075
vt 0.108543 0.298075
vt 0.143685 0.137295
vt 0.297721 0.011576
vt 0.246204 0.090070
vt 0.122196 0.090070
vt 0.108668 0.011576
vt 0.267693 0.133543
vt 0.232551 0.298075
vt 0.108543 0.298075
vt 0.143685 0.133543
vt 0.297721 0.011576
vt 0.108668 0.011576
vt 0.122196 0.086318
vt 0.246204 0.086318
vt 0.267693 0.137295
vt 0.143685 0.137295
vt 0.108543 0.298075
vt 0.232551 0.298075
vt 0.297721 0.011576
vt 0.246204 0.090070
vt 0.122196 0.090070
vt 0.108668 0.011576
vt 0.267693 0.133543
vt 0.232551 0.298075
vt 0.108543 0.298075
vt 0.143685 0.133543
vt 0.297721 0.011576
vt 0.108668 0.011576
vt 0.122196 0.086318
vt 0.246204 0.086318
vt 0.267693 0.137295
vt 0.143685 0.137295
vt 0.108543 0.298075
vt 0.232551 0.298075
vt 0.297721 0.011576
vt 0.246204 0.090070
vt 0.122196 0.090070
vt 0.108668 0.011576
vt 0.267693 0.133543
vt 0.232551 0.298075
vt 0.108543 0.298075
vt 0.143685 0.133543
vt 0.297721 0.011576
vt 0.108668 0.011576
vt 0.122196 0.086318
vt 0.246204 0.086318
vt 0.267693 0.137295
vt 0.143685 0.137295
vt 0.108543 0.298075
vt 0.232551 0.298075
vt 0.117772 0.312921
vt 0.204335 0.312921
vt 0.204335 0.386271
vt 0.117772 0.386271
vt 0.290898 0.312921
vt 0.290898 0.386271
vt 0.377461 0.312921
vt 0.377461 0.386271
vt 0.464024 0.312921
vt 0.464024 0.386271
vt 0.550587 0.312921
vt 0.550587 0.386271
vt 0.637150 0.312921
vt 0.637150 0.386271
vt 0.723713 0.312921
vt 0.723713 0.386271
vt 0.810276 0.312921
vt 0.810276 0.386271
vt 0.896839 0.312921
vt 0.896839 0.386271
vt 0.896839 0.544006
vt 0.810276 0.544006
vt 0.723713 0.544006
vt 0.637150 0.544006
vt 0.550587 0.544006
vt 0.464024 0.544006
vt 0.377461 0.544006
vt 0.290898 0.544006
vt 0.204335 0.544006
vt 0.117772 0.544006
vt 0.121496 0.787240
vt 0.207232 0.787240
vt 0.207232 0.871120
vt 0.121496 0.871120
vt 0.292967 0.787240
vt 0.292967 0.871120
vt 0.378702 0.787240
vt 0.378702 0.871120
vt 0.464438 0.787240
vt 0.464438 0.871120
vt 0.550173 0.787240
vt 0.550173 0.871120
vt 0.635908 0.787240
vt 0.635908 0.871120
vt 0.721644 0.787240
vt 0.721644 0.871120
vt 0.807379 0.787240
vt 0.807379 0.871120
vt 0.893114 0.787240
vt 0.893114 0.871120
vt 0.836358 0.241805
vt 0.755506 0.290613
vt 0.728140 0.156356
vt 0.661849 0.276602
vt 0.599210 0.206326
vt 0.596898 0.112669
vt 0.655996 0.039454
vt 0.748850 0.020938
vt 0.832014 0.065787
vt 0.866573 0.153014
vt 0.893114 0.964804
vt 0.807379 0.964804
vt 0.721644 0.964804
vt 0.635908 0.964804
vt 0.550173 0.964804
vt 0.464438 0.964804
vt 0.378702 0.964804
vt 0.292967 0.964804
vt 0.207232 0.964804
vt 0.121496 0.964804
vt 0.117717 0.562864
vt 0.204292 0.562864
vt 0.204292 0.638565
vt 0.117717 0.638565
vt 0.290867 0.562864
vt 0.290867 0.638565
vt 0.377443 0.562864
vt 0.377443 0.638565
vt 0.464018 0.562864
vt 0.464018 0.638565
vt 0.550593 0.562864
vt 0.550593 0.638565
vt 0.637168 0.562864
vt 0.637168 0.638565
vt 0.723743 0.562864
vt 0.723743 0.638565
vt 0.810319 0.562864
vt 0.810319 0.638565
vt 0.896894 0.562864
vt 0.896894 0.638565
vt 0.896894 0.765826
vt 0.810319 0.765826
vt 0.723743 0.765826
vt 0.637168 0.765826
vt 0.550593 0.765826
vt 0.464018 0.765826
vt 0.377443 0.765826
vt 0.290867 0.765826
vt 0.204292 0.765826
vt 0.117717 0.765826
vn 0.861787 0.466185 0.199986
vn 0.901289 0.415468 0.122740
vn 0.936905 0.349585 0.000235
vn 0.962307 0.271964 0.000000
vn 0.974300 -0.224887 -0.012883
vn 0.974530 -0.224256 0.000000
vn 0.998401 -0.054175 -0.016153
vn 0.997767 -0.066788 -0.000000
vn 0.861707 0.466652 -0.199241
vn 0.901147 0.415884 -0.122368
vn 0.998400 -0.054215 0.016051
vn 0.974304 -0.224874 0.012822
vn -0.200805 0.465670 0.861875
vn -0.124695 0.415052 0.901212
vn 0.000376 0.348699 0.937235
vn 0.000000 0.271819 0.962349
vn 0.009836 -0.224235 0.974485
vn 0.000000 -0.223759 0.974645
vn 0.012299 -0.054242 0.998452
vn -0.000000 -0.066849 0.997763
vn 0.202008 0.464913 0.862003
vn 0.125309 0.414378 0.901437
vn -0.012426 -0.054178 0.998454
vn -0.009912 -0.224251 0.974481
vn 0.205229 0.462879 -0.862337
vn 0.129373 0.412635 -0.901663
vn 0.000377 0.347489 -0.937684
vn 0.000000 0.271584 -0.962415
vn -0.005232 -0.223246 -0.974748
vn 0.000000 -0.222983 -0.974822
vn -0.006559 -0.054180 -0.998510
vn -0.000000 -0.066944 -0.997757
vn -0.204007 0.463651 -0.862211
vn -0.128727 0.413321 -0.901440
vn 0.006492 -0.054244 -0.998507
vn 0.005192 -0.223238 -0.974750
vn -0.862251 0.463410 -0.204389
vn -0.901521 0.413105 -0.128856
vn -0.937627 0.347642 0.000236
vn -0.962414 0.271587 0.000000
vn -0.974741 -0.223273 0.005354
vn -0.974816 -0.223010 0.000000
vn -0.998507 -0.054219 0.006700
vn -0.997757 -0.066940 -0.000000
vn -0.862329 0.462927 0.205152
vn -0.901660 0.412676 0.129258
vn -0.998509 -0.054179 -0.006743
vn -0.974740 -0.223278 -0.005379
vn 0.438835 0.479267 -0.760084
vn 0.462360 0.380649 -0.800830
vn 0.438835 0.479267 -0.760083
vn 0.463114 0.376967 -0.802136
vn -0.151634 0.487317 -0.859959
vn -0.160059 0.387800 -0.907740
vn -0.151634 0.487316 -0.859959
vn -0.160340 0.383927 -0.909336
vn -0.665919 0.494294 -0.558772
vn -0.704166 0.393736 -0.590865
vn -0.665919 0.494294 -0.558772
vn -0.705293 0.390285 -0.591811
vn -0.867737 0.497023 0.000000
vn -0.867737 0.497023 -0.000000
vn -0.918369 0.395726 -0.000000
vn -0.919487 0.393119 -0.000000
vn -0.665919 0.494294 0.558772
vn -0.665919 0.494294 0.558772
vn -0.704166 0.393736 0.590865
vn -0.705293 0.390285 0.591811
vn -0.151634 0.487317 0.859959
vn -0.151634 0.487317 0.859959
vn -0.160059 0.387800 0.907740
vn -0.160341 0.383927 0.909336
vn 0.438835 0.479267 0.760083
vn 0.438835 0.479267 0.760084
vn 0.462360 0.380649 0.800830
vn 0.463114 0.376967 0.802136
vn 0.827449 0.473947 0.301168
vn 0.827449 0.473947 0.301167
vn 0.870869 0.375655 0.316971
vn 0.871998 0.372676 0.317382
vn 0.827450 0.473947 -0.301167
vn 0.870869 0.375655 -0.316971
vn 0.827450 0.473947 -0.301167
vn 0.871999 0.372676 -0.317382
vn 0.895482 0.303121 -0.325929
vn 0.895482 0.303121 -0.325929
vn 0.895482 0.303121 0.325929
vn 0.895482 0.303121 0.325929
vn 0.475836 0.307117 0.824172
vn 0.475836 0.307117 0.824172
vn -0.164911 0.313209 0.935256
vn -0.164911 0.313209 0.935256
vn -0.726142 0.318534 0.609306
vn -0.726142 0.318534 0.609306
vn -0.947205 0.320629 -0.000000
vn -0.947205 0.320629 0.000000
vn -0.726142 0.318534 -0.609306
vn -0.726142 0.318534 -0.609306
vn -0.164911 0.313209 -0.935256
vn -0.164910 0.313209 -0.935256
vn 0.475836 0.307117 -0.824172
vn 0.475836 0.307117 -0.824172
vn 0.466140 0.446620 -0.763704
vn 0.479891 0.389282 -0.786234
vn 0.466140 0.446620 -0.763705
vn 0.480754 0.385336 -0.787650
vn -0.133228 0.454423 -0.880767
vn -0.137302 0.396526 -0.907698
vn -0.133228 0.454423 -0.880767
vn -0.137565 0.392423 -0.909440
vn -0.665587 0.461199 -0.586762
vn -0.686647 0.402608 -0.605328
vn -0.665587 0.461199 -0.586762
vn -0.687887 0.398829 -0.606421
vn -0.885648 0.463853 -0.021621
vn -0.885648 0.463853 -0.021621
vn -0.914162 0.404734 -0.022317
vn -0.915537 0.401612 -0.022350
vn -0.693426 0.461199 0.553585
vn -0.693426 0.461199 0.553585
vn -0.715367 0.402608 0.571101
vn -0.716658 0.398829 0.572133
vn -0.176047 0.454423 0.873217
vn -0.176047 0.454423 0.873217
vn -0.181429 0.396526 0.899917
vn -0.181778 0.392422 0.901644
vn 0.428319 0.446619 0.785541
vn 0.428319 0.446619 0.785541
vn 0.440955 0.389282 0.808714
vn 0.441748 0.385336 0.810170
vn 0.835423 0.441470 0.327373
vn 0.835423 0.441470 0.327373
vn 0.859571 0.384293 0.336835
vn 0.860878 0.380901 0.337347
vn 0.850402 0.441470 -0.286218
vn 0.874983 0.384292 -0.294491
vn 0.850402 0.441470 -0.286218
vn 0.876314 0.380901 -0.294939
vn 0.579929 0.670324 -0.462977
vn 0.146655 0.670324 -0.727432
vn -0.000000 1.000000 -0.000000
vn -0.355240 0.670324 -0.651514
vn -0.690915 0.670324 -0.270745
vn -0.703303 0.670324 0.236709
vn -0.386608 0.670324 0.633404
vn 0.110986 0.670324 0.733722
vn 0.556648 0.670324 0.490723
vn 0.741848 0.670324 0.018110
vn 0.903170 0.303121 -0.303977
vn 0.903170 0.303121 -0.303976
vn 0.887261 0.303121 0.347686
vn 0.887261 0.303121 0.347686
vn 0.455580 0.307117 0.835539
vn 0.455580 0.307117 0.835539
vn -0.187686 0.313209 0.930953
vn -0.187687 0.313209 0.930953
vn -0.740796 0.318534 0.591403
vn -0.740795 0.318535 0.591403
vn -0.946923 0.320629 -0.023116
vn -0.946923 0.320628 -0.023117
vn -0.711056 0.318534 -0.626846
vn -0.711056 0.318534 -0.626846
vn -0.142037 0.313209 -0.939002
vn -0.142037 0.313210 -0.939002
vn 0.495808 0.307117 -0.812314
vn 0.495808 0.307117 -0.812314
vn 0.218726 0.438170 -0.871875
vn 0.226089 0.369697 -0.901226
vn 0.218726 0.438170 -0.871875
vn 0.226360 0.366881 -0.902308
vn -0.391213 0.445899 -0.805063
vn -0.404871 0.376705 -0.833170
vn -0.391213 0.445899 -0.805063
vn -0.405395 0.373744 -0.834248
vn -0.814088 0.452614 -0.363869
vn -0.843494 0.382596 -0.377013
vn -0.814088 0.452614 -0.363870
vn -0.844491 0.379948 -0.377458
vn -0.856230 0.455245 0.244178
vn -0.856230 0.455245 0.244178
vn -0.887670 0.384656 0.253144
vn -0.888476 0.382638 0.253374
vn -0.499707 0.452614 0.738535
vn -0.499707 0.452614 0.738535
vn -0.517756 0.382596 0.765212
vn -0.518368 0.379948 0.766116
vn 0.092272 0.445899 0.890315
vn 0.092272 0.445899 0.890315
vn 0.095493 0.376706 0.921398
vn 0.095617 0.373744 0.922590
vn 0.645704 0.438170 0.625359
vn 0.645704 0.438170 0.625359
vn 0.667441 0.369697 0.646411
vn 0.668242 0.366881 0.647187
vn 0.899072 0.433072 0.064179
vn 0.899072 0.433072 0.064179
vn 0.928694 0.364873 0.066293
vn 0.929586 0.362583 0.066357
vn 0.729982 0.433072 -0.528749
vn 0.754033 0.364873 -0.546170
vn 0.729982 0.433072 -0.528749
vn 0.754757 0.362584 -0.546695
vn 0.771765 0.303121 -0.559014
vn 0.771765 0.303121 -0.559013
vn 0.950534 0.303121 0.067852
vn 0.950534 0.303121 0.067852
vn 0.683617 0.307117 0.662078
vn 0.683617 0.307117 0.662078
vn 0.097901 0.313209 0.944625
vn 0.097901 0.313209 0.944625
vn -0.531203 0.318534 0.785085
vn -0.531203 0.318534 0.785085
vn -0.910889 0.320629 0.259766
vn -0.910889 0.320629 0.259766
vn -0.865401 0.318534 -0.386804
vn -0.865401 0.318534 -0.386805
vn -0.415077 0.313209 -0.854173
vn -0.415077 0.313209 -0.854173
vn 0.231568 0.307117 -0.923068
vn 0.231568 0.307117 -0.923068
s 1
g pCube1
usemtl lambert3SG
f 2/2/1 8/1/2 4/3/3
f 4/3/3 8/1/2 7/4/4
f 1/8/5 3/7/6 6/5/7
f 6/5/7 3/7/6 5/6/8
f 8/1/2 6/5/7 7/4/4
f 7/4/4 6/5/7 5/6/8
f 10/10/9 4/12/3 12/9/10
f 12/9/10 4/12/3 7/11/4
f 5/16/8 3/15/6 11/13/11
f 11/13/11 3/15/6 9/14/12
f 12/9/10 7/11/4 11/13/11
f 11/13/11 7/11/4 5/16/8
s 3
f 10/17/13 12/18/14 14/20/15
f 14/20/15 12/18/14 16/19/16
f 9/22/17 13/23/18 11/21/19
f 11/21/19 13/23/18 15/24/20
f 12/18/14 11/21/19 16/19/16
f 16/19/16 11/21/19 15/24/20
f 18/25/21 14/26/15 20/28/22
f 20/28/22 14/26/15 16/27/16
f 15/30/20 13/31/18 19/29/23
f 19/29/23 13/31/18 17/32/24
f 20/28/22 16/27/16 19/29/23
f 19/29/23 16/27/16 15/30/20
s 5
f 22/33/25 28/34/26 24/36/27
f 24/36/27 28/34/26 27/35/28
f 21/38/29 23/39/30 26/37/31
f 26/37/31 23/39/30 25/40/32
f 28/34/26 26/37/31 27/35/28
f 27/35/28 26/37/31 25/40/32
f 2/41/33 24/42/27 8/44/34
f 8/44/34 24/42/27 27/43/28
f 25/46/32 23/47/30 6/45/35
f 6/45/35 23/47/30 1/48/36
f 8/44/34 27/43/28 6/45/35
f 6/45/35 27/43/28 25/46/32
s 7
f 18/49/37 20/50/38 30/52/39
f 30/52/39 20/50/38 32/51/40
f 17/54/41 29/55/42 19/53/43
f 19/53/43 29/55/42 31/56/44
f 20/50/38 19/53/43 32/51/40
f 32/51/40 19/53/43 31/56/44
f 22/57/45 30/58/39 28/60/46
f 28/60/46 30/58/39 32/59/40
f 31/62/44 29/63/42 26/61/47
f 26/61/47 29/63/42 21/64/48
f 28/60/46 32/59/40 26/61/47
f 26/61/47 32/59/40 31/62/44
s 9
usemtl lambert2SG
f 34/66/49 59/67/50 33/65/51
f 33/65/51 59/67/50 51/68/52
s 10
f 35/69/53 58/70/54 34/66/55
f 34/66/55 58/70/54 59/67/56
s 11
f 36/71/57 57/72/58 35/69/59
f 35/69/59 57/72/58 58/70/60
s 12
f 36/71/61 37/73/62 57/72/63
f 57/72/63 37/73/62 56/74/64
s 13
f 37/73/65 38/75/66 56/74/67
f 56/74/67 38/75/66 55/76/68
s 14
f 38/75/69 39/77/70 55/76/71
f 55/76/71 39/77/70 54/78/72
s 15
f 39/77/73 40/79/74 54/78/75
f 54/78/75 40/79/74 53/80/76
s 16
f 40/79/77 41/81/78 53/80/79
f 53/80/79 41/81/78 52/82/80
s 17
f 33/83/81 51/84/82 41/81/83
f 41/81/83 51/84/82 52/82/84
f 51/84/82 42/85/85 52/82/84
f 52/82/84 42/85/85 50/86/86
s 16
f 53/80/79 52/82/80 49/87/87
f 49/87/87 52/82/80 50/86/88
s 15
f 54/78/75 53/80/76 48/88/89
f 48/88/89 53/80/76 49/87/90
s 14
f 55/76/71 54/78/72 47/89/91
f 47/89/91 54/78/72 48/88/92
s 13
f 56/74/67 55/76/68 46/90/93
f 46/90/93 55/76/68 47/89/94
s 12
f 57/72/63 56/74/64 45/91/95
f 45/91/95 56/74/64 46/90/96
s 11
f 57/72/58 45/91/97 58/70/60
f 58/70/60 45/91/97 44/92/98
s 10
f 58/70/54 44/92/99 59/67/56
f 59/67/56 44/92/99 43/93/100
s 9
f 59/67/50 43/93/101 51/68/52
f 51/68/52 43/93/101 42/94/102
s 18
f 61/96/103 87/97/104 60/95/105
f 60/95/105 87/97/104 79/98/106
s 19
f 62/99/107 86/100/108 61/96/109
f 61/96/109 86/100/108 87/97/110
s 20
f 63/101/111 85/102/112 62/99/113
f 62/99/113 85/102/112 86/100/114
s 21
f 63/101/115 64/103/116 85/102/117
f 85/102/117 64/103/116 84/104/118
s 22
f 64/103/119 65/105/120 84/104/121
f 84/104/121 65/105/120 83/106/122
s 23
f 65/105/123 66/107/124 83/106/125
f 83/106/125 66/107/124 82/108/126
s 24
f 66/107/127 67/109/128 82/108/129
f 82/108/129 67/109/128 81/110/130
s 25
f 67/109/131 68/111/132 81/110/133
f 81/110/133 68/111/132 80/112/134
s 26
f 60/113/135 79/114/136 68/111/137
f 68/111/137 79/114/136 80/112/138
s 27
f 69/115/139 70/116/140 78/117/141
f 70/116/140 71/118/142 78/117/141
f 71/118/142 72/119/143 78/117/141
f 72/119/143 73/120/144 78/117/141
f 73/120/144 74/121/145 78/117/141
f 74/121/145 75/122/146 78/117/141
f 75/122/146 76/123/147 78/117/141
f 76/123/147 77/124/148 78/117/141
f 77/124/148 69/115/139 78/117/141
s 26
f 79/114/136 69/125/149 80/112/138
f 80/112/138 69/125/149 77/126/150
s 25
f 81/110/133 80/112/134 76/127/151
f 76/127/151 80/112/134 77/126/152
s 24
f 82/108/129 81/110/130 75/128/153
f 75/128/153 81/110/130 76/127/154
s 23
f 83/106/125 82/108/126 74/129/155
f 74/129/155 82/108/126 75/128/156
s 22
f 84/104/121 83/106/122 73/130/157
f 73/130/157 83/106/122 74/129/158
s 21
f 85/102/117 84/104/118 72/131/159
f 72/131/159 84/104/118 73/130/160
s 20
f 85/102/112 72/131/161 86/100/114
f 86/100/114 72/131/161 71/132/162
s 19
f 86/100/108 71/132/163 87/97/110
f 87/97/110 71/132/163 70/133/164
s 18
f 87/97/104 70/133/165 79/98/106
f 79/98/106 70/133/165 69/134/166
s 28
f 89/136/167 114/137/168 88/135/169
f 88/135/169 114/137/168 106/138/170
s 29
f 90/139/171 113/140/172 89/136/173
f 89/136/173 113/140/172 114/137/174
s 30
f 91/141/175 112/142/176 90/139/177
f 90/139/177 112/142/176 113/140/178
s 31
f 91/141/179 92/143/180 112/142/181
f 112/142/181 92/143/180 111/144/182
s 32
f 92/143/183 93/145/184 111/144/185
f 111/144/185 93/145/184 110/146/186
s 33
f 93/145/187 94/147/188 110/146/189
f 110/146/189 94/147/188 109/148/190
s 34
f 94/147/191 95/149/192 109/148/193
f 109/148/193 95/149/192 108/150/194
s 35
f 95/149/195 96/151/196 108/150/197
f 108/150/197 96/151/196 107/152/198
s 36
f 88/153/199 106/154/200 96/151/201
f 96/151/201 106/154/200 107/152/202
f 106/154/200 97/155/203 107/152/202
f 107/152/202 97/155/203 105/156/204
s 35
f 108/150/197 107/152/198 104/157/205
f 104/157/205 107/152/198 105/156/206
s 34
f 109/148/193 108/150/194 103/158/207
f 103/158/207 108/150/194 104/157/208
s 33
f 110/146/189 109/148/190 102/159/209
f 102/159/209 109/148/190 103/158/210
s 32
f 111/144/185 110/146/186 101/160/211
f 101/160/211 110/146/186 102/159/212
s 31
f 112/142/181 111/144/182 100/161/213
f 100/161/213 111/144/182 101/160/214
s 30
f 112/142/176 100/161/215 113/140/178
f 113/140/178 100/161/215 99/162/216
s 29
f 113/140/172 99/162/217 114/137/174
f 114/137/174 99/162/217 98/163/218
s 28
f 114/137/168 98/163/219 106/138/170
f 106/138/170 98/163/219 97/164/220
