# This file uses centimeters as units for non-parametric coordinates.

mtllib placement_palmtree.mtl
g default
v 4.366749 319.184296 41.419884
v 28.003490 338.582336 -22.119404
v -11.638498 319.184296 -77.114395
v -167.635635 370.048462 65.238953
v -151.854675 395.686554 2.500537
v -185.425583 370.571594 -53.039482
v -126.538338 363.729126 -61.926815
v -92.967430 388.844086 -6.386797
v -108.748398 363.205963 56.351616
v -57.241310 344.494720 -70.956818
v -22.166243 367.288269 -15.345170
v -41.236065 344.494720 47.577461
vt 0.000000 0.000000
vt 0.500000 0.000000
vt 1.000000 0.000000
vt 0.000000 1.000000
vt 0.500000 1.000000
vt 1.000000 1.000000
vt 1.000000 0.685127
vt 0.500000 0.685127
vt 0.000000 0.685127
vt 1.000000 0.295407
vt 0.500000 0.295407
vt 0.000000 0.295407
vn 0.488181 0.764989 0.420084
vn 0.483507 0.872902 -0.065286
vn 0.383352 0.922139 -0.051976
vn 0.372413 0.828215 0.418771
vn 0.359286 0.764989 -0.534514
vn 0.250491 0.826222 -0.504590
vn 0.216451 0.975695 -0.034170
vn 0.107777 0.882846 -0.457130
vn 0.039603 0.901253 -0.431480
vn 0.113522 0.993455 -0.012680
vn 0.230375 0.881366 0.412458
vn 0.165945 0.897537 0.408521
s 1
g pPlane4 group10
usemtl initialShadingGroup
f 1/1/1 2/2/2 11/11/3 12/12/4
f 2/2/2 3/3/5 10/10/6 11/11/3
f 8/8/7 7/7/8 6/6/9 5/5/10
f 9/9/11 8/8/7 5/5/10 4/4/12
f 11/11/3 10/10/6 7/7/8 8/8/7
f 12/12/4 11/11/3 8/8/7 9/9/11
g default
v -12.684256 319.642975 43.722218
v -7.042099 354.370605 -17.387327
v -28.689503 319.642975 -74.812065
v -180.270630 255.495956 66.945007
v -184.631287 290.441498 6.926241
v -198.011749 254.825974 -51.340015
v -146.974167 285.279358 -59.167439
v -133.593689 320.894897 -0.901183
v -129.233047 285.949310 59.117580
v -80.192932 312.080933 -67.857742
v -64.217812 346.737885 -9.667101
v -64.187675 312.080933 50.676533
vt 0.000000 0.000000
vt 0.500000 0.000000
vt 1.000000 0.000000
vt 0.000000 1.000000
vt 0.500000 1.000000
vt 1.000000 1.000000
vt 1.000000 0.685127
vt 0.500000 0.685127
vt 0.000000 0.685127
vt 1.000000 0.295407
vt 0.500000 0.295407
vt 0.000000 0.295407
vn -0.054748 0.868081 0.493394
vn -0.136010 0.990537 0.018365
vn -0.245334 0.968880 0.032913
vn -0.185336 0.849432 0.494081
vn -0.183644 0.868081 -0.461205
vn -0.306615 0.849489 -0.429366
vn -0.410604 0.910414 0.050499
vn -0.453540 0.805533 -0.381337
vn -0.518481 0.777401 -0.356124
vn -0.503118 0.861331 0.070582
vn -0.331087 0.807449 0.488270
vn -0.392486 0.782159 0.483923
s 1
g group10 pPlane5
usemtl initialShadingGroup
f 13/13/13 14/14/14 23/23/15 24/24/16
f 14/14/14 15/15/17 22/22/18 23/23/15
f 20/20/19 19/19/20 18/18/21 17/17/22
f 21/21/23 20/20/19 17/17/22 16/16/24
f 23/23/15 22/22/18 19/19/20 20/20/19
f 24/24/16 23/23/15 20/20/19 21/21/23
g default
v -10.486935 312.737396 43.425522
v -18.489563 350.094910 -15.841618
v -26.492182 312.737396 -75.108757
v -142.840515 190.750168 61.890957
v -160.223801 224.602951 3.630589
v -160.214600 189.481033 -56.443626
v -123.901718 236.818024 -62.282825
v -123.910919 271.939941 -2.208612
v -106.527626 238.087143 56.051750
v -71.607880 286.553192 -69.016953
v -68.852417 321.735413 -9.041307
v -55.602631 286.553192 49.517326
vt 0.000000 0.000000
vt 0.500000 0.000000
vt 1.000000 0.000000
vt 0.000000 1.000000
vt 0.500000 1.000000
vt 1.000000 1.000000
vt 1.000000 0.685127
vt 0.500000 0.685127
vt 0.000000 0.685127
vt 1.000000 0.295407
vt 0.500000 0.295407
vt 0.000000 0.295407
vn -0.363422 0.762641 0.535073
vn -0.488228 0.870223 0.065924
vn -0.581947 0.809442 0.078365
vn -0.478164 0.697573 0.533621
vn -0.492318 0.762641 -0.419525
vn -0.599700 0.698872 -0.389792
vn -0.714272 0.693861 0.091503
vn -0.719964 0.601977 -0.345363
vn -0.769904 0.550863 -0.322176
vn -0.782275 0.613451 0.108276
vn -0.598558 0.605597 0.524385
vn -0.646515 0.559876 0.518225
s 1
g group10 pPlane6
usemtl initialShadingGroup
f 25/25/25 26/26/26 35/35/27 36/36/28
f 26/26/26 27/27/29 34/34/30 35/35/27
f 32/32/31 31/31/32 30/30/33 29/29/34
f 33/33/35 32/32/31 29/29/34 28/28/36
f 35/35/27 34/34/30 31/31/32 32/32/31
f 36/36/28 35/35/27 32/32/31 33/33/35
g default
v -61.695160 319.184296 -35.762894
v -1.890178 338.582336 -3.836408
v 57.914803 319.184296 -35.762894
v -62.284039 370.048462 -209.405701
v -2.221525 395.686554 -185.371521
v 57.311199 370.571594 -211.208572
v 58.238785 363.729126 -151.661697
v -1.293937 388.844086 -125.824623
v -61.356445 363.205963 -149.858810
v 57.914803 344.494720 -81.779549
v -1.890178 367.288269 -54.461422
v -61.695160 344.494720 -81.779549
vt 0.000000 0.000000
vt 0.500000 0.000000
vt 1.000000 0.000000
vt 0.000000 1.000000
vt 0.500000 1.000000
vt 1.000000 1.000000
vt 1.000000 0.685127
vt 0.500000 0.685127
vt 0.000000 0.685127
vt 1.000000 0.295407
vt 0.500000 0.295407
vt 0.000000 0.295407
vn -0.481631 0.764989 0.427579
vn -0.000000 0.872902 0.487895
vn 0.000212 0.922139 0.386860
vn -0.464838 0.828215 0.313027
vn 0.481631 0.764989 0.427579
vn 0.466534 0.826222 0.315758
vn 0.004899 0.975695 0.219077
vn 0.438597 0.882846 0.167977
vn 0.422300 0.901253 0.096983
vn -0.002624 0.993455 0.114197
vn -0.439575 0.881366 0.173112
vn -0.427052 0.897537 0.109787
s 1
g group10 pPlane3
usemtl initialShadingGroup
f 37/37/37 38/38/38 47/47/39 48/48/40
f 38/38/38 39/39/41 46/46/42 47/47/39
f 44/44/43 43/43/44 42/42/45 41/41/46
f 45/45/47 44/44/43 41/41/46 40/40/48
f 47/47/39 46/46/42 43/43/44 44/44/43
f 48/48/40 47/47/39 44/44/43 45/45/47
g default
v -61.695160 312.737427 -50.751366
v -1.890178 350.094940 -50.751373
v 57.914803 312.737427 -50.751366
v -62.284039 190.750168 -184.385559
v -2.221526 224.602966 -193.816589
v 57.311199 189.481049 -185.768799
v 58.238785 236.818024 -149.001129
v -1.293937 271.939941 -157.048904
v -61.356445 238.087143 -147.617889
v 57.914803 286.553192 -96.276482
v -1.890178 321.735443 -101.571266
v -61.695160 286.553192 -96.276482
vt 0.000000 0.000000
vt 0.500000 0.000000
vt 1.000000 0.000000
vt 0.000000 1.000000
vt 0.500000 1.000000
vt 1.000000 1.000000
vt 1.000000 0.685127
vt 0.500000 0.685127
vt 0.000000 0.685127
vt 1.000000 0.295407
vt 0.500000 0.295407
vt 0.000000 0.295407
vn -0.481631 0.762641 -0.431753
vn 0.000000 0.870223 -0.492659
vn 0.000212 0.809442 -0.587200
vn -0.464838 0.697573 -0.545269
vn 0.481631 0.762641 -0.431753
vn 0.466534 0.698872 -0.542148
vn 0.004899 0.693861 -0.720093
vn 0.438597 0.601977 -0.667275
vn 0.422301 0.550864 -0.719869
vn -0.002624 0.613451 -0.789728
vn -0.439575 0.605597 -0.663344
vn -0.427052 0.559877 -0.710046
s 1
g group10 pPlane1
usemtl initialShadingGroup
f 49/49/49 50/50/50 59/59/51 60/60/52
f 50/50/50 51/51/53 58/58/54 59/59/51
f 56/56/55 55/55/56 54/54/57 53/53/58
f 57/57/59 56/56/55 53/53/58 52/52/60
f 59/59/51 58/58/54 55/55/56 56/56/55
f 60/60/52 59/59/51 56/56/55 57/57/59
g default
v -61.695160 319.642975 -52.968636
v -1.890178 354.370605 -39.200031
v 57.914803 319.642975 -52.968636
v -62.284039 255.495956 -222.155350
v -2.221525 290.441498 -218.445557
v 57.311199 254.825974 -223.908966
v 58.238785 285.279358 -172.282990
v -1.293937 320.894897 -166.819550
v -61.356445 285.949310 -170.529343
v 57.914803 312.080933 -104.939445
v -1.890178 346.737885 -96.894608
v -61.695160 312.080933 -104.939445
vt 0.000000 0.000000
vt 0.500000 0.000000
vt 1.000000 0.000000
vt 0.000000 1.000000
vt 0.500000 1.000000
vt 1.000000 1.000000
vt 1.000000 0.685127
vt 0.500000 0.685127
vt 0.000000 0.685127
vt 1.000000 0.295407
vt 0.500000 0.295407
vt 0.000000 0.295407
vn -0.481630 0.868082 -0.120277
vn 0.000000 0.990537 -0.137244
vn 0.000212 0.968880 -0.247532
vn -0.464837 0.849432 -0.249784
vn 0.481630 0.868082 -0.120277
vn 0.466533 0.849489 -0.246404
vn 0.004899 0.910414 -0.413669
vn 0.438597 0.805533 -0.398434
vn 0.422300 0.777401 -0.466165
vn -0.002624 0.861330 -0.508038
vn -0.439575 0.807449 -0.393446
vn -0.427052 0.782159 -0.453710
s 1
g group10 pPlane2
usemtl initialShadingGroup
f 61/61/61 62/62/62 71/71/63 72/72/64
f 62/62/62 63/63/65 70/70/66 71/71/63
f 68/68/67 67/67/68 66/66/69 65/65/70
f 69/69/71 68/68/67 65/65/70 64/64/72
f 71/71/63 70/70/66 67/67/68 68/68/67
f 72/72/64 71/71/63 68/68/67 69/69/71
g default
v 32.474491 312.737396 -51.068951
v 26.709459 350.094910 8.457514
v 20.944418 312.737396 67.983978
v 165.543106 190.750168 -38.773113
v 169.140335 224.602951 21.918806
v 155.391251 189.481033 80.398499
v 118.705391 236.818024 77.777458
v 132.454483 271.939941 19.297770
v 128.857239 238.087143 -41.394146
v 66.257515 286.553192 72.372475
v 77.292679 321.735413 13.356413
v 77.787598 286.553192 -46.680454
vt 0.000000 0.000000
vt 0.500000 0.000000
vt 1.000000 0.000000
vt 0.000000 1.000000
vt 0.500000 1.000000
vt 1.000000 1.000000
vt 1.000000 0.685127
vt 0.500000 0.685127
vt 0.000000 0.685127
vt 1.000000 0.295407
vt 0.500000 0.295407
vt 0.000000 0.295407
vn 0.476170 0.762641 -0.437768
vn 0.490364 0.870223 0.047491
vn 0.584445 0.809442 0.056815
vn 0.587538 0.697573 -0.410110
vn 0.383314 0.762641 0.521008
vn 0.494650 0.698872 0.516623
vn 0.716267 0.693861 0.074291
vn 0.621888 0.601977 0.500878
vn 0.675808 0.550863 0.489728
vn 0.786304 0.613451 0.073516
vn 0.702629 0.605597 -0.373583
vn 0.747906 0.559876 -0.356617
s 1
g group10 pPlane7
usemtl initialShadingGroup
f 73/73/73 74/74/74 83/83/75 84/84/76
f 74/74/74 75/75/77 82/82/78 83/83/75
f 80/80/79 79/79/80 78/78/81 77/77/82
f 81/81/83 80/80/79 77/77/82 76/76/84
f 83/83/75 82/82/78 79/79/80 80/80/79
f 84/84/76 83/83/75 80/80/79 81/81/83
g default
v 34.681427 319.642975 -50.855213
v 15.211906 354.370605 7.343995
v 23.151354 319.642975 68.197716
v 203.136993 255.495956 -35.132210
v 193.654617 290.441498 24.292971
v 193.353790 254.825974 84.075104
v 141.878799 285.279358 80.021767
v 142.179626 320.894897 20.239634
v 151.662003 285.949310 -39.185543
v 74.880127 312.080933 73.207558
v 72.637794 346.737885 12.905595
v 86.410210 312.080933 -45.845371
vt 0.000000 0.000000
vt 0.500000 0.000000
vt 1.000000 0.000000
vt 0.000000 1.000000
vt 0.500000 1.000000
vt 1.000000 1.000000
vt 1.000000 0.685127
vt 0.500000 0.685127
vt 0.000000 0.685127
vt 1.000000 0.295407
vt 0.500000 0.295407
vt 0.000000 0.295407
vn 0.166145 0.868081 -0.467794
vn 0.136605 0.990537 0.013230
vn 0.246359 0.968880 0.024072
vn 0.293429 0.849432 -0.438594
vn 0.073290 0.868081 0.490982
vn 0.200283 0.849489 0.488114
vn 0.411270 0.910414 0.044752
vn 0.354299 0.805533 0.474962
vn 0.423285 0.777401 0.465271
vn 0.505925 0.861331 0.046361
vn 0.433987 0.807449 -0.399601
vn 0.492764 0.782159 -0.381327
s 1
g group10 pPlane8
usemtl initialShadingGroup
f 85/85/85 86/86/86 95/95/87 96/96/88
f 86/86/86 87/87/89 94/94/90 95/95/87
f 92/92/91 91/91/92 90/90/93 89/89/94
f 93/93/95 92/92/91 89/89/94 88/88/96
f 95/95/87 94/94/90 91/91/92 92/92/91
f 96/96/88 95/95/87 92/92/91 93/93/95
g default
v 17.555815 319.184296 -52.513798
v -19.987026 338.582336 3.935038
v 6.025741 319.184296 66.539131
v 190.446716 370.048462 -36.361240
v 160.734604 395.686554 21.104723
v 180.712540 370.571594 82.850822
v 121.353554 363.729126 78.033928
v 101.375603 388.844086 16.287832
v 131.087723 363.205963 -41.178127
v 51.828091 344.494720 70.975006
v 30.402225 367.288269 8.815151
v 63.358166 344.494720 -48.077923
vt 0.000000 0.000000
vt 0.500000 0.000000
vt 1.000000 0.000000
vt 0.000000 1.000000
vt 0.500000 1.000000
vt 1.000000 1.000000
vt 1.000000 0.685127
vt 0.500000 0.685127
vt 0.000000 0.685127
vt 1.000000 0.295407
vt 0.500000 0.295407
vt 0.000000 0.295407
vn -0.379160 0.764989 -0.520605
vn -0.485623 0.872902 -0.047032
vn -0.385078 0.922139 -0.037082
vn -0.266760 0.828215 -0.492848
vn -0.472015 0.764989 0.438170
vn -0.359260 0.826223 0.433922
vn -0.218529 0.975695 -0.016243
vn -0.209474 0.882846 0.420361
vn -0.137241 0.901253 0.410985
vn -0.113413 0.993455 -0.013620
vn -0.129932 0.881366 -0.454215
vn -0.068110 0.897537 -0.435647
s 1
g group10 pPlane9
usemtl initialShadingGroup
f 97/97/97 98/98/98 107/107/99 108/108/100
f 98/98/98 99/99/101 106/106/102 107/107/99
f 104/104/103 103/103/104 102/102/105 101/101/106
f 105/105/107 104/104/103 101/101/106 100/100/108
f 107/107/99 106/106/102 103/103/104 104/104/103
f 108/108/100 107/107/99 104/104/103 105/105/107
g default
v 51.860195 -0.732391 -62.879189
v -1.890180 -0.732391 -85.143333
v -55.640553 -0.732391 -62.879189
v -77.904686 -0.732391 -9.128826
v -55.640553 -0.732391 44.621552
v -1.890180 -0.732391 66.885689
v 51.860199 -0.732391 44.621559
v 74.124336 -0.732391 -9.128826
v 19.148928 330.567444 -45.714226
v -1.890177 330.567444 -54.428940
v -22.929283 330.567444 -45.714226
v -31.643969 330.567444 -24.675131
v -22.929283 330.567444 -3.636063
v -1.890177 330.567444 5.078618
v 19.148930 330.567444 -3.636060
v 27.863617 330.567444 -24.675131
v -1.890178 -6.279358 -9.128822
v -1.890178 330.435120 26.751595
v -1.890178 66.404976 -53.158150
v 29.243258 66.404976 -40.262260
v 42.139153 66.404976 -9.128822
v 29.243261 47.578529 22.004618
v -1.890178 47.578529 34.900505
v -33.023613 66.404976 22.004612
v -45.919506 66.404976 -9.128822
v -33.023613 66.404976 -40.262260
v -1.890177 154.617065 -17.437984
v 24.706350 154.617065 -6.421349
v 35.722996 154.617065 20.175182
v 24.706352 154.617065 46.771706
v -1.890177 154.617065 57.788345
v -28.486704 154.617065 46.771706
v -39.503349 154.617065 20.175182
v -28.486704 154.617065 -6.421349
v -1.890177 251.027573 -26.436796
v 24.706350 251.027573 -15.420156
v 35.722992 251.027573 11.176372
v 24.706352 251.027573 37.772903
v -1.890177 251.027573 48.789536
v -28.486704 251.027573 37.772900
v -39.503345 251.027573 11.176372
v -28.486704 251.027573 -15.420156
vt 0.610485 0.045765
vt 0.500000 0.000000
vt 0.389515 0.045765
vt 0.343750 0.156250
vt 0.389515 0.266735
vt 0.500000 0.312500
vt 0.610485 0.266735
vt 0.656250 0.156250
vt 0.375000 0.312500
vt 0.406250 0.312500
vt 0.437500 0.312500
vt 0.468750 0.312500
vt 0.500000 0.312500
vt 0.531250 0.312500
vt 0.562500 0.312500
vt 0.593750 0.312500
vt 0.625000 0.312500
vt 0.375000 0.688440
vt 0.406250 0.688440
vt 0.437500 0.688440
vt 0.468750 0.688440
vt 0.500000 0.688440
vt 0.531250 0.688440
vt 0.562500 0.688440
vt 0.593750 0.688440
vt 0.625000 0.688440
vt 0.610485 0.733265
vt 0.500000 0.687500
vt 0.389515 0.733265
vt 0.343750 0.843750
vt 0.389515 0.954235
vt 0.500000 1.000000
vt 0.610485 0.954235
vt 0.656250 0.843750
vt 0.500000 0.150000
vt 0.500000 0.837500
vt 0.406250 0.375890
vt 0.625000 0.375890
vt 0.375000 0.375890
vt 0.593750 0.375890
vt 0.562500 0.375890
vt 0.531250 0.375890
vt 0.500000 0.375890
vt 0.468750 0.375890
vt 0.437500 0.375890
vt 0.406250 0.491125
vt 0.625000 0.491125
vt 0.375000 0.491125
vt 0.593750 0.491125
vt 0.562500 0.491125
vt 0.531250 0.491125
vt 0.500000 0.491125
vt 0.468750 0.491125
vt 0.437500 0.491125
vt 0.406250 0.615963
vt 0.625000 0.615963
vt 0.375000 0.615963
vt 0.593750 0.615963
vt 0.562500 0.615963
vt 0.531250 0.615963
vt 0.500000 0.615963
vt 0.468750 0.615963
vt 0.437500 0.615963
vn 0.350257 0.402853 -0.845594
vn 0.350257 0.402853 -0.845594
vn 0.353806 0.381085 -0.854164
vn 0.354117 0.379106 -0.854915
vn -0.350257 0.402853 -0.845594
vn -0.350257 0.402853 -0.845594
vn -0.354117 0.379106 -0.854915
vn -0.353806 0.381085 -0.854164
vn -0.845594 0.402853 -0.350257
vn -0.845594 0.402853 -0.350257
vn -0.879761 0.305329 -0.364409
vn -0.873699 0.325084 -0.361898
vn -0.845594 0.402853 0.350257
vn -0.845594 0.402853 0.350257
vn -0.906502 0.193041 0.375485
vn -0.897438 0.237533 0.371731
vn -0.253275 0.453712 0.854399
vn -0.253275 0.453712 0.854399
vn -0.335838 0.228900 0.913683
vn -0.385006 0.048524 0.921638
vn 0.326455 0.521799 0.788133
vn 0.326455 0.521799 0.788133
vn 0.377476 0.164411 0.911307
vn 0.378968 0.139009 0.914910
vn 0.783243 0.453712 0.425059
vn 0.783243 0.453712 0.425059
vn 0.901482 0.154316 0.404373
vn 0.869539 0.264897 0.416811
vn 0.845594 0.402853 -0.350257
vn 0.845594 0.402853 -0.350257
vn 0.873699 0.325084 -0.361898
vn 0.879761 0.305329 -0.364409
vn 0.000000 -0.997348 -0.072779
vn 0.051462 -0.997348 -0.051463
vn -0.000000 -1.000000 -0.000000
vn -0.051463 -0.997348 -0.051462
vn -0.072779 -0.997348 -0.000000
vn -0.051462 -0.997348 0.051462
vn -0.000000 -0.997348 0.072779
vn 0.051462 -0.997348 0.051462
vn 0.072779 -0.997348 -0.000000
vn -0.001062 0.999998 0.001517
vn 0.000000 0.999999 0.001630
vn 0.000000 0.999999 -0.001485
vn 0.001062 0.999998 0.001518
vn 0.002719 0.999996 0.000999
vn 0.033908 0.999242 -0.019117
vn 0.000000 -0.999981 -0.006105
vn -0.033908 0.999242 -0.019116
vn -0.002719 0.999996 0.000999
vn 0.378413 0.148974 -0.913570
vn 0.379051 0.137448 -0.915111
vn 0.920449 0.086092 -0.381263
vn 0.921532 0.071236 -0.381711
vn 0.927079 -0.013674 0.374616
vn 0.926806 -0.008748 0.375439
vn 0.381678 -0.072441 0.921452
vn 0.381833 -0.066625 0.921827
vn -0.412060 -0.068667 0.908566
vn -0.413240 -0.075803 0.907462
vn -0.923844 -0.008747 0.382669
vn -0.923774 -0.015122 0.382640
vn -0.921532 0.071236 -0.381711
vn -0.920449 0.086092 -0.381263
vn -0.379051 0.137448 -0.915111
vn -0.378413 0.148974 -0.913570
vn 0.375702 -0.190139 -0.907025
vn 0.376715 -0.175933 -0.909469
vn 0.922329 -0.057912 -0.382041
vn 0.922676 -0.051032 -0.382185
vn 0.914031 0.145627 0.378604
vn 0.918002 0.112616 0.380249
vn 0.368957 0.265422 0.890742
vn 0.371233 0.242787 0.896237
vn -0.371233 0.242787 0.896237
vn -0.368957 0.265422 0.890742
vn -0.918002 0.112616 0.380249
vn -0.914030 0.145627 0.378604
vn -0.922676 -0.051032 -0.382185
vn -0.922329 -0.057912 -0.382041
vn -0.376714 -0.175933 -0.909469
vn -0.375702 -0.190139 -0.907025
vn 0.363931 -0.309204 -0.878605
vn 0.363931 -0.309204 -0.878605
vn 0.920849 -0.080934 -0.381428
vn 0.920849 -0.080934 -0.381428
vn 0.893324 0.255054 0.370027
vn 0.893324 0.255054 0.370027
vn 0.341223 0.452709 0.823785
vn 0.341223 0.452709 0.823785
vn -0.341223 0.452709 0.823785
vn -0.341223 0.452709 0.823785
vn -0.893324 0.255055 0.370027
vn -0.893324 0.255055 0.370027
vn -0.920849 -0.080934 -0.381428
vn -0.920849 -0.080934 -0.381428
vn -0.363931 -0.309204 -0.878605
vn -0.363931 -0.309204 -0.878605
s 1
g group10 pCylinder28
usemtl initialShadingGroup
f 109/117/109 110/118/110 127/145/111 128/147/112
s 2
f 110/118/113 111/119/114 134/153/115 127/145/116
s 3
f 111/119/117 112/120/118 133/152/119 134/153/120
s 4
f 112/120/121 113/121/122 132/151/123 133/152/124
s 5
f 113/121/125 114/122/126 131/150/127 132/151/128
s 6
f 114/122/129 115/123/130 130/149/131 131/150/132
s 7
f 115/123/133 116/124/134 129/148/135 130/149/136
s 8
f 116/124/137 109/125/138 128/146/139 129/148/140
s 9
f 110/110/141 109/109/142 125/143/143
f 111/111/144 110/110/141 125/143/143
f 112/112/145 111/111/144 125/143/143
f 113/113/146 112/112/145 125/143/143
f 114/114/147 113/113/146 125/143/143
f 115/115/148 114/114/147 125/143/143
f 116/116/149 115/115/148 125/143/143
f 109/109/142 116/116/149 125/143/143
s 10
f 117/141/150 118/140/151 126/144/152
f 118/140/151 119/139/153 126/144/152
f 119/139/153 120/138/154 126/144/152
f 120/138/154 121/137/155 126/144/152
f 121/137/155 122/136/156 126/144/152
f 122/136/156 123/135/157 126/144/152
f 123/135/157 124/142/158 126/144/152
f 124/142/158 117/141/150 126/144/152
s 1
f 128/147/112 127/145/111 135/154/159 136/156/160
s 8
f 129/148/140 128/146/139 136/155/161 137/157/162
s 7
f 130/149/136 129/148/135 137/157/163 138/158/164
s 6
f 131/150/132 130/149/131 138/158/165 139/159/166
s 5
f 132/151/128 131/150/127 139/159/167 140/160/168
s 4
f 133/152/124 132/151/123 140/160/169 141/161/170
s 3
f 134/153/120 133/152/119 141/161/171 142/162/172
s 2
f 127/145/116 134/153/115 142/162/173 135/154/174
s 1
f 136/156/160 135/154/159 143/163/175 144/165/176
s 8
f 137/157/162 136/155/161 144/164/177 145/166/178
s 7
f 138/158/164 137/157/163 145/166/179 146/167/180
s 6
f 139/159/166 138/158/165 146/167/181 147/168/182
s 5
f 140/160/168 139/159/167 147/168/183 148/169/184
s 4
f 141/161/170 140/160/169 148/169/185 149/170/186
s 3
f 142/162/172 141/161/171 149/170/187 150/171/188
s 2
f 135/154/174 142/162/173 150/171/189 143/163/190
s 1
f 144/165/176 143/163/175 118/127/191 117/126/192
s 8
f 145/166/178 144/164/177 117/134/193 124/133/194
s 7
f 146/167/180 145/166/179 124/133/195 123/132/196
s 6
f 147/168/182 146/167/181 123/132/197 122/131/198
s 5
f 148/169/184 147/168/183 122/131/199 121/130/200
s 4
f 149/170/186 148/169/185 121/130/201 120/129/202
s 3
f 150/171/188 149/170/187 120/129/203 119/128/204
s 2
f 143/163/190 150/171/189 119/128/205 118/127/206
g default
v 57.876556 312.737396 15.672135
v -1.928081 350.094910 15.470150
v -61.732719 312.737396 15.268153
v 58.014084 190.750168 149.307556
v -2.079938 224.602951 158.535660
v -61.585140 189.481033 150.286865
v -62.388542 236.818024 113.516266
v -2.883338 271.939941 121.765060
v 57.210678 238.087143 112.536949
v -61.886482 286.553192 60.793007
v -2.099725 321.735413 66.289757
v 57.722797 286.553192 61.196991
vt 0.000000 0.000000
vt 0.500000 0.000000
vt 1.000000 0.000000
vt 0.000000 1.000000
vt 0.500000 1.000000
vt 1.000000 1.000000
vt 1.000000 0.685127
vt 0.500000 0.685127
vt 0.000000 0.685127
vt 1.000000 0.295407
vt 0.500000 0.295407
vt 0.000000 0.295407
vn 0.480170 0.762641 0.433378
vn -0.001664 0.870223 0.492656
vn -0.002195 0.809442 0.587196
vn 0.462993 0.697573 0.546835
vn -0.483086 0.762641 0.430124
vn -0.468362 0.698872 0.540569
vn -0.007331 0.693861 0.720072
vn -0.440848 0.601977 0.665790
vn -0.424730 0.550863 0.718439
vn -0.000043 0.613451 0.789733
vn 0.437332 0.605597 0.664825
vn 0.424652 0.559876 0.711484
s 1
g group10 pPlane10
usemtl initialShadingGroup
f 151/172/207 152/173/208 161/182/209 162/183/210
f 152/173/208 153/174/211 160/181/212 161/182/209
f 158/179/213 157/178/214 156/177/215 155/176/216
f 159/180/217 158/179/213 155/176/216 154/175/218
f 161/182/209 160/181/212 157/178/214 158/179/213
f 162/183/210 161/182/209 158/179/213 159/180/217
g default
v 57.869068 319.642975 17.889385
v -1.889067 354.370605 3.918868
v -61.740211 319.642975 17.485403
v 57.886517 255.495956 187.077133
v -2.163122 290.441498 183.164490
v -61.713959 254.825974 188.426804
v -62.467175 285.279358 136.797958
v -2.916338 320.894897 131.535660
v 57.133293 285.949310 135.448288
v -61.915741 312.080933 69.455917
v -2.083930 346.737885 61.613117
v 57.693539 312.080933 69.859901
vt 0.000000 0.000000
vt 0.500000 0.000000
vt 1.000000 0.000000
vt 0.000000 1.000000
vt 0.500000 1.000000
vt 1.000000 1.000000
vt 1.000000 0.685127
vt 0.500000 0.685127
vt 0.000000 0.685127
vt 1.000000 0.295407
vt 0.500000 0.295407
vt 0.000000 0.295407
vn 0.481222 0.868082 0.121903
vn -0.000464 0.990537 0.137244
vn -0.001048 0.968880 0.247530
vn 0.463991 0.849432 0.251352
vn -0.482034 0.868082 0.118650
vn -0.467363 0.849489 0.244827
vn -0.006296 0.910414 0.413650
vn -0.439940 0.805533 0.396950
vn -0.423873 0.777401 0.464736
vn 0.000908 0.861330 0.508045
vn 0.438244 0.807449 0.394928
vn 0.425517 0.782159 0.455151
s 1
g group10 pPlane11
usemtl initialShadingGroup
f 163/184/219 164/185/220 173/194/221 174/195/222
f 164/185/220 165/186/223 172/193/224 173/194/221
f 170/191/225 169/190/226 168/189/227 167/188/228
f 171/192/229 170/191/225 167/188/228 166/187/230
f 173/194/221 172/193/224 169/190/226 170/191/225
f 174/195/222 173/194/221 170/191/225 171/192/229
g default
v 57.927181 319.184296 0.683743
v -1.769626 338.582336 -31.444553
v -61.682098 319.184296 0.279761
v 57.929577 370.048462 174.327545
v -2.051414 395.686554 150.090622
v -61.671066 370.571594 175.726486
v -62.397526 363.729126 116.176796
v -2.777878 388.844086 90.540939
v 57.203106 363.205963 114.777863
v -61.837517 344.494720 46.296150
v -1.940612 367.288269 19.180174
v 57.771759 344.494720 46.700134
vt 0.000000 0.000000
vt 0.500000 0.000000
vt 1.000000 0.000000
vt 0.000000 1.000000
vt 0.500000 1.000000
vt 1.000000 1.000000
vt 1.000000 0.685127
vt 0.500000 0.685127
vt 0.000000 0.685127
vt 1.000000 0.295407
vt 0.500000 0.295407
vt 0.000000 0.295407
vn 0.483072 0.764989 -0.425950
vn 0.001648 0.872902 -0.487892
vn 0.001095 0.922139 -0.386858
vn 0.465892 0.828215 -0.311456
vn -0.480184 0.764989 -0.429203
vn -0.465465 0.826222 -0.317332
vn -0.004159 0.975695 -0.219092
vn -0.438027 0.882846 -0.169458
vn -0.421971 0.901253 -0.098410
vn 0.003010 0.993455 -0.114188
vn 0.440157 0.881366 -0.171626
vn 0.427420 0.897537 -0.108344
s 1
g group10 pPlane12
usemtl initialShadingGroup
f 175/196/231 176/197/232 185/206/233 186/207/234
f 176/197/232 177/198/235 184/205/236 185/206/233
f 182/203/237 181/202/238 180/201/239 179/200/240
f 183/204/241 182/203/237 179/200/240 178/199/242
f 185/206/233 184/205/236 181/202/238 182/203/237
f 186/207/234 185/206/233 182/203/237 183/204/241
