# This file uses centimeters as units for non-parametric coordinates.

mtllib placement_treestump.mtl
g default
v -65.161407 -0.238558 65.161407
v 65.161407 -0.238558 65.161407
v -44.349861 50.714333 44.349857
v 44.349861 50.714333 44.349861
v -44.349861 50.714333 -44.349857
v 44.349861 50.714333 -44.349861
v -65.161407 -0.238558 -65.161407
v 65.161407 -0.238558 -65.161407
v -44.349861 50.714333 0.803685
v -51.059422 -0.238558 0.925272
v 51.059422 -0.238558 0.925272
v 44.349861 50.714333 0.803685
v -2.614611 50.714333 -44.349861
v -3.010168 -0.238558 -51.059422
v -2.800630 -0.238558 0.860864
v -3.010168 -0.238558 51.059422
v -2.614611 50.714333 44.349861
v -2.800631 50.714333 0.860864
v -38.369324 40.583603 -38.369324
v -38.369324 40.583603 0.695309
v -38.369324 40.583603 38.369324
v -2.262033 40.583603 38.369324
v 38.369324 40.583603 38.369324
v 38.369324 40.583603 0.695309
v 38.369324 40.583603 -38.369324
v -2.262033 40.583603 -38.369324
v -42.500172 12.675092 -42.500172
v -42.500172 12.675092 0.770166
v -42.500172 12.675092 42.500172
v -2.505564 12.675092 42.500172
v 42.500172 12.675092 42.500172
v 42.500172 12.675092 0.770166
v 42.500172 12.675092 -42.500172
v -2.505564 12.675092 -42.500172
v -36.576702 26.735224 -36.576702
v -36.576702 26.735224 0.662824
v -36.576702 26.735224 36.576702
v -2.156351 26.735224 36.576702
v 36.576702 26.735224 36.576702
v 36.576702 26.735224 0.662824
v 36.576702 26.735224 -36.576702
v -2.156351 26.735224 -36.576702
vt 0.375000 0.000000
vt 0.625000 0.000000
vt 0.375000 0.250000
vt 0.625000 0.250000
vt 0.375000 0.500000
vt 0.625000 0.500000
vt 0.375000 0.750000
vt 0.625000 0.750000
vt 0.375000 1.000000
vt 0.625000 1.000000
vt 0.875000 0.000000
vt 0.875000 0.250000
vt 0.125000 0.000000
vt 0.125000 0.250000
vt 0.252265 0.250000
vt 0.375000 0.372735
vt 0.252265 0.000000
vt 0.375000 0.877265
vt 0.625000 0.877265
vt 0.747735 0.000000
vt 0.625000 0.372735
vt 0.747735 0.250000
vt 0.492631 0.500000
vt 0.492631 0.750000
vt 0.492631 0.877265
vt 0.492631 0.000000
vt 0.492631 1.000000
vt 0.492631 0.250000
vt 0.492631 0.372735
vt 0.125000 0.202744
vt 0.375000 0.547256
vt 0.252265 0.202744
vt 0.375000 0.202744
vt 0.492631 0.202744
vt 0.625000 0.202744
vt 0.747735 0.202744
vt 0.625000 0.547256
vt 0.875000 0.202744
vt 0.492631 0.547256
vt 0.125000 0.047104
vt 0.375000 0.702896
vt 0.252265 0.047104
vt 0.375000 0.047104
vt 0.492631 0.047104
vt 0.625000 0.047104
vt 0.747735 0.047104
vt 0.625000 0.702896
vt 0.875000 0.047104
vt 0.492631 0.702896
vt 0.125000 0.138147
vt 0.375000 0.611853
vt 0.252265 0.138147
vt 0.375000 0.138147
vt 0.492631 0.138147
vt 0.625000 0.138147
vt 0.747735 0.138147
vt 0.625000 0.611853
vt 0.875000 0.138147
vt 0.492631 0.611853
vn -0.000000 -0.351261 0.936278
vn -0.000000 -0.318074 0.948066
vn -0.000000 -0.508364 0.861142
vn -0.000000 -0.508364 0.861142
vn 0.000000 1.000000 0.000000
vn 0.000000 1.000000 0.000000
vn 0.000000 1.000000 0.000000
vn 0.000000 1.000000 0.000000
vn -0.000000 -0.508364 -0.861142
vn -0.000000 -0.508364 -0.861142
vn -0.000000 -0.318074 -0.948066
vn -0.000000 -0.351261 -0.936278
vn 0.000000 -1.000000 -0.000000
vn 0.000000 -1.000000 -0.000000
vn 0.000000 -1.000000 -0.000000
vn 0.000000 -1.000000 -0.000000
vn 0.936278 -0.351261 0.000000
vn 0.948107 -0.317950 0.000000
vn 0.861142 -0.508364 0.000000
vn 0.861143 -0.508364 0.000000
vn -0.948107 -0.317950 0.000000
vn -0.936278 -0.351261 0.000000
vn -0.861143 -0.508364 0.000000
vn -0.861143 -0.508364 0.000000
vn -0.936278 -0.351261 0.000000
vn -0.861143 -0.508364 0.000000
vn 0.000000 -1.000000 0.000000
vn 0.000000 -1.000000 -0.000000
vn 0.936278 -0.351261 0.000000
vn 0.861143 -0.508364 0.000000
vn 0.000000 1.000000 0.000000
vn 0.000000 1.000000 0.000000
vn 0.000000 -0.508364 -0.861143
vn 0.000000 -0.351261 -0.936278
vn 0.000000 -1.000000 -0.000000
vn 0.000000 -1.000000 -0.000000
vn 0.000000 -1.000000 0.000000
vn 0.000000 -0.351261 0.936278
vn 0.000000 -0.508364 0.861143
vn 0.000000 1.000000 0.000000
vn 0.000000 1.000000 0.000000
vn 0.000000 1.000000 0.000000
vn -0.985248 0.171131 0.000000
vn -0.988139 0.153562 0.000000
vn -0.985248 0.171131 0.000000
vn 0.000000 0.171131 0.985248
vn 0.000000 0.153631 0.988128
vn 0.000000 0.171131 0.985248
vn 0.985248 0.171131 0.000000
vn 0.988139 0.153562 0.000000
vn 0.985248 0.171131 0.000000
vn 0.000000 0.171131 -0.985248
vn 0.000000 0.153631 -0.988128
vn 0.000000 0.171131 -0.985248
vn -0.671334 0.736082 0.086571
vn -0.674728 0.738066 -0.000599
vn -0.782752 0.622334 0.000363
vn -0.742913 0.665983 0.067422
vn -0.672895 0.734298 -0.089549
vn -0.743899 0.664640 -0.069770
vn 0.093158 0.732121 0.674774
vn 0.001952 0.738013 0.674784
vn -0.001180 0.622514 0.782607
vn 0.072618 0.663003 0.745086
vn -0.064959 0.667386 0.741873
vn -0.083443 0.737943 0.669685
vn 0.672895 0.734298 -0.089549
vn 0.674728 0.738066 -0.000599
vn 0.782752 0.622334 0.000363
vn 0.743899 0.664640 -0.069770
vn 0.742913 0.665983 0.067422
vn 0.671334 0.736082 0.086571
vn -0.001180 0.622515 -0.782607
vn -0.064959 0.667386 -0.741873
vn -0.083443 0.737943 -0.669685
vn 0.001952 0.738013 -0.674784
vn 0.072618 0.663003 -0.745086
vn 0.093158 0.732121 -0.674774
s 1
g pCube36
usemtl lambert3SG
f 21/33/1 22/34/2 17/28/3 3/3/4
s 2
f 3/3/5 17/28/6 18/29/7 9/16/8
s 3
f 5/5/9 13/23/10 26/39/11 19/31/12
s 4
f 10/18/13 15/25/14 16/27/15 1/9/16
s 5
f 23/35/17 24/36/18 12/22/19 4/4/20
s 6
f 20/32/21 21/33/22 3/3/23 9/15/24
f 19/30/25 20/32/21 9/15/24 5/14/26
s 4
f 7/7/27 14/24/28 15/25/14 10/18/13
s 5
f 12/22/19 24/36/18 25/38/29 6/12/30
s 2
f 9/16/8 18/29/7 13/23/31 5/5/32
s 3
f 13/23/10 6/6/33 25/37/34 26/39/11
s 4
f 15/25/14 14/24/28 8/8/35 11/19/36
f 16/27/15 15/25/14 11/19/36 2/10/37
s 1
f 17/28/3 22/34/2 23/35/38 4/4/39
s 2
f 18/29/7 17/28/6 4/4/40 12/21/41
f 13/23/31 18/29/7 12/21/41 6/6/42
s 6
f 35/50/43 36/52/44 20/32/21 19/30/25
f 36/52/44 37/53/45 21/33/22 20/32/21
s 1
f 37/53/46 38/54/47 22/34/2 21/33/1
f 23/35/38 22/34/2 38/54/47 39/55/48
s 5
f 39/55/49 40/56/50 24/36/18 23/35/17
f 25/38/29 24/36/18 40/56/50 41/58/51
s 3
f 26/39/11 25/37/34 41/57/52 42/59/53
f 19/31/12 26/39/11 42/59/53 35/51/54
s 6
f 7/13/55 10/17/56 28/42/57 27/40/58
f 10/17/56 1/1/59 29/43/60 28/42/57
s 1
f 1/1/61 16/26/62 30/44/63 29/43/64
f 31/45/65 30/44/63 16/26/62 2/2/66
s 5
f 2/2/67 11/20/68 32/46/69 31/45/70
f 33/48/71 32/46/69 11/20/68 8/11/72
s 3
f 34/49/73 33/47/74 8/8/75 14/24/76
f 27/41/77 34/49/73 14/24/76 7/7/78
s 6
f 27/40/58 28/42/57 36/52/44 35/50/43
f 28/42/57 29/43/60 37/53/45 36/52/44
s 1
f 29/43/64 30/44/63 38/54/47 37/53/46
f 39/55/48 38/54/47 30/44/63 31/45/65
s 5
f 31/45/70 32/46/69 40/56/50 39/55/49
f 41/58/51 40/56/50 32/46/69 33/48/71
s 3
f 42/59/53 41/57/52 33/47/74 34/49/73
f 35/51/54 42/59/53 34/49/73 27/41/77
