# This file uses centimeters as units for non-parametric coordinates.

mtllib placement_igloo.mtl
g default
v 90.312408 -0.930825 -156.425583
v -90.312332 -0.930825 -156.425613
v -180.624725 -0.930825 -0.000027
v -90.312386 -0.930825 156.425598
v 90.312355 -0.930825 156.425613
v 180.624725 -0.930825 0.000000
v 83.437782 68.191261 -144.518402
v -83.437714 68.191261 -144.518417
v -166.875488 68.191261 -0.000025
v -83.437759 68.191261 144.518402
v 83.437737 68.191261 144.518417
v 166.875488 68.191261 0.000000
v 63.860516 126.790138 -110.609596
v -63.860462 126.790138 -110.609619
v -127.720963 126.790138 -0.000019
v -63.860500 126.790138 110.609596
v 63.860477 126.790138 110.609604
v 127.720963 126.790138 0.000000
v 34.561062 165.944656 -59.861485
v -34.561035 165.944656 -59.861496
v -69.122093 165.944656 -0.000010
v -34.561054 165.944656 59.861488
v 34.561043 165.944656 59.861488
v 69.122093 165.944656 0.000000
v 0.000000 179.693893 0.000000
vt 0.000000 0.500000
vt 0.166667 0.500000
vt 0.333333 0.500000
vt 0.500000 0.500000
vt 0.666667 0.500000
vt 0.833333 0.500000
vt 1.000000 0.500000
vt 0.000000 0.625000
vt 0.166667 0.625000
vt 0.333333 0.625000
vt 0.500000 0.625000
vt 0.666667 0.625000
vt 0.833333 0.625000
vt 1.000000 0.625000
vt 0.000000 0.750000
vt 0.166667 0.750000
vt 0.333333 0.750000
vt 0.500000 0.750000
vt 0.666667 0.750000
vt 0.833333 0.750000
vt 1.000000 0.750000
vt 0.000000 0.875000
vt 0.166667 0.875000
vt 0.333333 0.875000
vt 0.500000 0.875000
vt 0.666667 0.875000
vt 0.833333 0.875000
vt 1.000000 0.875000
vt 0.083333 1.000000
vt 0.250000 1.000000
vt 0.416667 1.000000
vt 0.583333 1.000000
vt 0.750000 1.000000
vt 0.916667 1.000000
vn 0.000000 0.169763 -0.985485
vn 0.000000 0.169763 -0.985485
vn 0.000000 0.169763 -0.985485
vn 0.000000 0.169763 -0.985485
vn -0.853455 0.169763 -0.492743
vn -0.853455 0.169763 -0.492743
vn -0.853455 0.169763 -0.492743
vn -0.853455 0.169763 -0.492743
vn -0.853455 0.169763 0.492742
vn -0.853455 0.169763 0.492742
vn -0.853455 0.169763 0.492742
vn -0.853455 0.169763 0.492742
vn -0.000000 0.169763 0.985485
vn -0.000000 0.169763 0.985485
vn -0.000000 0.169763 0.985485
vn -0.000000 0.169763 0.985485
vn 0.853455 0.169763 0.492743
vn 0.853455 0.169763 0.492743
vn 0.853455 0.169763 0.492743
vn 0.853455 0.169763 0.492742
vn 0.853455 0.169763 -0.492742
vn 0.853455 0.169763 -0.492742
vn 0.853455 0.169763 -0.492742
vn 0.853455 0.169763 -0.492742
vn 0.000000 0.500850 -0.865534
vn 0.000000 0.500850 -0.865534
vn 0.000000 0.500850 -0.865534
vn 0.000000 0.500850 -0.865534
vn -0.749575 0.500850 -0.432767
vn -0.749575 0.500850 -0.432767
vn -0.749575 0.500850 -0.432767
vn -0.749575 0.500850 -0.432767
vn -0.749575 0.500850 0.432767
vn -0.749575 0.500850 0.432767
vn -0.749575 0.500850 0.432767
vn -0.749575 0.500850 0.432767
vn -0.000000 0.500850 0.865534
vn -0.000000 0.500850 0.865534
vn -0.000000 0.500850 0.865534
vn -0.000000 0.500850 0.865534
vn 0.749575 0.500850 0.432767
vn 0.749575 0.500850 0.432767
vn 0.749575 0.500850 0.432767
vn 0.749575 0.500850 0.432767
vn 0.749575 0.500850 -0.432767
vn 0.749575 0.500850 -0.432767
vn 0.749575 0.500850 -0.432767
vn 0.749575 0.500850 -0.432767
vn 0.000000 0.791737 -0.610862
vn 0.000000 0.791737 -0.610862
vn 0.000000 0.791737 -0.610862
vn 0.000000 0.791737 -0.610862
vn -0.529022 0.791737 -0.305431
vn -0.529022 0.791737 -0.305431
vn -0.529022 0.791737 -0.305431
vn -0.529022 0.791737 -0.305431
vn -0.529022 0.791737 0.305431
vn -0.529022 0.791737 0.305431
vn -0.529022 0.791737 0.305431
vn -0.529022 0.791737 0.305431
vn -0.000000 0.791737 0.610862
vn -0.000000 0.791737 0.610862
vn -0.000000 0.791737 0.610862
vn -0.000000 0.791737 0.610862
vn 0.529022 0.791737 0.305431
vn 0.529022 0.791737 0.305431
vn 0.529022 0.791737 0.305431
vn 0.529022 0.791737 0.305431
vn 0.529022 0.791737 -0.305431
vn 0.529022 0.791737 -0.305431
vn 0.529022 0.791737 -0.305431
vn 0.529022 0.791737 -0.305431
vn 0.000000 0.974622 -0.223855
vn 0.000000 0.974622 -0.223855
vn 0.000000 0.974622 -0.223855
vn -0.193864 0.974622 -0.111928
vn -0.193864 0.974622 -0.111928
vn -0.193864 0.974622 -0.111928
vn -0.193864 0.974622 0.111928
vn -0.193864 0.974622 0.111928
vn -0.193864 0.974622 0.111928
vn 0.000000 0.974622 0.223855
vn 0.000000 0.974622 0.223855
vn 0.000000 0.974622 0.223855
vn 0.193864 0.974622 0.111928
vn 0.193864 0.974622 0.111928
vn 0.193864 0.974622 0.111928
vn 0.193864 0.974622 -0.111928
vn 0.193864 0.974622 -0.111928
vn 0.193864 0.974622 -0.111928
s off
g pSphere17 group4
usemtl lambert9SG
f 1/1/1 2/2/2 8/9/3 7/8/4
f 2/2/5 3/3/6 9/10/7 8/9/8
f 3/3/9 4/4/10 10/11/11 9/10/12
f 4/4/13 5/5/14 11/12/15 10/11/16
f 5/5/17 6/6/18 12/13/19 11/12/20
f 6/6/21 1/7/22 7/14/23 12/13/24
f 7/8/25 8/9/26 14/16/27 13/15/28
f 8/9/29 9/10/30 15/17/31 14/16/32
f 9/10/33 10/11/34 16/18/35 15/17/36
f 10/11/37 11/12/38 17/19/39 16/18/40
f 11/12/41 12/13/42 18/20/43 17/19/44
f 12/13/45 7/14/46 13/21/47 18/20/48
f 13/15/49 14/16/50 20/23/51 19/22/52
f 14/16/53 15/17/54 21/24/55 20/23/56
f 15/17/57 16/18/58 22/25/59 21/24/60
f 16/18/61 17/19/62 23/26/63 22/25/64
f 17/19/65 18/20/66 24/27/67 23/26/68
f 18/20/69 13/21/70 19/28/71 24/27/72
f 19/22/73 20/23/74 25/29/75
f 20/23/76 21/24/77 25/30/78
f 21/24/79 22/25/80 25/31/81
f 22/25/82 23/26/83 25/32/84
f 23/26/85 24/27/86 25/33/87
f 24/27/88 19/28/89 25/34/90
g default
v -69.413834 -0.895962 -139.089630
v 69.413834 -0.895950 -139.089630
v 0.000000 -0.895950 -251.211945
v -69.413834 -0.895962 -230.652405
v -46.208984 -0.895958 -251.211945
v -42.669563 50.207588 -230.435898
v -17.355200 65.422752 -230.219452
v -22.672058 45.541187 -251.211945
v 17.534124 65.422752 -230.435898
v 42.752514 50.049057 -230.219452
v 22.672050 45.541187 -251.211945
v 46.208984 -0.895950 -251.211945
v 69.413834 -0.895950 -230.652405
v -17.713070 65.422752 -139.089630
v -42.586586 50.366123 -139.089630
v 42.586578 50.366127 -139.089630
v 17.713058 65.422752 -139.089630
vt 0.465298 0.688440
vt 0.494244 0.688440
vt 0.490441 0.618779
vt 0.490540 0.312500
vt 0.507224 0.688440
vt 0.510416 0.618053
vt 0.534443 0.688440
vt 0.531358 0.618779
vt 0.531466 0.312500
vt 0.547423 0.688440
vt 0.551326 0.618053
vt 0.583333 0.619505
vt 0.576369 0.688440
vt 0.458333 0.312500
vt 0.458333 0.619505
vt 0.510201 0.312500
vt 0.551126 0.312500
vt 0.583333 0.312500
vt 0.395984 0.841661
vt 0.448965 0.747126
vt 0.500000 0.837500
vt 0.551035 0.747126
vt 0.604016 0.841661
vn -0.634200 0.328477 -0.699924
vn -0.634200 0.328477 -0.699924
vn -0.614858 0.379947 -0.691079
vn -0.400842 0.550917 -0.731995
vn -0.516484 0.856295 -0.001522
vn -0.516484 0.856295 -0.001522
vn -0.516484 0.856295 -0.001522
vn -0.516485 0.856295 -0.001522
vn -0.070286 0.731404 -0.678312
vn 0.069558 0.730974 -0.678851
vn 0.400495 0.552270 -0.731165
vn 0.519199 0.854652 -0.001522
vn 0.519199 0.854652 -0.001522
vn 0.519199 0.854652 -0.001522
vn 0.519199 0.854652 -0.001522
vn 0.617203 0.380172 -0.688861
vn 0.635418 0.330646 -0.697794
vn 0.635418 0.330646 -0.697794
vn -0.886004 0.463677 0.000000
vn -0.886004 0.463677 0.000000
vn -0.886004 0.463677 0.000000
vn -0.886004 0.463677 0.000000
vn 0.000000 1.000000 0.000000
vn 0.000000 1.000000 0.000000
vn 0.000000 1.000000 0.000000
vn 0.000000 1.000000 0.000000
vn 0.886004 0.463677 0.000000
vn 0.886004 0.463677 0.000000
vn 0.886004 0.463677 0.000000
vn 0.886004 0.463677 0.000000
vn 0.000000 0.000000 -1.000000
vn 0.000000 0.000000 -1.000000
vn 0.000000 0.000000 -1.000000
vn 0.000000 0.000000 -1.000000
vn 0.000000 0.000000 -1.000000
s 1
g group4 pCylinder24
usemtl lambert9SG
f 30/35/91 29/49/92 31/37/93 33/36/94
s off
f 32/40/95 31/37/96 40/38/97 39/50/98
s 1
f 33/39/94 32/40/99 34/42/100 36/41/101
s off
f 35/45/102 34/42/103 42/43/104 41/51/105
s 1
f 36/44/101 35/45/106 38/46/107 37/47/108
s off
f 26/48/109 40/38/110 31/37/111 29/49/112
f 32/40/113 39/50/114 42/43/115 34/42/116
f 35/45/117 41/51/118 27/52/119 38/46/120
s 2
f 30/53/121 33/54/122 28/55/123
f 33/54/122 36/56/124 28/55/123
f 36/56/124 37/57/125 28/55/123
s 1
f 31/37/93 32/40/99 33/36/94
f 34/42/100 35/45/106 36/41/101
