# This file uses centimeters as units for non-parametric coordinates.

mtllib placement_bush.mtl
g default
v 43.525463 -8.676720 -19.771639
v 25.129436 -8.676720 -34.245483
v 0.000000 -8.676720 -39.543278
v -25.129436 -8.676720 -34.245483
v -43.525463 -8.676720 -19.771639
v -50.258873 -8.676720 0.000000
v -43.525463 -8.676720 19.771639
v -25.129436 -8.676720 34.245483
v 0.000000 -8.676720 39.543278
v 25.129436 -8.676720 34.245483
v 43.525463 -8.676720 19.771639
v 50.258873 -8.676720 0.000000
v 78.430168 -1.212067 -35.627262
v 45.281681 -1.212067 -61.708229
v 0.000000 -1.212067 -71.254524
v -45.281681 -1.212067 -61.708229
v -78.430168 -1.212067 -35.627262
v -90.563362 -1.212067 0.000000
v -78.430168 -1.212067 35.627262
v -45.281681 -1.212067 61.708229
v 0.000000 -1.212067 71.254524
v 45.281681 -1.212067 61.708229
v 78.430168 -1.212067 35.627262
v 90.563362 -1.212067 0.000000
v 92.808235 19.919796 -42.158562
v 53.582859 19.919796 -73.020767
v 0.000000 19.919796 -84.317123
v -53.582859 19.919796 -73.020767
v -92.808235 19.919796 -42.158562
v -107.165718 19.919796 0.000000
v -92.808235 19.919796 42.158562
v -53.582859 19.919796 73.020767
v 0.000000 19.919796 84.317123
v 53.582859 19.919796 73.020767
v 92.808235 19.919796 42.158562
v 107.165718 19.919796 0.000000
v 94.720055 43.374378 -43.027016
v 54.686649 43.374378 -74.524979
v 0.000000 43.374378 -86.054031
v -54.686649 43.374378 -74.524979
v -94.720055 43.374378 -43.027016
v -109.373299 43.374378 0.000000
v -94.720055 43.374378 43.027016
v -54.686649 43.374378 74.524979
v 0.000000 43.374378 86.054031
v 54.686649 43.374378 74.524979
v 94.720055 43.374378 43.027016
v 109.373299 43.374378 0.000000
v 73.701622 70.621552 -33.479298
v 42.551651 70.621552 -57.987846
v 0.000000 70.621552 -66.958595
v -42.551651 70.621552 -57.987846
v -73.701622 70.621552 -33.479298
v -85.103302 70.621552 0.000000
v -73.701622 70.621552 33.479298
v -42.551651 70.621552 57.987846
v 0.000000 70.621552 66.958595
v 42.551651 70.621552 57.987846
v 73.701622 70.621552 33.479298
v 85.103302 70.621552 0.000000
v 43.525463 86.258347 -19.771639
v 25.129436 86.258347 -34.245483
v 0.000000 86.258347 -39.543278
v -25.129436 86.258347 -34.245483
v -43.525463 86.258347 -19.771639
v -50.258873 86.258347 0.000000
v -43.525463 86.258347 19.771639
v -25.129436 86.258347 34.245483
v 0.000000 86.258347 39.543278
v 25.129436 86.258347 34.245483
v 43.525463 86.258347 19.771639
v 50.258873 86.258347 0.000000
v 0.000000 89.398750 0.000000
vt 0.000000 0.142857
vt 0.083333 0.142857
vt 0.166667 0.142857
vt 0.250000 0.142857
vt 0.333333 0.142857
vt 0.416667 0.142857
vt 0.500000 0.142857
vt 0.583333 0.142857
vt 0.666667 0.142857
vt 0.750000 0.142857
vt 0.833333 0.142857
vt 0.916667 0.142857
vt 1.000000 0.142857
vt 0.000000 0.285714
vt 0.083333 0.285714
vt 0.166667 0.285714
vt 0.250000 0.285714
vt 0.333333 0.285714
vt 0.416667 0.285714
vt 0.500000 0.285714
vt 0.583333 0.285714
vt 0.666667 0.285714
vt 0.750000 0.285714
vt 0.833333 0.285714
vt 0.916667 0.285714
vt 1.000000 0.285714
vt 0.000000 0.428571
vt 0.083333 0.428571
vt 0.166667 0.428571
vt 0.250000 0.428571
vt 0.333333 0.428571
vt 0.416667 0.428571
vt 0.500000 0.428571
vt 0.583333 0.428571
vt 0.666667 0.428571
vt 0.750000 0.428571
vt 0.833333 0.428571
vt 0.916667 0.428571
vt 1.000000 0.428571
vt 0.000000 0.571429
vt 0.083333 0.571429
vt 0.166667 0.571429
vt 0.250000 0.571429
vt 0.333333 0.571429
vt 0.416667 0.571429
vt 0.500000 0.571429
vt 0.583333 0.571429
vt 0.666667 0.571429
vt 0.750000 0.571429
vt 0.833333 0.571429
vt 0.916667 0.571429
vt 1.000000 0.571429
vt 0.000000 0.714286
vt 0.083333 0.714286
vt 0.166667 0.714286
vt 0.250000 0.714286
vt 0.333333 0.714286
vt 0.416667 0.714286
vt 0.500000 0.714286
vt 0.583333 0.714286
vt 0.666667 0.714286
vt 0.750000 0.714286
vt 0.833333 0.714286
vt 0.916667 0.714286
vt 1.000000 0.714286
vt 0.000000 0.857143
vt 0.083333 0.857143
vt 0.166667 0.857143
vt 0.250000 0.857143
vt 0.333333 0.857143
vt 0.416667 0.857143
vt 0.500000 0.857143
vt 0.583333 0.857143
vt 0.666667 0.857143
vt 0.750000 0.857143
vt 0.833333 0.857143
vt 0.916667 0.857143
vt 1.000000 0.857143
vt 0.041667 1.000000
vt 0.125000 1.000000
vt 0.208333 1.000000
vt 0.291667 1.000000
vt 0.375000 1.000000
vt 0.458333 1.000000
vt 0.541667 1.000000
vt 0.625000 1.000000
vt 0.708333 1.000000
vt 0.791667 1.000000
vt 0.875000 1.000000
vt 0.958333 1.000000
vn 0.132434 -0.976795 -0.168322
vn 0.132434 -0.976795 -0.168322
vn 0.132434 -0.976795 -0.168322
vn 0.132434 -0.976795 -0.168322
vn 0.048249 -0.972262 -0.228865
vn 0.048249 -0.972262 -0.228865
vn 0.048249 -0.972262 -0.228865
vn 0.048249 -0.972262 -0.228865
vn -0.048249 -0.972262 -0.228865
vn -0.048249 -0.972262 -0.228865
vn -0.048249 -0.972262 -0.228865
vn -0.048249 -0.972262 -0.228865
vn -0.132434 -0.976795 -0.168322
vn -0.132434 -0.976795 -0.168322
vn -0.132434 -0.976795 -0.168322
vn -0.132434 -0.976795 -0.168322
vn -0.181760 -0.981393 -0.061900
vn -0.181760 -0.981393 -0.061900
vn -0.181760 -0.981393 -0.061900
vn -0.181760 -0.981393 -0.061900
vn -0.181760 -0.981393 0.061900
vn -0.181760 -0.981393 0.061900
vn -0.181760 -0.981393 0.061900
vn -0.181760 -0.981393 0.061900
vn -0.132434 -0.976795 0.168322
vn -0.132434 -0.976795 0.168322
vn -0.132434 -0.976795 0.168322
vn -0.132434 -0.976795 0.168322
vn -0.048249 -0.972262 0.228865
vn -0.048249 -0.972262 0.228865
vn -0.048249 -0.972262 0.228865
vn -0.048249 -0.972262 0.228865
vn 0.048249 -0.972262 0.228865
vn 0.048249 -0.972262 0.228865
vn 0.048249 -0.972262 0.228865
vn 0.048249 -0.972262 0.228865
vn 0.132434 -0.976795 0.168322
vn 0.132434 -0.976795 0.168322
vn 0.132434 -0.976795 0.168322
vn 0.132434 -0.976795 0.168322
vn 0.181760 -0.981393 0.061900
vn 0.181760 -0.981393 0.061900
vn 0.181760 -0.981393 0.061900
vn 0.181760 -0.981393 0.061900
vn 0.181760 -0.981393 -0.061900
vn 0.181760 -0.981393 -0.061900
vn 0.181760 -0.981393 -0.061900
vn 0.181760 -0.981393 -0.061900
vn 0.515217 -0.552943 -0.654832
vn 0.515217 -0.552943 -0.654832
vn 0.515217 -0.552943 -0.654832
vn 0.515217 -0.552943 -0.654832
vn 0.176510 -0.517545 -0.837252
vn 0.176510 -0.517545 -0.837252
vn 0.176510 -0.517545 -0.837252
vn 0.176510 -0.517545 -0.837252
vn -0.176510 -0.517545 -0.837252
vn -0.176510 -0.517545 -0.837252
vn -0.176510 -0.517545 -0.837252
vn -0.176510 -0.517545 -0.837252
vn -0.515217 -0.552943 -0.654832
vn -0.515217 -0.552943 -0.654832
vn -0.515217 -0.552943 -0.654832
vn -0.515217 -0.552943 -0.654832
vn -0.759576 -0.596765 -0.258681
vn -0.759576 -0.596765 -0.258681
vn -0.759576 -0.596765 -0.258681
vn -0.759576 -0.596765 -0.258681
vn -0.759576 -0.596765 0.258681
vn -0.759576 -0.596765 0.258681
vn -0.759576 -0.596765 0.258681
vn -0.759576 -0.596765 0.258681
vn -0.515217 -0.552943 0.654832
vn -0.515217 -0.552943 0.654832
vn -0.515217 -0.552943 0.654832
vn -0.515217 -0.552943 0.654832
vn -0.176510 -0.517545 0.837252
vn -0.176510 -0.517545 0.837252
vn -0.176510 -0.517545 0.837252
vn -0.176510 -0.517545 0.837252
vn 0.176510 -0.517545 0.837252
vn 0.176510 -0.517545 0.837252
vn 0.176510 -0.517545 0.837252
vn 0.176510 -0.517545 0.837252
vn 0.515217 -0.552943 0.654832
vn 0.515217 -0.552943 0.654832
vn 0.515217 -0.552943 0.654832
vn 0.515217 -0.552943 0.654832
vn 0.759576 -0.596765 0.258681
vn 0.759576 -0.596765 0.258681
vn 0.759576 -0.596765 0.258681
vn 0.759576 -0.596765 0.258681
vn 0.759576 -0.596765 -0.258681
vn 0.759576 -0.596765 -0.258681
vn 0.759576 -0.596765 -0.258681
vn 0.759576 -0.596765 -0.258681
vn 0.616400 -0.079252 -0.783435
vn 0.616400 -0.079252 -0.783435
vn 0.616400 -0.079252 -0.783435
vn 0.616400 -0.079252 -0.783435
vn 0.205747 -0.072272 -0.975933
vn 0.205747 -0.072272 -0.975933
vn 0.205747 -0.072272 -0.975933
vn 0.205747 -0.072272 -0.975933
vn -0.205747 -0.072272 -0.975933
vn -0.205747 -0.072272 -0.975933
vn -0.205747 -0.072272 -0.975933
vn -0.205747 -0.072272 -0.975933
vn -0.616400 -0.079252 -0.783435
vn -0.616400 -0.079252 -0.783435
vn -0.616400 -0.079252 -0.783435
vn -0.616400 -0.079252 -0.783435
vn -0.942876 -0.088745 -0.321105
vn -0.942876 -0.088745 -0.321105
vn -0.942876 -0.088745 -0.321105
vn -0.942876 -0.088745 -0.321105
vn -0.942876 -0.088745 0.321105
vn -0.942876 -0.088745 0.321105
vn -0.942876 -0.088745 0.321105
vn -0.942876 -0.088745 0.321105
vn -0.616400 -0.079252 0.783435
vn -0.616400 -0.079252 0.783435
vn -0.616400 -0.079252 0.783435
vn -0.616400 -0.079252 0.783435
vn -0.205747 -0.072272 0.975933
vn -0.205747 -0.072272 0.975933
vn -0.205747 -0.072272 0.975933
vn -0.205747 -0.072272 0.975933
vn 0.205747 -0.072272 0.975933
vn 0.205747 -0.072272 0.975933
vn 0.205747 -0.072272 0.975933
vn 0.205747 -0.072272 0.975933
vn 0.616400 -0.079252 0.783435
vn 0.616400 -0.079252 0.783435
vn 0.616400 -0.079252 0.783435
vn 0.616400 -0.079252 0.783435
vn 0.942876 -0.088745 0.321105
vn 0.942876 -0.088745 0.321105
vn 0.942876 -0.088745 0.321105
vn 0.942876 -0.088745 0.321105
vn 0.942876 -0.088745 -0.321105
vn 0.942876 -0.088745 -0.321105
vn 0.942876 -0.088745 -0.321105
vn 0.942876 -0.088745 -0.321105
vn 0.494111 0.601217 -0.628007
vn 0.494111 0.601217 -0.628007
vn 0.494111 0.601217 -0.628007
vn 0.494111 0.601217 -0.628007
vn 0.170127 0.565548 -0.806977
vn 0.170127 0.565548 -0.806977
vn 0.170127 0.565548 -0.806977
vn 0.170127 0.565548 -0.806977
vn -0.170127 0.565548 -0.806977
vn -0.170127 0.565548 -0.806977
vn -0.170127 0.565548 -0.806977
vn -0.170127 0.565548 -0.806977
vn -0.494111 0.601217 -0.628007
vn -0.494111 0.601217 -0.628007
vn -0.494111 0.601217 -0.628007
vn -0.494111 0.601217 -0.628007
vn -0.723691 0.644616 -0.246459
vn -0.723691 0.644616 -0.246459
vn -0.723691 0.644616 -0.246459
vn -0.723691 0.644616 -0.246459
vn -0.723691 0.644616 0.246459
vn -0.723691 0.644616 0.246459
vn -0.723691 0.644616 0.246459
vn -0.723691 0.644616 0.246459
vn -0.494111 0.601217 0.628007
vn -0.494111 0.601217 0.628007
vn -0.494111 0.601217 0.628007
vn -0.494111 0.601217 0.628007
vn -0.170127 0.565548 0.806977
vn -0.170127 0.565548 0.806977
vn -0.170127 0.565548 0.806977
vn -0.170127 0.565548 0.806977
vn 0.170127 0.565548 0.806977
vn 0.170127 0.565548 0.806977
vn 0.170127 0.565548 0.806977
vn 0.170127 0.565548 0.806977
vn 0.494111 0.601217 0.628007
vn 0.494111 0.601217 0.628007
vn 0.494111 0.601217 0.628007
vn 0.494111 0.601217 0.628007
vn 0.723691 0.644616 0.246459
vn 0.723691 0.644616 0.246459
vn 0.723691 0.644616 0.246459
vn 0.723691 0.644616 0.246459
vn 0.723691 0.644616 -0.246459
vn 0.723691 0.644616 -0.246459
vn 0.723691 0.644616 -0.246459
vn 0.723691 0.644616 -0.246459
vn 0.290113 0.883104 -0.368729
vn 0.290113 0.883104 -0.368729
vn 0.290113 0.883104 -0.368729
vn 0.290113 0.883104 -0.368729
vn 0.103884 0.863940 -0.492763
vn 0.103884 0.863940 -0.492763
vn 0.103884 0.863940 -0.492763
vn 0.103884 0.863940 -0.492763
vn -0.103884 0.863940 -0.492763
vn -0.103884 0.863940 -0.492763
vn -0.103884 0.863940 -0.492763
vn -0.103884 0.863940 -0.492763
vn -0.290113 0.883104 -0.368729
vn -0.290113 0.883104 -0.368729
vn -0.290113 0.883104 -0.368729
vn -0.290113 0.883104 -0.368729
vn -0.405501 0.903603 -0.138097
vn -0.405501 0.903603 -0.138097
vn -0.405501 0.903603 -0.138097
vn -0.405501 0.903603 -0.138097
vn -0.405501 0.903603 0.138097
vn -0.405501 0.903603 0.138097
vn -0.405501 0.903603 0.138097
vn -0.405501 0.903603 0.138097
vn -0.290113 0.883104 0.368729
vn -0.290113 0.883104 0.368729
vn -0.290113 0.883104 0.368729
vn -0.290113 0.883104 0.368729
vn -0.103884 0.863940 0.492763
vn -0.103884 0.863940 0.492763
vn -0.103884 0.863940 0.492763
vn -0.103884 0.863940 0.492763
vn 0.103884 0.863940 0.492763
vn 0.103884 0.863940 0.492763
vn 0.103884 0.863940 0.492763
vn 0.103884 0.863940 0.492763
vn 0.290113 0.883104 0.368729
vn 0.290113 0.883104 0.368729
vn 0.290113 0.883104 0.368729
vn 0.290113 0.883104 0.368729
vn 0.405501 0.903603 0.138097
vn 0.405501 0.903603 0.138097
vn 0.405501 0.903603 0.138097
vn 0.405501 0.903603 0.138097
vn 0.405501 0.903603 -0.138097
vn 0.405501 0.903603 -0.138097
vn 0.405501 0.903603 -0.138097
vn 0.405501 0.903603 -0.138097
vn 0.045617 0.997275 -0.057979
vn 0.045617 0.997275 -0.057979
vn 0.045617 0.997275 -0.057979
vn 0.016688 0.996723 -0.079157
vn 0.016688 0.996723 -0.079157
vn 0.016688 0.996723 -0.079157
vn -0.016688 0.996723 -0.079157
vn -0.016688 0.996723 -0.079157
vn -0.016688 0.996723 -0.079157
vn -0.045617 0.997275 -0.057979
vn -0.045617 0.997275 -0.057979
vn -0.045617 0.997275 -0.057979
vn -0.062349 0.997829 -0.021234
vn -0.062349 0.997829 -0.021234
vn -0.062349 0.997829 -0.021234
vn -0.062349 0.997829 0.021233
vn -0.062349 0.997829 0.021233
vn -0.062349 0.997829 0.021233
vn -0.045617 0.997275 0.057979
vn -0.045617 0.997275 0.057979
vn -0.045617 0.997275 0.057979
vn -0.016688 0.996723 0.079157
vn -0.016688 0.996723 0.079157
vn -0.016688 0.996723 0.079157
vn 0.016688 0.996723 0.079157
vn 0.016688 0.996723 0.079157
vn 0.016688 0.996723 0.079157
vn 0.045617 0.997275 0.057979
vn 0.045617 0.997275 0.057979
vn 0.045617 0.997275 0.057979
vn 0.062349 0.997829 0.021234
vn 0.062349 0.997829 0.021234
vn 0.062349 0.997829 0.021234
vn 0.062349 0.997829 -0.021233
vn 0.062349 0.997829 -0.021233
vn 0.062349 0.997829 -0.021233
s off
g bush
usemtl lambert2SG
f 1/1/1 2/2/2 14/15/3 13/14/4
f 2/2/5 3/3/6 15/16/7 14/15/8
f 3/3/9 4/4/10 16/17/11 15/16/12
f 4/4/13 5/5/14 17/18/15 16/17/16
f 5/5/17 6/6/18 18/19/19 17/18/20
f 6/6/21 7/7/22 19/20/23 18/19/24
f 7/7/25 8/8/26 20/21/27 19/20/28
f 8/8/29 9/9/30 21/22/31 20/21/32
f 9/9/33 10/10/34 22/23/35 21/22/36
f 10/10/37 11/11/38 23/24/39 22/23/40
f 11/11/41 12/12/42 24/25/43 23/24/44
f 12/12/45 1/13/46 13/26/47 24/25/48
f 13/14/49 14/15/50 26/28/51 25/27/52
f 14/15/53 15/16/54 27/29/55 26/28/56
f 15/16/57 16/17/58 28/30/59 27/29/60
f 16/17/61 17/18/62 29/31/63 28/30/64
f 17/18/65 18/19/66 30/32/67 29/31/68
f 18/19/69 19/20/70 31/33/71 30/32/72
f 19/20/73 20/21/74 32/34/75 31/33/76
f 20/21/77 21/22/78 33/35/79 32/34/80
f 21/22/81 22/23/82 34/36/83 33/35/84
f 22/23/85 23/24/86 35/37/87 34/36/88
f 23/24/89 24/25/90 36/38/91 35/37/92
f 24/25/93 13/26/94 25/39/95 36/38/96
f 25/27/97 26/28/98 38/41/99 37/40/100
f 26/28/101 27/29/102 39/42/103 38/41/104
f 27/29/105 28/30/106 40/43/107 39/42/108
f 28/30/109 29/31/110 41/44/111 40/43/112
f 29/31/113 30/32/114 42/45/115 41/44/116
f 30/32/117 31/33/118 43/46/119 42/45/120
f 31/33/121 32/34/122 44/47/123 43/46/124
f 32/34/125 33/35/126 45/48/127 44/47/128
f 33/35/129 34/36/130 46/49/131 45/48/132
f 34/36/133 35/37/134 47/50/135 46/49/136
f 35/37/137 36/38/138 48/51/139 47/50/140
f 36/38/141 25/39/142 37/52/143 48/51/144
f 37/40/145 38/41/146 50/54/147 49/53/148
f 38/41/149 39/42/150 51/55/151 50/54/152
f 39/42/153 40/43/154 52/56/155 51/55/156
f 40/43/157 41/44/158 53/57/159 52/56/160
f 41/44/161 42/45/162 54/58/163 53/57/164
f 42/45/165 43/46/166 55/59/167 54/58/168
f 43/46/169 44/47/170 56/60/171 55/59/172
f 44/47/173 45/48/174 57/61/175 56/60/176
f 45/48/177 46/49/178 58/62/179 57/61/180
f 46/49/181 47/50/182 59/63/183 58/62/184
f 47/50/185 48/51/186 60/64/187 59/63/188
f 48/51/189 37/52/190 49/65/191 60/64/192
f 49/53/193 50/54/194 62/67/195 61/66/196
f 50/54/197 51/55/198 63/68/199 62/67/200
f 51/55/201 52/56/202 64/69/203 63/68/204
f 52/56/205 53/57/206 65/70/207 64/69/208
f 53/57/209 54/58/210 66/71/211 65/70/212
f 54/58/213 55/59/214 67/72/215 66/71/216
f 55/59/217 56/60/218 68/73/219 67/72/220
f 56/60/221 57/61/222 69/74/223 68/73/224
f 57/61/225 58/62/226 70/75/227 69/74/228
f 58/62/229 59/63/230 71/76/231 70/75/232
f 59/63/233 60/64/234 72/77/235 71/76/236
f 60/64/237 49/65/238 61/78/239 72/77/240
f 61/66/241 62/67/242 73/79/243
f 62/67/244 63/68/245 73/80/246
f 63/68/247 64/69/248 73/81/249
f 64/69/250 65/70/251 73/82/252
f 65/70/253 66/71/254 73/83/255
f 66/71/256 67/72/257 73/84/258
f 67/72/259 68/73/260 73/85/261
f 68/73/262 69/74/263 73/86/264
f 69/74/265 70/75/266 73/87/267
f 70/75/268 71/76/269 73/88/270
f 71/76/271 72/77/272 73/89/273
f 72/77/274 61/78/275 73/90/276
