# This file uses centimeters as units for non-parametric coordinates.

mtllib placement_tent.mtl
g default
v -146.156204 -0.969616 149.800659
v -103.348045 114.327995 149.800659
v 0.000000 162.085831 149.800659
v 103.348053 114.328003 149.800659
v 146.156219 -0.969616 149.800659
v -146.156204 -0.969616 -149.800659
v -103.348045 114.327995 -149.800659
v 0.000000 162.085831 -149.800659
v 103.348053 114.328003 -149.800659
v 146.156219 -0.969616 -149.800659
v 0.000000 -0.969616 149.800659
v 0.000000 -0.969616 -149.800659
vt 0.343750 0.156250
vt 0.389515 0.266735
vt 0.500000 0.312500
vt 0.610485 0.266735
vt 0.656250 0.156250
vt 0.468750 0.312500
vt 0.500000 0.312500
vt 0.531250 0.312500
vt 0.562500 0.312500
vt 0.593750 0.312500
vt 0.468750 0.688440
vt 0.500000 0.688440
vt 0.531250 0.688440
vt 0.562500 0.688440
vt 0.593750 0.688440
vt 0.610485 0.733265
vt 0.500000 0.687500
vt 0.389515 0.733265
vt 0.343750 0.843750
vt 0.656250 0.843750
vt 0.500000 0.150000
vt 0.500000 0.837500
vn -0.937470 0.348067 0.000000
vn -0.937470 0.348067 0.000000
vn -0.937470 0.348067 0.000000
vn -0.937470 0.348067 0.000000
vn -0.419483 0.907763 0.000000
vn -0.419483 0.907763 0.000000
vn -0.419483 0.907763 0.000000
vn -0.419483 0.907763 0.000000
vn 0.419483 0.907763 0.000000
vn 0.419483 0.907763 0.000000
vn 0.419483 0.907763 0.000000
vn 0.419483 0.907763 0.000000
vn 0.937469 0.348068 0.000000
vn 0.937469 0.348068 0.000000
vn 0.937469 0.348068 0.000000
vn 0.937469 0.348068 0.000000
vn -0.000000 0.000000 1.000000
vn 0.000000 0.000000 1.000000
vn -0.000000 0.000000 1.000000
vn 0.000000 0.000000 1.000000
vn 0.000000 0.000000 1.000000
vn 0.000000 0.000000 1.000000
vn 0.000000 0.000000 -1.000000
vn -0.000000 0.000000 -1.000000
vn -0.000000 0.000000 -1.000000
vn 0.000000 0.000000 -1.000000
vn 0.000000 0.000000 -1.000000
vn 0.000000 0.000000 -1.000000
s off
g pCylinder22
usemtl lambert15SG
f 1/6/1 2/7/2 7/12/3 6/11/4
f 2/7/5 3/8/6 8/13/7 7/12/8
f 3/8/9 4/9/10 9/14/11 8/13/12
f 4/9/13 5/10/14 10/15/15 9/14/16
s 1
f 2/2/17 1/1/18 11/21/19
f 3/3/20 2/2/17 11/21/19
f 4/4/21 3/3/20 11/21/19
f 5/5/22 4/4/21 11/21/19
s 2
f 6/19/23 7/18/24 12/22/25
f 7/18/24 8/17/26 12/22/25
f 8/17/26 9/16/27 12/22/25
f 9/16/27 10/20/28 12/22/25
