# This file uses centimeters as units for non-parametric coordinates.

mtllib placement_snowman.mtl
g default
v 34.862182 64.902581 -2.783747
v 35.521716 63.732766 5.168604
v 40.281768 58.217698 -0.127025
v 76.829123 99.569609 -1.164691
v 77.488652 98.399772 6.787661
v 82.248707 92.884721 1.492031
v 36.888557 62.284350 0.752611
v 78.855496 96.951367 2.371667
vt 0.421875 0.020934
vt 0.421875 0.291566
vt 0.656250 0.156250
vt 0.375000 0.312500
vt 0.458333 0.312500
vt 0.541667 0.312500
vt 0.625000 0.312500
vt 0.375000 0.688440
vt 0.458333 0.688440
vt 0.541667 0.688440
vt 0.625000 0.688440
vt 0.421875 0.708434
vt 0.421875 0.979066
vt 0.656250 0.843750
vt 0.500000 0.150000
vt 0.500000 0.837500
vn -0.632011 0.757443 0.163839
vn -0.632011 0.757443 0.163839
vn -0.632011 0.757443 0.163839
vn -0.632011 0.757443 0.163839
vn 0.356092 -0.468827 0.808332
vn 0.356092 -0.468827 0.808332
vn 0.356092 -0.468827 0.808332
vn 0.356092 -0.468827 0.808332
vn 0.209845 -0.209429 -0.955042
vn 0.209845 -0.209429 -0.955042
vn 0.209845 -0.209429 -0.955042
vn 0.209845 -0.209429 -0.955042
vn -0.770633 -0.636585 -0.029732
vn -0.770633 -0.636586 -0.029729
vn -0.770633 -0.636585 -0.029731
vn -0.770633 -0.636585 -0.029731
vn 0.770633 0.636585 0.029733
vn 0.770633 0.636585 0.029733
vn 0.770633 0.636585 0.029733
vn 0.770633 0.636586 0.029733
s off
g pCylinder27 group6 group5
usemtl lambert14SG
f 1/4/1 2/5/2 5/9/3 4/8/4
f 2/5/5 3/6/6 6/10/7 5/9/8
f 3/6/9 1/7/10 4/11/11 6/10/12
s 1
f 2/2/13 1/1/14 7/15/15
f 3/3/16 2/2/13 7/15/15
f 1/1/14 3/3/16 7/15/15
s 2
f 4/13/17 5/12/18 8/16/19
f 5/12/18 6/14/20 8/16/19
f 6/14/20 4/13/17 8/16/19
g default
v -35.530408 64.096082 -2.684459
v -42.173695 59.523320 -2.684460
v -38.852052 61.809701 5.368919
v -66.407489 108.954204 -2.684459
v -73.050776 104.381463 -2.684460
v -69.729135 106.667833 5.368919
v -38.852052 61.809701 0.000000
v -69.729135 106.667833 0.000000
vt 0.421875 0.020934
vt 0.421875 0.291566
vt 0.656250 0.156250
vt 0.375000 0.312500
vt 0.458333 0.312500
vt 0.541667 0.312500
vt 0.625000 0.312500
vt 0.375000 0.688440
vt 0.458333 0.688440
vt 0.541667 0.688440
vt 0.625000 0.688440
vt 0.421875 0.708434
vt 0.421875 0.979066
vt 0.656250 0.843750
vt 0.500000 0.150000
vt 0.500000 0.837500
vn 0.000000 0.000000 -1.000000
vn 0.000000 0.000000 -1.000000
vn 0.000000 0.000000 -1.000000
vn 0.000000 0.000000 -1.000000
vn -0.736549 -0.506987 0.447727
vn -0.736549 -0.506987 0.447727
vn -0.736549 -0.506987 0.447727
vn -0.736549 -0.506987 0.447727
vn 0.736549 0.506987 0.447727
vn 0.736549 0.506987 0.447727
vn 0.736549 0.506987 0.447727
vn 0.736549 0.506987 0.447727
vn 0.566992 -0.823724 0.000001
vn 0.566992 -0.823723 0.000001
vn 0.566992 -0.823723 0.000000
vn 0.566992 -0.823723 0.000000
vn -0.566990 0.823725 -0.000001
vn -0.566990 0.823725 -0.000001
vn -0.566990 0.823725 -0.000001
vn -0.566990 0.823725 0.000000
s off
g group6 group5 pCylinder26
usemtl lambert14SG
f 9/20/21 10/21/22 13/25/23 12/24/24
f 10/21/25 11/22/26 14/26/27 13/25/28
f 11/22/29 9/23/30 12/27/31 14/26/32
s 1
f 10/18/33 9/17/34 15/31/35
f 11/19/36 10/18/33 15/31/35
f 9/17/34 11/19/36 15/31/35
s 2
f 12/29/37 13/28/38 16/32/39
f 13/28/38 14/30/40 16/32/39
f 14/30/40 12/29/37 16/32/39
g default
v 19.847235 150.880854 -19.847235
v 0.000000 150.880854 -28.068231
v -19.847235 150.880854 -19.847235
v -28.068231 150.880854 0.000000
v -19.847235 150.880854 19.847235
v 0.000000 150.880854 28.068231
v 19.847239 150.880854 19.847239
v 28.068234 150.880854 0.000000
v 19.847235 187.442368 -19.847235
v 0.000000 187.442368 -28.068231
v -19.847235 187.442368 -19.847235
v -28.068231 187.442368 0.000000
v -19.847235 187.442368 19.847235
v 0.000000 187.442368 28.068231
v 19.847239 187.442368 19.847239
v 28.068234 187.442368 0.000000
v 0.000000 187.442368 0.000000
v -17.383828 170.844816 -17.383828
v 0.000000 170.844816 -24.584447
v 17.383828 170.844816 -17.383828
v 24.584450 170.844816 0.000000
v 17.383831 170.844816 17.383831
v 0.000000 170.844816 24.584447
v -17.383828 170.844816 17.383828
v -24.584447 170.844816 0.000000
v 29.835462 147.970463 -29.835462
v -0.000001 147.970463 -42.193731
v -29.835462 147.970463 -29.835462
v -42.193731 147.970463 0.000000
v -29.835462 147.970463 29.835462
v -0.000001 147.970463 42.193731
v 29.835467 147.970463 29.835467
v 42.193731 147.970463 0.000000
v 29.835462 144.909389 -29.835462
v -0.000001 144.909389 -42.193731
v -0.000001 144.909389 0.000000
v -29.835462 144.909389 -29.835462
v -42.193731 144.909389 0.000000
v -29.835462 144.909389 29.835462
v -0.000001 144.909389 42.193731
v 29.835467 144.909389 29.835467
v 42.193731 144.909389 0.000000
vt 0.610485 0.045765
vt 0.500000 0.000000
vt 0.389515 0.045765
vt 0.343750 0.156250
vt 0.389515 0.266735
vt 0.500000 0.312500
vt 0.610485 0.266735
vt 0.656250 0.156250
vt 0.375000 0.312500
vt 0.406250 0.312500
vt 0.437500 0.312500
vt 0.468750 0.312500
vt 0.500000 0.312500
vt 0.531250 0.312500
vt 0.562500 0.312500
vt 0.593750 0.312500
vt 0.625000 0.312500
vt 0.375000 0.688440
vt 0.406250 0.688440
vt 0.437500 0.688440
vt 0.468750 0.688440
vt 0.500000 0.688440
vt 0.531250 0.688440
vt 0.562500 0.688440
vt 0.593750 0.688440
vt 0.625000 0.688440
vt 0.610485 0.733265
vt 0.500000 0.687500
vt 0.389515 0.733265
vt 0.343750 0.843750
vt 0.389515 0.954235
vt 0.500000 1.000000
vt 0.610485 0.954235
vt 0.656250 0.843750
vt 0.500000 0.150000
vt 0.500000 0.837500
vt 0.437500 0.517777
vt 0.406250 0.517777
vt 0.625000 0.517777
vt 0.375000 0.517777
vt 0.593750 0.517777
vt 0.562500 0.517777
vt 0.531250 0.517777
vt 0.500000 0.517777
vt 0.468750 0.517777
vt 0.500000 0.000000
vt 0.610485 0.045765
vt 0.389515 0.045765
vt 0.343750 0.156250
vt 0.389515 0.266735
vt 0.500000 0.312500
vt 0.610485 0.266735
vt 0.656250 0.156250
vt 0.500000 0.000000
vt 0.610485 0.045765
vt 0.389515 0.045765
vt 0.343750 0.156250
vt 0.389515 0.266735
vt 0.500000 0.312500
vt 0.610485 0.266735
vt 0.656250 0.156250
vn 0.377805 0.159165 -0.912102
vn 0.377805 0.159165 -0.912102
vn 0.382683 -0.000689 -0.923879
vn 0.382683 -0.000689 -0.923879
vn -0.377805 0.159165 -0.912102
vn -0.377805 0.159165 -0.912102
vn -0.382683 -0.000689 -0.923879
vn -0.382683 -0.000689 -0.923879
vn -0.912102 0.159165 -0.377805
vn -0.912102 0.159165 -0.377805
vn -0.923879 -0.000689 -0.382683
vn -0.923879 -0.000689 -0.382683
vn -0.912102 0.159165 0.377805
vn -0.912102 0.159165 0.377805
vn -0.923879 -0.000689 0.382683
vn -0.923879 -0.000689 0.382683
vn -0.377805 0.159165 0.912102
vn -0.377805 0.159165 0.912102
vn -0.382683 -0.000689 0.923879
vn -0.382683 -0.000689 0.923879
vn 0.377805 0.159165 0.912102
vn 0.377805 0.159165 0.912102
vn 0.382683 -0.000689 0.923879
vn 0.382683 -0.000689 0.923879
vn 0.912102 0.159165 0.377805
vn 0.912102 0.159165 0.377805
vn 0.923879 -0.000689 0.382683
vn 0.923879 -0.000689 0.382683
vn 0.912102 0.159165 -0.377805
vn 0.912102 0.159165 -0.377805
vn 0.923879 -0.000689 -0.382683
vn 0.923879 -0.000689 -0.382683
vn 0.000000 -1.000000 0.000000
vn 0.000000 -1.000000 0.000000
vn 0.000000 -1.000000 0.000000
vn 0.000000 -1.000000 0.000000
vn 0.000000 -1.000000 0.000000
vn 0.000000 -1.000000 0.000000
vn 0.000000 -1.000000 0.000000
vn 0.000000 -1.000000 0.000000
vn 0.000000 -1.000000 0.000000
vn 0.000000 1.000000 0.000000
vn 0.000000 1.000000 0.000000
vn 0.000000 1.000000 -0.000000
vn 0.000000 1.000000 0.000000
vn 0.000000 1.000000 0.000000
vn 0.000000 1.000000 0.000000
vn 0.000000 1.000000 0.000000
vn 0.000000 1.000000 -0.000000
vn 0.000000 1.000000 -0.000000
vn -0.375685 -0.190373 -0.906983
vn -0.375685 -0.190373 -0.906983
vn 0.375685 -0.190373 -0.906983
vn 0.375685 -0.190373 -0.906983
vn 0.906983 -0.190373 -0.375685
vn 0.906983 -0.190373 -0.375685
vn 0.906983 -0.190373 0.375685
vn 0.906983 -0.190373 0.375685
vn 0.375685 -0.190374 0.906983
vn 0.375685 -0.190374 0.906983
vn -0.375685 -0.190373 0.906983
vn -0.375685 -0.190373 0.906983
vn -0.906983 -0.190373 0.375685
vn -0.906983 -0.190374 0.375685
vn -0.906983 -0.190374 -0.375685
vn -0.906983 -0.190373 -0.375685
vn 0.083298 0.976023 -0.201098
vn 0.083298 0.976023 -0.201098
vn 0.083298 0.976023 -0.201098
vn 0.083298 0.976023 -0.201098
vn -0.083298 0.976023 -0.201097
vn -0.083298 0.976023 -0.201097
vn -0.083298 0.976023 -0.201097
vn -0.083298 0.976023 -0.201097
vn -0.201098 0.976023 -0.083298
vn -0.201098 0.976023 -0.083298
vn -0.201098 0.976023 -0.083298
vn -0.201098 0.976023 -0.083298
vn -0.201098 0.976023 0.083297
vn -0.201098 0.976023 0.083297
vn -0.201098 0.976023 0.083297
vn -0.201098 0.976023 0.083297
vn -0.083298 0.976023 0.201097
vn -0.083298 0.976023 0.201097
vn -0.083298 0.976023 0.201097
vn -0.083298 0.976023 0.201097
vn 0.083298 0.976023 0.201098
vn 0.083298 0.976023 0.201098
vn 0.083298 0.976023 0.201098
vn 0.083298 0.976023 0.201098
vn 0.201098 0.976023 0.083298
vn 0.201098 0.976023 0.083298
vn 0.201098 0.976023 0.083298
vn 0.201098 0.976023 0.083298
vn 0.201098 0.976023 -0.083297
vn 0.201098 0.976023 -0.083297
vn 0.201098 0.976023 -0.083297
vn 0.201098 0.976023 -0.083297
vn 0.382684 0.000000 -0.923879
vn 0.382684 0.000000 -0.923879
vn 0.382684 0.000000 -0.923879
vn 0.382684 0.000000 -0.923879
vn -0.382684 0.000000 -0.923879
vn -0.382684 0.000000 -0.923879
vn -0.382684 0.000000 -0.923879
vn -0.382684 0.000000 -0.923879
vn -0.923879 0.000000 -0.382684
vn -0.923879 0.000000 -0.382684
vn -0.923879 0.000000 -0.382684
vn -0.923879 0.000000 -0.382684
vn -0.923879 0.000000 0.382684
vn -0.923879 0.000000 0.382684
vn -0.923879 0.000000 0.382684
vn -0.923879 0.000000 0.382684
vn -0.382684 0.000000 0.923879
vn -0.382684 0.000000 0.923879
vn -0.382684 0.000000 0.923879
vn -0.382684 0.000000 0.923879
vn 0.382684 0.000000 0.923879
vn 0.382684 0.000000 0.923879
vn 0.382684 0.000000 0.923879
vn 0.382684 0.000000 0.923879
vn 0.923880 0.000000 0.382683
vn 0.923880 0.000000 0.382683
vn 0.923880 0.000000 0.382683
vn 0.923880 0.000000 0.382683
vn 0.923879 0.000000 -0.382684
vn 0.923879 0.000000 -0.382684
vn 0.923879 0.000000 -0.382684
vn 0.923879 0.000000 -0.382684
s 1
g group6 group5 pCylinder25
usemtl lambert16SG
f 17/41/41 18/42/42 35/70/43 36/72/44
s 2
f 18/42/45 19/43/46 34/69/47 35/70/48
s 3
f 19/43/49 20/44/50 41/77/51 34/69/52
s 4
f 20/44/53 21/45/54 40/76/55 41/77/56
s 5
f 21/45/57 22/46/58 39/75/59 40/76/60
s 6
f 22/46/61 23/47/62 38/74/63 39/75/64
s 7
f 23/47/65 24/48/66 37/73/67 38/74/68
s 8
f 24/48/69 17/49/70 36/71/71 37/73/72
s 9
f 51/86/73 50/87/74 52/67/75
f 53/88/76 51/86/73 52/67/75
f 54/89/77 53/88/76 52/67/75
f 55/90/78 54/89/77 52/67/75
f 56/91/79 55/90/78 52/67/75
f 57/92/80 56/91/79 52/67/75
f 58/93/81 57/92/80 52/67/75
f 50/87/74 58/93/81 52/67/75
s 10
f 25/65/82 26/64/83 33/68/84
f 26/64/83 27/63/85 33/68/84
f 27/63/85 28/62/86 33/68/84
f 28/62/86 29/61/87 33/68/84
f 29/61/87 30/60/88 33/68/84
f 30/60/88 31/59/89 33/68/84
f 31/59/89 32/66/90 33/68/84
f 32/66/90 25/65/82 33/68/84
s 2
f 35/70/48 34/69/47 27/52/91 26/51/92
s 1
f 36/72/44 35/70/43 26/51/93 25/50/94
s 8
f 37/73/72 36/71/71 25/58/95 32/57/96
s 7
f 38/74/68 37/73/67 32/57/97 31/56/98
s 6
f 39/75/64 38/74/63 31/56/99 30/55/100
s 5
f 40/76/60 39/75/59 30/55/101 29/54/102
s 4
f 41/77/56 40/76/55 29/54/103 28/53/104
s 3
f 34/69/52 41/77/51 28/53/105 27/52/106
s off
f 18/34/107 17/33/108 42/79/109 43/78/110
f 19/35/111 18/34/112 43/78/113 44/80/114
f 20/36/115 19/35/116 44/80/117 45/81/118
f 21/37/119 20/36/120 45/81/121 46/82/122
f 22/38/123 21/37/124 46/82/125 47/83/126
f 23/39/127 22/38/128 47/83/129 48/84/130
f 24/40/131 23/39/132 48/84/133 49/85/134
f 17/33/135 24/40/136 49/85/137 42/79/138
f 43/78/139 42/79/140 50/87/141 51/86/142
f 44/80/143 43/78/144 51/86/145 53/88/146
f 45/81/147 44/80/148 53/88/149 54/89/150
f 46/82/151 45/81/152 54/89/153 55/90/154
f 47/83/155 46/82/156 55/90/157 56/91/158
f 48/84/159 47/83/160 56/91/161 57/92/162
f 49/85/163 48/84/164 57/92/165 58/93/166
f 42/79/167 49/85/168 58/93/169 50/87/170
g default
v 16.918321 87.338033 -21.214897
v -6.038076 87.338033 -26.454546
v -24.447677 87.338033 -11.773382
v -24.447677 87.338033 11.773379
v -6.038078 87.338033 26.454546
v 16.918318 87.338033 21.214900
v 27.134876 87.338033 0.000000
v 23.472062 108.897844 -29.433030
v -8.377078 108.897844 -36.702391
v -33.918105 108.897844 -16.334103
v -33.918107 108.897844 16.334099
v -8.377081 108.897844 36.702391
v 23.472059 108.897844 29.433032
v 37.646260 108.897844 0.000000
v 23.472062 133.361869 -29.433030
v -8.377078 133.361869 -36.702391
v -33.918105 133.361869 -16.334103
v -33.918107 133.361869 16.334099
v -8.377081 133.361869 36.702391
v 23.472059 133.361869 29.433032
v 37.646260 133.361869 0.000000
v 14.506532 153.153675 -18.190611
v -5.177319 153.153675 -22.683322
v -20.962542 153.153675 -10.095030
v -20.962542 153.153675 10.095027
v -5.177321 153.153675 22.683322
v 14.506531 153.153675 18.190614
v 23.266667 153.153675 0.000000
v 0.000000 88.504620 0.000000
v 19.330108 0.225861 -24.239184
v -6.898833 0.225861 -30.225769
v -27.932811 0.225861 -13.451734
v -27.932811 0.225861 13.451731
v -6.898835 0.225861 30.225769
v 19.330107 0.225861 24.239187
v 31.003082 0.225861 0.000000
v 31.276773 26.598658 -39.219825
v -11.162546 26.598658 -48.906325
v -45.196235 26.598658 -21.765365
v -45.196241 26.598658 21.765361
v -11.162550 26.598658 48.906325
v 31.276770 26.598658 39.219830
v 50.164045 26.598658 0.000000
v 31.276773 59.197227 -39.219825
v -11.162546 59.197227 -48.906325
v -45.196235 59.197227 -21.765365
v -45.196241 59.197227 21.765361
v -11.162550 59.197227 48.906325
v 31.276770 59.197227 39.219830
v 50.164045 59.197227 0.000000
v 0.000000 -0.575528 0.000000
vt 0.000000 0.200000
vt 0.142857 0.200000
vt 0.285714 0.200000
vt 0.428571 0.200000
vt 0.571429 0.200000
vt 0.714286 0.200000
vt 0.857143 0.200000
vt 1.000000 0.200000
vt 0.000000 0.400000
vt 0.142857 0.400000
vt 0.285714 0.400000
vt 0.428571 0.400000
vt 0.571429 0.400000
vt 0.714286 0.400000
vt 0.857143 0.400000
vt 1.000000 0.400000
vt 0.000000 0.600000
vt 0.142857 0.600000
vt 0.285714 0.600000
vt 0.428571 0.600000
vt 0.571429 0.600000
vt 0.714286 0.600000
vt 0.857143 0.600000
vt 1.000000 0.600000
vt 0.000000 0.800000
vt 0.142857 0.800000
vt 0.285714 0.800000
vt 0.428571 0.800000
vt 0.571429 0.800000
vt 0.714286 0.800000
vt 0.857143 0.800000
vt 1.000000 0.800000
vt 0.071429 0.000000
vt 0.214286 0.000000
vt 0.357143 0.000000
vt 0.500000 0.000000
vt 0.642857 0.000000
vt 0.785714 0.000000
vt 0.928572 0.000000
vn 0.203732 -0.402173 -0.892608
vn 0.203732 -0.402173 -0.892608
vn 0.203732 -0.402173 -0.892608
vn 0.203732 -0.402173 -0.892608
vn -0.570844 -0.402173 -0.715816
vn -0.570844 -0.402173 -0.715816
vn -0.570844 -0.402173 -0.715816
vn -0.570844 -0.402173 -0.715816
vn -0.915564 -0.402173 0.000000
vn -0.915564 -0.402173 0.000000
vn -0.915564 -0.402173 0.000000
vn -0.915564 -0.402173 0.000000
vn -0.570845 -0.402173 0.715816
vn -0.570845 -0.402173 0.715816
vn -0.570845 -0.402173 0.715816
vn -0.570845 -0.402173 0.715816
vn 0.203732 -0.402173 0.892608
vn 0.203732 -0.402173 0.892608
vn 0.203732 -0.402173 0.892608
vn 0.203732 -0.402173 0.892608
vn 0.824894 -0.402173 0.397248
vn 0.824894 -0.402173 0.397248
vn 0.824894 -0.402173 0.397248
vn 0.824894 -0.402173 0.397248
vn 0.824894 -0.402173 -0.397248
vn 0.824894 -0.402173 -0.397248
vn 0.824894 -0.402173 -0.397248
vn 0.824894 -0.402173 -0.397248
vn 0.222521 0.000000 -0.974928
vn 0.222521 0.000000 -0.974928
vn 0.222521 0.000000 -0.974928
vn 0.222521 0.000000 -0.974928
vn -0.623490 0.000000 -0.781832
vn -0.623490 0.000000 -0.781832
vn -0.623490 0.000000 -0.781832
vn -0.623490 0.000000 -0.781832
vn -1.000000 0.000000 -0.000000
vn -1.000000 0.000000 -0.000000
vn -1.000000 0.000000 -0.000000
vn -1.000000 0.000000 -0.000000
vn -0.623490 0.000000 0.781832
vn -0.623490 0.000000 0.781832
vn -0.623490 0.000000 0.781832
vn -0.623490 0.000000 0.781832
vn 0.222521 0.000000 0.974928
vn 0.222521 0.000000 0.974928
vn 0.222521 0.000000 0.974928
vn 0.222521 0.000000 0.974928
vn 0.900969 0.000000 0.433884
vn 0.900969 0.000000 0.433884
vn 0.900969 0.000000 0.433884
vn 0.900969 0.000000 0.433884
vn 0.900969 0.000000 -0.433884
vn 0.900969 0.000000 -0.433884
vn 0.900969 0.000000 -0.433884
vn 0.900969 0.000000 -0.433884
vn 0.186180 0.547687 -0.815706
vn 0.186180 0.547687 -0.815706
vn 0.186180 0.547687 -0.815706
vn 0.186180 0.547687 -0.815706
vn -0.521664 0.547687 -0.654145
vn -0.521664 0.547687 -0.654145
vn -0.521664 0.547687 -0.654145
vn -0.521664 0.547687 -0.654145
vn -0.836684 0.547687 0.000000
vn -0.836684 0.547687 0.000000
vn -0.836684 0.547687 0.000000
vn -0.836684 0.547687 0.000000
vn -0.521664 0.547687 0.654145
vn -0.521664 0.547687 0.654145
vn -0.521664 0.547687 0.654145
vn -0.521664 0.547687 0.654145
vn 0.186179 0.547687 0.815706
vn 0.186179 0.547687 0.815706
vn 0.186179 0.547687 0.815706
vn 0.186179 0.547687 0.815706
vn 0.753826 0.547687 0.363023
vn 0.753826 0.547687 0.363023
vn 0.753826 0.547687 0.363023
vn 0.753826 0.547687 0.363023
vn 0.753826 0.547687 -0.363023
vn 0.753826 0.547687 -0.363023
vn 0.753826 0.547687 -0.363023
vn 0.753826 0.547687 -0.363023
vn -0.010606 -0.998864 0.046468
vn -0.010606 -0.998864 0.046468
vn -0.010606 -0.998864 0.046468
vn 0.029718 -0.998863 0.037266
vn 0.029718 -0.998863 0.037266
vn 0.029718 -0.998863 0.037266
vn 0.047663 -0.998864 0.000000
vn 0.047663 -0.998864 0.000000
vn 0.047663 -0.998864 0.000000
vn 0.029718 -0.998864 -0.037265
vn 0.029718 -0.998864 -0.037265
vn 0.029718 -0.998864 -0.037265
vn -0.010606 -0.998864 -0.046469
vn -0.010606 -0.998864 -0.046469
vn -0.010606 -0.998864 -0.046469
vn -0.042943 -0.998864 -0.020680
vn -0.042943 -0.998864 -0.020680
vn -0.042943 -0.998864 -0.020680
vn -0.042943 -0.998864 0.020681
vn -0.042943 -0.998864 0.020681
vn -0.042943 -0.998863 0.020681
vn 0.186180 -0.547687 -0.815706
vn 0.186180 -0.547687 -0.815706
vn 0.186180 -0.547687 -0.815706
vn 0.186180 -0.547687 -0.815706
vn -0.521664 -0.547686 -0.654146
vn -0.521664 -0.547686 -0.654146
vn -0.521664 -0.547686 -0.654146
vn -0.521664 -0.547686 -0.654146
vn -0.836684 -0.547686 -0.000000
vn -0.836684 -0.547686 -0.000000
vn -0.836684 -0.547686 -0.000000
vn -0.836684 -0.547686 -0.000000
vn -0.521664 -0.547687 0.654146
vn -0.521664 -0.547687 0.654146
vn -0.521664 -0.547687 0.654146
vn -0.521664 -0.547687 0.654146
vn 0.186180 -0.547687 0.815706
vn 0.186180 -0.547687 0.815706
vn 0.186180 -0.547687 0.815706
vn 0.186180 -0.547687 0.815706
vn 0.753826 -0.547687 0.363023
vn 0.753826 -0.547687 0.363023
vn 0.753826 -0.547687 0.363023
vn 0.753826 -0.547687 0.363023
vn 0.753826 -0.547687 -0.363023
vn 0.753826 -0.547687 -0.363023
vn 0.753826 -0.547687 -0.363023
vn 0.753826 -0.547687 -0.363023
vn 0.222521 0.000000 -0.974928
vn 0.222521 0.000000 -0.974928
vn 0.222521 0.000000 -0.974928
vn 0.222521 0.000000 -0.974928
vn -0.623490 0.000000 -0.781831
vn -0.623490 0.000000 -0.781831
vn -0.623490 0.000000 -0.781831
vn -0.623490 0.000000 -0.781831
vn -1.000000 0.000000 -0.000000
vn -1.000000 0.000000 -0.000000
vn -1.000000 0.000000 -0.000000
vn -1.000000 0.000000 -0.000000
vn -0.623490 0.000000 0.781831
vn -0.623490 0.000000 0.781831
vn -0.623490 0.000000 0.781831
vn -0.623490 0.000000 0.781831
vn 0.222521 0.000000 0.974928
vn 0.222521 0.000000 0.974928
vn 0.222521 0.000000 0.974928
vn 0.222521 0.000000 0.974928
vn 0.900969 0.000000 0.433884
vn 0.900969 0.000000 0.433884
vn 0.900969 0.000000 0.433884
vn 0.900969 0.000000 0.433884
vn 0.900969 0.000000 -0.433884
vn 0.900969 0.000000 -0.433884
vn 0.900969 0.000000 -0.433884
vn 0.900969 0.000000 -0.433884
vn 0.179102 0.593444 -0.784695
vn 0.179102 0.593444 -0.784695
vn 0.179102 0.593444 -0.784695
vn 0.179102 0.593444 -0.784695
vn -0.501831 0.593444 -0.629277
vn -0.501831 0.593444 -0.629277
vn -0.501831 0.593444 -0.629277
vn -0.501831 0.593444 -0.629277
vn -0.804875 0.593444 0.000000
vn -0.804875 0.593444 0.000000
vn -0.804875 0.593444 0.000000
vn -0.804875 0.593444 0.000000
vn -0.501831 0.593444 0.629276
vn -0.501831 0.593444 0.629276
vn -0.501831 0.593444 0.629276
vn -0.501831 0.593444 0.629276
vn 0.179101 0.593444 0.784695
vn 0.179101 0.593444 0.784695
vn 0.179101 0.593444 0.784695
vn 0.179101 0.593444 0.784695
vn 0.725167 0.593444 0.349222
vn 0.725167 0.593444 0.349222
vn 0.725167 0.593444 0.349222
vn 0.725167 0.593444 0.349222
vn 0.725167 0.593444 -0.349222
vn 0.725167 0.593444 -0.349222
vn 0.725167 0.593444 -0.349222
vn 0.725167 0.593444 -0.349222
vn 0.006381 -0.999589 -0.027959
vn 0.006381 -0.999589 -0.027959
vn 0.006381 -0.999589 -0.027959
vn -0.017880 -0.999589 -0.022421
vn -0.017880 -0.999589 -0.022421
vn -0.017880 -0.999589 -0.022421
vn -0.028678 -0.999589 0.000000
vn -0.028678 -0.999589 0.000000
vn -0.028678 -0.999589 0.000000
vn -0.017880 -0.999589 0.022421
vn -0.017880 -0.999589 0.022421
vn -0.017880 -0.999589 0.022421
vn 0.006381 -0.999589 0.027959
vn 0.006381 -0.999589 0.027959
vn 0.006381 -0.999589 0.027959
vn 0.025838 -0.999589 0.012443
vn 0.025838 -0.999589 0.012443
vn 0.025838 -0.999589 0.012443
vn 0.025838 -0.999589 -0.012443
vn 0.025838 -0.999589 -0.012443
vn 0.025838 -0.999589 -0.012443
s off
g group6 group5 pSphere21
usemtl lambert9SG
f 59/94/171 60/95/172 67/103/173 66/102/174
f 60/95/175 61/96/176 68/104/177 67/103/178
f 61/96/179 62/97/180 69/105/181 68/104/182
f 62/97/183 63/98/184 70/106/185 69/105/186
f 63/98/187 64/99/188 71/107/189 70/106/190
f 64/99/191 65/100/192 72/108/193 71/107/194
f 65/100/195 59/101/196 66/109/197 72/108/198
f 66/102/199 67/103/200 74/111/201 73/110/202
f 67/103/203 68/104/204 75/112/205 74/111/206
f 68/104/207 69/105/208 76/113/209 75/112/210
f 69/105/211 70/106/212 77/114/213 76/113/214
f 70/106/215 71/107/216 78/115/217 77/114/218
f 71/107/219 72/108/220 79/116/221 78/115/222
f 72/108/223 66/109/224 73/117/225 79/116/226
f 73/110/227 74/111/228 81/119/229 80/118/230
f 74/111/231 75/112/232 82/120/233 81/119/234
f 75/112/235 76/113/236 83/121/237 82/120/238
f 76/113/239 77/114/240 84/122/241 83/121/242
f 77/114/243 78/115/244 85/123/245 84/122/246
f 78/115/247 79/116/248 86/124/249 85/123/250
f 79/116/251 73/117/252 80/125/253 86/124/254
f 60/95/255 59/94/256 87/126/257
f 61/96/258 60/95/259 87/127/260
f 62/97/261 61/96/262 87/128/263
f 63/98/264 62/97/265 87/129/266
f 64/99/267 63/98/268 87/130/269
f 65/100/270 64/99/271 87/131/272
f 59/101/273 65/100/274 87/132/275
f 88//276 89//277 96//278 95//279
f 89//280 90//281 97//282 96//283
f 90//284 91//285 98//286 97//287
f 91//288 92//289 99//290 98//291
f 92//292 93//293 100//294 99//295
f 93//296 94//297 101//298 100//299
f 94//300 88//301 95//302 101//303
f 95//304 96//305 103//306 102//307
f 96//308 97//309 104//310 103//311
f 97//312 98//313 105//314 104//315
f 98//316 99//317 106//318 105//319
f 99//320 100//321 107//322 106//323
f 100//324 101//325 108//326 107//327
f 101//328 95//329 102//330 108//331
f 102//332 103//333 60//334 59//335
f 103//336 104//337 61//338 60//339
f 104//340 105//341 62//342 61//343
f 105//344 106//345 63//346 62//347
f 106//348 107//349 64//350 63//351
f 107//352 108//353 65//354 64//355
f 108//356 102//357 59//358 65//359
f 89//360 88//361 109//362
f 90//363 89//364 109//365
f 91//366 90//367 109//368
f 92//369 91//370 109//371
f 93//372 92//373 109//374
f 94//375 93//376 109//377
f 88//378 94//379 109//380
