# This file uses centimeters as units for non-parametric coordinates.

mtllib placement_house.mtl
g default
v -137.689682 -0.193806 138.233612
v 137.689682 -0.193806 138.233612
v -127.434898 -0.193806 -138.233612
v 127.434898 -0.193806 -138.233612
v -3.415097 -0.193806 -138.233612
v -3.689912 -0.193806 138.233612
v -1.357690 256.844696 -147.925217
v -147.925201 234.828064 -147.925217
v -147.925201 234.828064 147.925217
v -3.964212 255.636383 147.925217
v 147.925201 234.828064 147.925217
v 147.925201 234.828064 -147.925217
v -206.362198 244.137482 173.917023
v -193.197098 233.446381 164.996948
v 1.829339 280.492340 171.988678
v -1.243639 269.672607 159.844849
v -205.044678 271.671417 181.106491
v -194.975586 286.761230 170.440628
v -1.856100 349.753082 170.955322
v 5.860266 340.026886 182.109589
v 15.062102 349.120239 171.099197
v -194.975586 286.761230 -170.440628
v -205.044678 271.671417 -181.106491
v 15.062102 349.120239 -171.099197
v 5.861458 340.044495 -182.112579
v -1.856100 349.753082 -170.955322
v -206.362198 244.137482 -173.917023
v -193.706024 233.318481 -165.188858
v 1.869365 281.083496 -172.089188
v -0.073612 270.341309 -159.460632
v 204.708405 241.649048 161.934097
v 192.801147 244.595154 174.844101
v 191.697739 231.649292 165.129471
v 193.271667 262.472412 179.879028
v 204.800720 261.013916 167.420074
v 195.843277 274.976990 170.311127
v 195.843277 274.976990 -170.311127
v 204.800262 260.918182 -167.263290
v 193.271667 262.472412 -179.879028
v 192.907440 244.443970 -174.802567
v 204.708527 241.676331 -161.917847
v 191.650894 231.663391 -165.111053
v -194.975586 286.761230 -43.780849
v -205.044678 271.671417 -46.520569
v -206.362213 244.137482 -44.673828
v -193.516922 233.365997 -42.503136
v -147.925201 234.828064 -37.997345
v -131.245224 -0.193806 -35.507874
v -3.517209 -0.193806 -35.507874
v 131.245224 -0.193806 -35.507874
v 147.925201 234.828064 -37.997345
v 191.668304 231.658142 -42.405003
v 204.708481 241.666199 -41.585575
v 204.800430 260.953766 -42.906433
v 195.843277 274.976990 -43.747578
v 15.062102 349.120239 -43.950012
v -1.856100 349.753082 -43.913055
v -194.975586 286.761230 32.399387
v -205.044678 271.671417 34.426880
v -206.362213 244.137482 33.060219
v -193.403198 233.394592 31.286875
v -147.925201 234.828064 28.119389
v -133.536972 -0.193806 26.277096
v -3.578624 -0.193806 26.277096
v 133.536972 -0.193806 26.277096
v 147.925201 234.828064 28.119389
v 191.678772 231.654999 31.397238
v 204.708466 241.660095 30.788942
v 204.800537 260.975159 31.888695
v 195.843277 274.976990 32.374771
v 15.062101 349.120239 32.524574
v -1.856100 349.753082 32.497223
v -80.021919 324.256897 -170.747009
v -79.503578 312.370239 -181.705353
v -82.413132 266.129456 -172.829010
v -78.447044 255.356171 -161.779144
v -60.681431 247.933380 -147.925217
v -53.612572 -0.193806 -138.233612
v -55.215591 -0.193806 -35.507874
v -56.179741 -0.193806 26.277096
v -57.926815 -0.193806 138.233612
v -62.232956 247.214142 147.925217
v -78.937508 255.009903 161.930176
v -82.436958 265.777588 172.769180
v -79.504288 312.359741 181.703583
v -80.021919 324.256897 170.747009
v -86.900238 322.013336 25.983189
v -86.900238 322.013336 -37.385105
v -161.099808 297.810852 -170.530914
v -168.048874 283.664978 -181.282974
v -169.835556 250.618317 -173.596390
v -159.740265 239.812790 -164.184052
v -122.215271 238.690094 -147.925217
v -105.680138 -0.193806 -138.233612
v -108.839996 -0.193806 -35.507874
v -110.740509 -0.193806 26.277096
v -114.184296 -0.193806 138.233612
v -122.672485 238.478134 147.925217
v -159.525848 239.800964 164.093201
v -169.842575 250.514618 173.578766
v -168.049088 283.661896 181.282440
v -161.099808 297.810852 170.530914
v -154.221497 300.054413 25.949081
v -154.221497 300.054413 -37.339020
v -152.962112 395.535126 23.094099
v -158.381653 387.110382 29.860750
v -158.381653 387.110474 -41.249207
v -152.962097 395.535126 -34.483665
v -90.453293 415.924316 23.015770
v -82.789207 410.723236 29.852850
v -90.611649 415.872650 -34.274841
v -82.796356 410.568939 -41.248039
vt 0.383661 -0.000000
vt 0.502979 0.001943
vt 0.370726 0.019236
vt 0.125000 0.065972
vt 0.129456 0.018529
vt 0.503981 0.000000
vt 0.617189 0.000000
vt 0.375000 0.555835
vt 0.380799 0.490639
vt 0.498751 0.490988
vt 0.509084 0.491086
vt 0.619499 0.490551
vt 0.383346 0.750000
vt 0.503678 0.749412
vt 0.503981 0.750000
vt 0.617982 0.668238
vt 0.617161 0.750000
vt 0.629643 0.022019
vt 0.634369 0.079804
vt 0.618121 0.184333
vt 0.634921 0.191021
vt 0.865546 0.250000
vt 0.865748 0.190471
vt 0.866327 0.079961
vt 0.874476 0.095533
vt 0.503981 0.031588
vt 0.375000 0.194165
vt 0.380799 0.259361
vt 0.498751 0.259012
vt 0.503981 0.537896
vt 0.375000 0.684028
vt 0.375000 0.065972
vt 0.125000 0.194165
vt 0.618121 0.565667
vt 0.503981 0.716620
vt 0.503981 0.212050
vt 0.617918 0.082502
vt 0.509084 0.258914
vt 0.619499 0.259449
vt 0.634830 0.240170
vt 0.873980 0.199082
vt 0.870695 0.022098
vt 0.380799 0.404704
vt 0.375000 0.421451
vt 0.217891 0.194165
vt 0.217891 0.065972
vt 0.219104 0.018792
vt 0.781128 0.022069
vt 0.780139 0.079903
vt 0.779981 0.190676
vt 0.779820 0.246347
vt 0.619499 0.404681
vt 0.509084 0.404819
vt 0.498751 0.404794
vt 0.380799 0.353018
vt 0.375000 0.340625
vt 0.273761 0.194165
vt 0.273761 0.065972
vt 0.273023 0.018950
vt 0.727258 0.022051
vt 0.728301 0.079868
vt 0.728396 0.190799
vt 0.728260 0.244151
vt 0.619499 0.353035
vt 0.509084 0.352933
vt 0.498751 0.352952
vt 0.451009 0.490847
vt 0.451776 0.545157
vt 0.451776 0.703428
vt 0.454973 0.749650
vt 0.454684 0.001156
vt 0.451776 0.045505
vt 0.451776 0.204811
vt 0.451009 0.259153
vt 0.401490 0.490700
vt 0.397625 0.552689
vt 0.397625 0.689745
vt 0.404453 0.749897
vt 0.404591 0.000341
vt 0.397625 0.059940
vt 0.397625 0.197302
vt 0.401490 0.259300
vt 0.405212 0.358099
vt 0.405212 0.399628
vt 0.445695 0.399477
vt 0.445798 0.358156
vt 0.401490 0.353006
vt 0.401490 0.404720
vt 0.451009 0.352979
vt 0.401490 0.353006
vt 0.451009 0.404757
vt 0.451009 0.352979
vt 0.401490 0.404720
vt 0.451009 0.404757
vn 0.000000 -1.000000 0.000000
vn 0.000000 -1.000000 0.000000
vn 0.000000 -1.000000 -0.000000
vn 0.000000 -1.000000 -0.000000
vn 0.000000 -1.000000 0.000000
vn 0.000000 -1.000000 -0.000000
vn 0.000000 -1.000000 0.000000
vn 0.000000 -1.000000 0.000000
vn 0.003304 -0.040609 -0.999170
vn 0.003245 -0.039881 -0.999199
vn 0.003245 -0.039883 -0.999199
vn 0.003304 -0.040609 -0.999170
vn -0.998218 -0.056927 -0.017886
vn -0.998494 -0.051868 -0.017891
vn -0.998494 -0.051868 -0.017891
vn -0.998222 -0.056854 -0.017886
vn 0.003052 -0.040764 0.999164
vn 0.002998 -0.040046 0.999193
vn 0.002997 -0.040028 0.999194
vn 0.003052 -0.040764 0.999164
vn -0.002796 -0.039401 0.999220
vn -0.001199 -0.039137 0.999233
vn -0.001196 -0.039137 0.999233
vn -0.002796 -0.039401 0.999220
vn 0.998494 -0.051868 -0.017891
vn 0.998218 -0.056927 -0.017886
vn 0.998222 -0.056854 -0.017886
vn 0.998494 -0.051868 -0.017891
vn -0.001327 -0.038963 -0.999240
vn -0.003082 -0.039220 -0.999226
vn -0.003082 -0.039220 -0.999226
vn -0.001297 -0.038958 -0.999240
vn 0.117781 -0.570009 0.813152
vn 0.117781 -0.570009 0.813152
vn 0.126995 -0.624995 0.770230
vn 0.124063 -0.607424 0.784630
vn -0.634143 -0.773216 0.000622
vn -0.634143 -0.773216 0.000622
vn -0.636169 -0.771549 0.000623
vn -0.636549 -0.771236 0.000623
vn -0.074398 -0.677234 0.731997
vn -0.047082 -0.684617 0.727381
vn -0.142103 -0.656444 0.740870
vn -0.142103 -0.656444 0.740870
vn -0.831816 0.555052 0.000000
vn -0.831816 0.555052 0.000000
vn -0.831816 0.555052 0.000000
vn -0.831816 0.555052 0.000000
vn -0.215867 0.655647 0.723552
vn -0.215867 0.655647 0.723552
vn -0.215934 0.655853 0.723346
vn -0.215976 0.655985 0.723214
vn -0.255681 0.966761 -0.000000
vn 0.353795 0.935323 0.000000
vn 0.353723 0.935350 0.000000
vn -0.255582 0.966787 -0.000000
vn 0.245996 0.596831 0.763727
vn 0.107213 0.630887 0.768432
vn 0.250493 0.592753 0.765439
vn 0.250493 0.592753 0.765439
vn -0.215921 0.655708 -0.723481
vn -0.215921 0.655708 -0.723481
vn -0.216074 0.656186 -0.723002
vn -0.216014 0.656000 -0.723189
vn 0.107280 0.631256 -0.768119
vn 0.246145 0.597113 -0.763458
vn 0.250640 0.593028 -0.765178
vn 0.250640 0.593028 -0.765178
vn 0.118801 -0.561802 -0.818697
vn 0.118801 -0.561802 -0.818697
vn 0.125963 -0.603950 -0.787006
vn 0.129152 -0.622845 -0.771611
vn -0.053426 -0.695185 -0.716842
vn -0.071051 -0.691020 -0.719335
vn -0.147755 -0.670114 -0.727403
vn -0.147755 -0.670114 -0.727403
vn 0.609202 -0.793015 -0.000094
vn 0.609202 -0.793015 -0.000094
vn 0.609110 -0.793086 -0.000094
vn 0.609104 -0.793091 -0.000094
vn 0.683565 -0.261039 0.681614
vn 0.675882 -0.283486 0.680308
vn 0.701274 -0.203602 0.683199
vn 0.701274 -0.203602 0.683199
vn 0.842033 0.539426 -0.000077
vn 0.842033 0.539426 -0.000077
vn 0.842228 0.539122 -0.000077
vn 0.842218 0.539137 -0.000077
vn 0.706097 -0.198694 -0.679667
vn 0.706097 -0.198694 -0.679667
vn 0.681158 -0.280031 -0.676467
vn 0.688305 -0.258495 -0.677802
vn 0.062329 -0.240908 0.968545
vn 0.056413 -0.217180 0.974500
vn 0.055309 -0.212752 0.975540
vn 0.062329 -0.240908 0.968545
vn -0.310101 0.950704 0.000000
vn -0.310101 0.950704 0.000000
vn -0.310101 0.950704 0.000000
vn -0.310101 0.950704 0.000000
vn 0.062462 -0.241025 -0.968507
vn 0.055424 -0.212960 -0.975488
vn 0.056540 -0.217411 -0.974441
vn 0.062462 -0.241025 -0.968507
vn 0.999989 -0.004766 0.000000
vn 0.999989 -0.004767 -0.000000
vn 0.999989 -0.004767 -0.000000
vn 0.999989 -0.004766 0.000000
vn -0.998857 0.047797 0.000000
vn -0.998857 0.047797 0.000000
vn -0.998857 0.047797 0.000000
vn -0.998857 0.047797 0.000000
vn -0.020259 -0.185825 -0.982374
vn -0.058269 -0.188959 -0.980255
vn -0.058269 -0.188959 -0.980255
vn -0.017462 -0.185584 -0.982473
vn -0.020122 -0.185528 0.982433
vn -0.017309 -0.185294 0.982531
vn -0.058153 -0.188552 0.980340
vn -0.058153 -0.188552 0.980340
vn 0.379454 0.925211 0.000000
vn 0.379454 0.925211 0.000000
vn 0.046218 -0.997889 0.045621
vn 0.151319 -0.844864 0.513135
vn 0.157542 -0.889036 0.429880
vn 0.034558 -0.999346 0.010679
vn 0.036386 -0.999273 -0.011422
vn 0.161325 -0.887770 -0.431091
vn 0.155094 -0.843852 -0.513674
vn 0.049329 -0.997540 -0.049800
vn -0.110055 -0.963120 0.245534
vn -0.072349 -0.997379 -0.000017
vn -0.072352 -0.997379 -0.000017
vn -0.084879 -0.993316 0.078222
vn 0.031321 -0.999509 0.000179
vn 0.031292 -0.999510 0.000179
vn -0.076553 -0.806099 -0.586808
vn -0.086408 -0.992908 -0.081656
vn -0.114316 -0.960994 -0.251838
vn -0.065564 -0.802804 -0.592628
vn -0.079173 -0.807149 0.585014
vn -0.057367 -0.800569 0.596488
vn -0.204755 0.662884 0.720181
vn -0.204932 0.663346 -0.719705
vn 0.561555 -0.526724 0.638136
vn 0.712124 0.328353 0.620535
vn 0.712124 0.328353 0.620535
vn 0.712124 0.328353 0.620535
vn 0.717951 0.323828 -0.616184
vn 0.717951 0.323828 -0.616184
vn 0.717951 0.323828 -0.616184
vn 0.563444 -0.533641 -0.630680
vn -0.831816 0.555052 0.000000
vn -0.831816 0.555052 0.000000
vn -0.831816 0.555051 0.000000
vn -0.831816 0.555051 0.000000
vn -0.998857 0.047797 -0.000000
vn -0.998857 0.047797 -0.000000
vn -0.998857 0.047797 -0.000000
vn -0.998857 0.047797 -0.000000
vn -0.643847 -0.765154 0.000628
vn -0.644305 -0.764768 0.000628
vn -0.646314 -0.763071 0.000629
vn -0.646314 -0.763072 0.000629
vn 0.032185 -0.999482 0.000178
vn 0.032226 -0.999481 0.000178
vn -0.996692 -0.079280 -0.017859
vn -0.997079 -0.074253 -0.017866
vn -0.997074 -0.074326 -0.017866
vn -0.996692 -0.079280 -0.017859
vn 0.000000 -1.000000 -0.000000
vn 0.000000 -1.000000 -0.000000
vn 0.000000 -1.000000 0.000000
vn 0.000000 -1.000000 0.000000
vn 0.000000 -1.000000 -0.000000
vn 0.000000 -1.000000 -0.000000
vn 0.000000 -1.000000 0.000000
vn 0.000000 -1.000000 0.000000
vn 0.997074 -0.074326 -0.017866
vn 0.997079 -0.074253 -0.017866
vn 0.996692 -0.079280 -0.017859
vn 0.996692 -0.079280 -0.017859
vn -0.072260 -0.997386 -0.000017
vn -0.072264 -0.997386 -0.000017
vn 0.608782 -0.793338 -0.000094
vn 0.608774 -0.793343 -0.000094
vn 0.608684 -0.793413 -0.000094
vn 0.608684 -0.793413 -0.000094
vn 0.999989 -0.004767 -0.000000
vn 0.999989 -0.004767 -0.000000
vn 0.999989 -0.004767 -0.000000
vn 0.999989 -0.004767 -0.000000
vn 0.842889 0.538087 -0.000077
vn 0.842874 0.538111 -0.000077
vn 0.843071 0.537803 -0.000077
vn 0.843071 0.537803 -0.000077
vn 0.353795 0.935323 0.000000
vn 0.353722 0.935350 -0.000000
vn 0.379454 0.925211 0.000000
vn 0.379454 0.925211 0.000000
vn -0.255499 0.966809 0.000000
vn -0.255771 0.966737 0.000000
vn -0.310101 0.950704 -0.000000
vn -0.310101 0.950704 -0.000000
vn -0.310101 0.950704 -0.000000
vn -0.310101 0.950704 -0.000000
vn -0.216208 0.656604 -0.722583
vn -0.216239 0.656699 -0.722487
vn 0.050634 -0.193863 -0.979721
vn 0.049335 -0.188686 -0.980798
vn 0.139676 -0.685889 -0.714176
vn 0.138383 -0.678083 -0.721841
vn 0.141597 -0.753642 -0.641852
vn 0.150446 -0.812228 -0.563606
vn 0.003169 -0.038951 -0.999236
vn 0.003166 -0.038913 -0.999238
vn 0.000000 -1.000000 0.000000
vn 0.000000 -1.000000 0.000000
vn 0.000000 -1.000000 -0.000000
vn 0.000000 -1.000000 -0.000000
vn 0.002924 -0.039063 0.999233
vn 0.002928 -0.039108 0.999231
vn 0.146479 -0.811628 0.565512
vn 0.138280 -0.756701 0.638969
vn 0.135448 -0.676078 0.724274
vn 0.136405 -0.681909 0.718605
vn 0.049273 -0.188546 0.980827
vn 0.050552 -0.193673 0.979763
vn -0.216092 0.656347 0.722851
vn -0.216071 0.656280 0.722918
vn -0.310101 0.950704 -0.000000
vn -0.310101 0.950704 -0.000000
vn -0.310101 0.950704 0.000000
vn -0.310101 0.950704 0.000000
vn -0.213779 0.672338 0.708703
vn -0.213779 0.672339 0.708703
vn -0.213779 0.672339 0.708703
vn -0.213779 0.672339 0.708703
vn -0.841012 0.541017 0.000000
vn -0.841012 0.541017 0.000000
vn -0.841012 0.541017 0.000000
vn -0.841012 0.541017 0.000000
vn -0.212433 0.672457 -0.708995
vn -0.212433 0.672457 -0.708995
vn -0.212433 0.672457 -0.708995
vn -0.212433 0.672457 -0.708995
vn 0.561522 0.827459 -0.002051
vn 0.561522 0.827459 -0.002051
vn 0.561522 0.827459 -0.002051
vn 0.561522 0.827459 -0.002051
vn -0.310101 0.950704 -0.000001
vn -0.310101 0.950704 -0.000001
vn -0.310101 0.950704 -0.000001
vn -0.310101 0.950704 -0.000001
vn -0.998860 -0.047732 -0.000000
vn -0.998860 -0.047732 -0.000000
vn -0.998860 -0.047732 -0.000000
vn -0.998860 -0.047732 -0.000000
vn 0.013917 -0.044219 0.998925
vn 0.013917 -0.044219 0.998925
vn 0.013917 -0.044219 0.998925
vn 0.013917 -0.044219 0.998925
vn 0.998928 -0.046293 0.000000
vn 0.998928 -0.046293 0.000000
vn 0.998928 -0.046293 0.000000
vn 0.998928 -0.046293 0.000000
vn 0.013737 -0.044211 -0.998928
vn 0.013737 -0.044211 -0.998928
vn 0.013737 -0.044211 -0.998928
vn 0.013737 -0.044211 -0.998928
s 1
g house
usemtl initialShadingGroup
f 63//1 96//2 97//3 1//4
f 6//5 64//6 65//7 2//8
s 3
f 8//9 93//10 94//11 3//12
s 4
f 63//13 1//14 9//15 62//16
s 5
f 1//17 97//18 98//19 9//20
f 11//21 10//22 6//23 2//24
s 7
f 2//25 65//26 66//27 11//28
s 3
f 7//29 12//30 4//31 5//32
s 9
f 13/32/33 14/1/34 99/79/35 100/80/36
s 10
f 14/3/37 13/32/38 60/58/39 61/59/40
s 9
f 15/26/41 16/6/42 33/7/43 32/37/44
s 12
f 17/27/45 18/28/46 58/55/47 59/56/48
s 13
f 18/28/49 17/27/50 101/81/51 102/82/52
s 14
f 19/29/53 21/38/54 71/65/55 72/66/56
s 13
f 21/38/57 20/36/58 34/20/59 36/39/60
s 16
f 23/8/61 22/9/62 89/75/63 90/76/64
f 25/30/65 24/11/66 37/12/67 39/34/68
s 18
f 28/13/69 27/31/70 91/77/71 92/78/72
f 30/15/73 29/35/74 40/16/75 42/17/76
s 20
f 31/19/77 33/18/78 67/60/79 68/61/80
s 21
f 32/37/81 31/19/82 35/21/83 34/20/84
s 22
f 36/40/85 35/21/86 69/62/87 70/63/88
s 23
f 39/41/89 38/23/90 41/24/91 40/25/92
s 24
f 13/32/93 100/80/94 101/81/95 17/27/96
s 14
f 18/28/97 102/82/98 103/87/99 58/55/100
s 26
f 23/8/101 90/76/102 91/77/103 27/31/104
s 27
f 31/19/105 68/61/106 69/62/107 35/21/108
s 28
f 60/58/109 13/32/110 17/27/111 59/57/112
s 26
f 25/30/113 39/34/114 40/16/115 29/35/116
s 24
f 20/36/117 15/26/118 32/37/119 34/20/120
s 14
f 71/65/55 21/38/54 36/39/121 70/64/122
s 31
f 9//123 98//124 99//125 14//126
f 28//127 92//128 93//129 8//130
f 11//131 66//132 67//133 33//134
f 62//135 9//123 14//126 61//136
f 30//137 42//138 12//139 7//140
f 16//141 10//142 11//131 33//134
s 13
f 19/29/143 20/36/58 21/38/57
s 16
f 24/11/66 25/30/65 26/10/144
s 21
f 31/19/82 32/37/81 33/18/145
s off
f 34/20/146 35/21/147 36/40/148
f 37/22/149 38/23/150 39/41/151
s 23
f 40/25/92 41/24/91 42/42/152
s 12
f 44/44/153 43/43/154 22/9/155 23/8/156
s 28
f 27/4/157 45/46/158 44/45/159 23/33/160
s 10
f 46/47/161 45/46/162 27/4/163 28/5/164
s 31
f 8//130 47//165 46//166 28//127
s 4
f 3//167 48//168 47//169 8//170
s 1
f 3//171 94//172 95//173 48//174
f 50//175 49//176 5//177 4//178
s 7
f 51//179 50//180 4//181 12//182
s 31
f 52//183 51//184 12//139 42//138
s 20
f 53/49/185 52/48/186 42/42/187 41/24/188
s 27
f 54/50/189 53/49/190 41/24/191 38/23/192
s 22
f 55/51/193 54/50/194 38/23/195 37/22/196
s 14
f 24/11/197 56/53/198 55/52/199 37/12/200
f 57/54/201 56/53/198 24/11/197 26/10/202
f 43/43/203 104/93/204 89/75/205 22/9/206
s 12
f 59/56/48 58/55/47 43/43/154 44/44/153
s 28
f 45/46/158 60/58/109 59/57/112 44/45/159
s 10
f 61/59/40 60/58/39 45/46/162 46/47/161
s 31
f 47//165 62//135 61//136 46//166
s 4
f 48//168 63//13 62//16 47//169
s 1
f 48//174 95//173 96//2 63//1
f 65//7 64//6 49//176 50//175
s 7
f 66//27 65//26 50//180 51//179
s 31
f 67//133 66//132 51//184 52//183
s 20
f 68/61/80 67/60/79 52/48/186 53/49/185
s 27
f 69/62/107 68/61/106 53/49/190 54/50/189
s 22
f 70/63/88 69/62/87 54/50/194 55/51/193
s 14
f 56/53/198 71/65/55 70/64/122 55/52/199
f 72/66/56 71/65/55 56/53/198 57/54/201
f 58/55/100 103/87/99 104/93/204 43/43/203
s 16
f 74/68/207 73/67/208 26/10/144 25/30/65
s 26
f 75/69/209 74/68/210 25/30/113 29/35/116
s 18
f 76/70/211 75/69/212 29/35/74 30/14/73
s 31
f 77//213 76//214 30//137 7//140
s 3
f 78//215 77//216 7//29 5//32
s 1
f 79//217 78//218 5//177 49//176
f 80//219 79//217 49//176 64//6
f 81//220 80//219 64//6 6//5
s 5
f 82//221 81//222 6//23 10//22
s 31
f 83//223 82//224 10//142 16//141
s 9
f 84/72/225 83/71/226 16/2/42 15/26/41
s 24
f 85/73/227 84/72/228 15/26/118 20/36/117
s 13
f 86/74/229 85/73/230 20/36/58 19/29/143
s 14
f 87/89/231 86/74/232 19/29/53 72/66/56
f 88/91/233 87/89/231 72/66/56 57/54/201
f 73/67/234 88/91/233 57/54/201 26/10/202
s 16
f 90/76/64 89/75/63 73/67/208 74/68/207
s 26
f 91/77/103 90/76/102 74/68/210 75/69/209
s 18
f 92/78/72 91/77/71 75/69/212 76/70/211
s 31
f 93//129 92//128 76//214 77//213
s 3
f 94//11 93//10 77//216 78//215
s 1
f 95//173 94//172 78//218 79//217
f 96//2 95//173 79//217 80//219
f 97//3 96//2 80//219 81//220
s 5
f 98//19 97//18 81//222 82//221
s 31
f 99//125 98//124 82//224 83//223
s 9
f 100/80/36 99/79/35 83/71/226 84/72/225
s 24
f 101/81/95 100/80/94 84/72/228 85/73/227
s 13
f 102/82/52 101/81/51 85/73/230 86/74/229
s 14
f 103/87/99 102/82/98 86/74/232 87/89/231
f 89/75/205 104/93/204 88/91/233 73/67/234
s off
f 105/83/235 106/90/236 110/92/237 109/86/238
f 106/90/239 105/83/240 108/84/241 107/88/242
f 107/88/243 108/84/244 111/85/245 112/94/246
f 109/86/247 110/92/248 112/94/249 111/85/250
f 108/84/251 105/83/252 109/86/253 111/85/254
f 104/93/255 103/87/256 106/90/257 107/88/258
f 103/87/259 87/89/260 110/92/261 106/90/262
f 87/89/263 88/91/264 112/94/265 110/92/266
f 88/91/267 104/93/268 107/88/269 112/94/270
