# This file uses centimeters as units for non-parametric coordinates.

mtllib placement_bin.mtl
g default
v 24.352200 0.760017 -42.179230
v -24.352182 0.760017 -42.179237
v -48.704369 0.760017 -0.000008
v -24.352188 0.760017 42.179230
v 24.352184 0.760017 42.179237
v 48.704369 0.760017 -0.000000
v 30.540020 139.000824 -52.896843
v -30.540005 139.000824 -52.896862
v -61.080013 139.000824 -0.000009
v -30.540014 139.000824 52.896847
v 30.540005 139.000824 52.896862
v 61.080013 139.000824 0.000000
v 0.000000 0.760017 0.000000
v 32.699974 142.611832 -56.637985
v -32.699947 142.611832 -56.637985
v -65.399910 142.611832 -0.000010
v -32.699966 142.611832 56.637985
v 32.699951 142.611832 56.637985
v 65.399910 142.611832 0.000000
v 32.699974 155.674835 -56.637985
v -32.699947 155.674835 -56.637985
v -65.399910 155.674835 -0.000010
v -32.699966 155.674835 56.637985
v 32.699951 155.674835 56.637985
v 65.399910 155.674835 0.000000
v 28.372406 162.806015 -49.142422
v -28.372379 162.806015 -49.142426
v 0.000000 162.806015 0.000000
v -56.744774 162.806015 -0.000008
v -28.372396 162.806015 49.142422
v 28.372383 162.806015 49.142426
v 56.744774 162.806015 0.000000
vt 0.578125 0.020934
vt 0.421875 0.020934
vt 0.343750 0.156250
vt 0.421875 0.291566
vt 0.578125 0.291566
vt 0.656250 0.156250
vt 0.375000 0.312500
vt 0.416667 0.312500
vt 0.458333 0.312500
vt 0.500000 0.312500
vt 0.541667 0.312500
vt 0.583333 0.312500
vt 0.625000 0.312500
vt 0.375000 0.688440
vt 0.416667 0.688440
vt 0.458333 0.688440
vt 0.500000 0.688440
vt 0.541667 0.688440
vt 0.583333 0.688440
vt 0.625000 0.688440
vt 0.578125 0.708434
vt 0.421875 0.708434
vt 0.343750 0.843750
vt 0.421875 0.979066
vt 0.578125 0.979066
vt 0.656250 0.843750
vt 0.500000 0.150000
vt 0.500000 0.837500
vt 0.578125 0.979066
vt 0.421875 0.979066
vt 0.343750 0.843750
vt 0.421875 0.708434
vt 0.578125 0.708434
vt 0.656250 0.843750
vt 0.578125 0.979066
vt 0.421875 0.979066
vt 0.343750 0.843750
vt 0.421875 0.708434
vt 0.578125 0.708434
vt 0.656250 0.843750
vt 0.578125 0.979066
vt 0.421875 0.979066
vt 0.343750 0.843750
vt 0.421875 0.708434
vt 0.578125 0.708434
vt 0.656250 0.843750
vn 0.000000 -0.077297 -0.997008
vn 0.000000 -0.077297 -0.997008
vn 0.000000 -0.077297 -0.997008
vn 0.000000 -0.077297 -0.997008
vn -0.863434 -0.077297 -0.498504
vn -0.863434 -0.077297 -0.498504
vn -0.863434 -0.077297 -0.498504
vn -0.863434 -0.077297 -0.498504
vn -0.863435 -0.077297 0.498504
vn -0.863435 -0.077297 0.498504
vn -0.863435 -0.077297 0.498504
vn -0.863434 -0.077297 0.498504
vn -0.000000 -0.077297 0.997008
vn -0.000000 -0.077297 0.997008
vn -0.000000 -0.077297 0.997008
vn -0.000000 -0.077297 0.997008
vn 0.863434 -0.077297 0.498504
vn 0.863434 -0.077297 0.498504
vn 0.863434 -0.077297 0.498504
vn 0.863434 -0.077297 0.498504
vn 0.863435 -0.077297 -0.498504
vn 0.863435 -0.077297 -0.498504
vn 0.863435 -0.077297 -0.498504
vn 0.863435 -0.077297 -0.498504
vn 0.000000 -1.000000 -0.000000
vn 0.000000 -1.000000 -0.000000
vn 0.000000 -1.000000 0.000000
vn 0.000000 -1.000000 0.000000
vn 0.000000 -1.000000 0.000000
vn 0.000000 -1.000000 0.000000
vn 0.000000 -1.000000 0.000000
vn 0.000000 1.000000 0.000000
vn 0.000000 1.000000 0.000000
vn 0.000000 1.000000 -0.000000
vn 0.000000 1.000000 -0.000000
vn 0.000000 1.000000 0.000000
vn 0.000000 1.000000 0.000000
vn 0.000000 1.000000 0.000000
vn 0.000000 -0.719511 -0.694481
vn 0.000000 -0.719511 -0.694481
vn 0.000000 -0.719511 -0.694481
vn 0.000000 -0.719511 -0.694481
vn -0.601441 -0.719509 -0.347240
vn -0.601441 -0.719509 -0.347240
vn -0.601441 -0.719509 -0.347240
vn -0.601441 -0.719509 -0.347240
vn -0.601439 -0.719510 0.347241
vn -0.601439 -0.719510 0.347241
vn -0.601439 -0.719510 0.347241
vn -0.601439 -0.719510 0.347241
vn -0.000000 -0.719509 0.694483
vn -0.000000 -0.719509 0.694483
vn -0.000000 -0.719509 0.694483
vn -0.000000 -0.719509 0.694483
vn 0.601440 -0.719510 0.347240
vn 0.601440 -0.719510 0.347240
vn 0.601440 -0.719510 0.347240
vn 0.601440 -0.719510 0.347240
vn 0.601439 -0.719510 -0.347241
vn 0.601439 -0.719510 -0.347241
vn 0.601439 -0.719510 -0.347241
vn 0.601439 -0.719510 -0.347241
vn 0.000000 0.000000 -1.000000
vn 0.000000 0.000000 -1.000000
vn 0.000000 0.000000 -1.000000
vn 0.000000 0.000000 -1.000000
vn -0.866025 0.000000 -0.500001
vn -0.866025 0.000000 -0.500001
vn -0.866025 0.000000 -0.500001
vn -0.866025 0.000000 -0.500001
vn -0.866026 0.000000 0.500000
vn -0.866026 0.000000 0.500000
vn -0.866026 0.000000 0.500000
vn -0.866026 0.000000 0.500000
vn 0.000000 0.000000 1.000000
vn 0.000000 0.000000 1.000000
vn 0.000000 0.000000 1.000000
vn 0.000000 0.000000 1.000000
vn 0.866025 0.000000 0.500000
vn 0.866025 0.000000 0.500000
vn 0.866025 0.000000 0.500000
vn 0.866025 0.000000 0.500000
vn 0.866026 0.000000 -0.500000
vn 0.866026 0.000000 -0.500000
vn 0.866026 0.000000 -0.500000
vn 0.866026 0.000000 -0.500000
vn 0.000000 0.724496 -0.689279
vn 0.000000 0.724496 -0.689278
vn 0.000000 0.724496 -0.689279
vn 0.000000 0.724496 -0.689279
vn -0.596932 0.724497 -0.344638
vn -0.596932 0.724498 -0.344638
vn -0.596932 0.724498 -0.344638
vn -0.596932 0.724498 -0.344638
vn -0.596932 0.724498 0.344639
vn -0.596932 0.724498 0.344639
vn -0.596932 0.724498 0.344639
vn -0.596932 0.724498 0.344639
vn 0.000000 0.724497 0.689278
vn 0.000000 0.724497 0.689278
vn 0.000000 0.724497 0.689278
vn 0.000000 0.724497 0.689278
vn 0.596932 0.724498 0.344639
vn 0.596932 0.724498 0.344639
vn 0.596932 0.724498 0.344639
vn 0.596932 0.724498 0.344639
vn 0.596932 0.724498 -0.344639
vn 0.596932 0.724497 -0.344639
vn 0.596932 0.724497 -0.344639
vn 0.596932 0.724498 -0.344639
s off
g pCylinder17 bin
usemtl initialShadingGroup
f 1/7/1 2/8/2 8/15/3 7/14/4
f 2/8/5 3/9/6 9/16/7 8/15/8
f 3/9/9 4/10/10 10/17/11 9/16/12
f 4/10/13 5/11/14 11/18/15 10/17/16
f 5/11/17 6/12/18 12/19/19 11/18/20
f 6/12/21 1/13/22 7/20/23 12/19/24
s 1
f 2/2/25 1/1/26 13/27/27
f 3/3/28 2/2/25 13/27/27
f 4/4/29 3/3/28 13/27/27
f 5/5/30 4/4/29 13/27/27
f 6/6/31 5/5/30 13/27/27
f 1/1/26 6/6/31 13/27/27
s 2
f 26/41/32 27/42/33 28/28/34
f 27/42/33 29/43/35 28/28/34
f 29/43/35 30/44/36 28/28/34
f 30/44/36 31/45/37 28/28/34
f 31/45/37 32/46/38 28/28/34
f 32/46/38 26/41/32 28/28/34
s off
f 7/25/39 8/24/40 15/30/41 14/29/42
f 8/24/43 9/23/44 16/31/45 15/30/46
f 9/23/47 10/22/48 17/32/49 16/31/50
f 10/22/51 11/21/52 18/33/53 17/32/54
f 11/21/55 12/26/56 19/34/57 18/33/58
f 12/26/59 7/25/60 14/29/61 19/34/62
f 14/29/63 15/30/64 21/36/65 20/35/66
f 15/30/67 16/31/68 22/37/69 21/36/70
f 16/31/71 17/32/72 23/38/73 22/37/74
f 17/32/75 18/33/76 24/39/77 23/38/78
f 18/33/79 19/34/80 25/40/81 24/39/82
f 19/34/83 14/29/84 20/35/85 25/40/86
f 20/35/87 21/36/88 27/42/89 26/41/90
f 21/36/91 22/37/92 29/43/93 27/42/94
f 22/37/95 23/38/96 30/44/97 29/43/98
f 23/38/99 24/39/100 31/45/101 30/44/102
f 24/39/103 25/40/104 32/46/105 31/45/106
f 25/40/107 20/35/108 26/41/109 32/46/110
g default
v 22.006094 162.436722 3.765088
v 29.954376 162.436722 3.765088
v 22.006094 174.950790 3.765088
v 29.954376 174.950790 3.765088
v 22.006094 174.950790 -3.765088
v 29.954376 174.950790 -3.765088
v 22.006094 162.436722 -3.765088
v 29.954376 162.436722 -3.765088
v 22.006094 170.147400 -3.765088
v 22.006094 170.147400 3.765088
v 29.954376 170.147400 3.765088
v 29.954376 170.147400 -3.765088
v 0.000002 170.147400 -3.765088
v 0.000002 170.147400 3.765088
v 0.000002 174.950790 3.765088
v 0.000002 174.950790 -3.765088
v -22.006094 162.436722 3.765088
v -29.954367 162.436722 3.765088
v -22.006094 174.950790 3.765088
v -29.954367 174.950790 3.765088
v -22.006094 174.950790 -3.765088
v -29.954367 174.950790 -3.765088
v -22.006094 162.436722 -3.765088
v -29.954367 162.436722 -3.765088
v -22.006094 170.147400 -3.765088
v -22.006094 170.147400 3.765088
v -29.954367 170.147400 3.765088
v -29.954367 170.147400 -3.765088
vt 0.375000 0.000000
vt 0.625000 0.000000
vt 0.375000 0.250000
vt 0.625000 0.250000
vt 0.375000 0.500000
vt 0.625000 0.500000
vt 0.375000 0.750000
vt 0.625000 0.750000
vt 0.875000 0.000000
vt 0.875000 0.250000
vt 0.125000 0.000000
vt 0.125000 0.250000
vt 0.125000 0.154040
vt 0.375000 0.595960
vt 0.375000 0.154040
vt 0.625000 0.154040
vt 0.625000 0.595960
vt 0.875000 0.154040
vt 0.125000 0.154040
vt 0.375000 0.154040
vt 0.375000 0.250000
vt 0.125000 0.250000
vt 0.375000 0.154040
vt 0.625000 0.154040
vt 0.625000 0.250000
vt 0.375000 0.250000
vt 0.625000 0.500000
vt 0.375000 0.500000
vt 0.625000 0.595960
vt 0.375000 0.595960
vt 0.875000 0.154040
vt 0.875000 0.250000
vt 0.125000 0.000000
vt 0.375000 0.000000
vt 0.125000 0.154040
vt 0.625000 0.000000
vt 0.875000 0.000000
vt 0.625000 0.750000
vt 0.375000 0.750000
vt 0.375000 0.154040
vt 0.125000 0.154040
vt 0.375000 0.250000
vt 0.125000 0.250000
vt 0.125000 0.250000
vn 0.000000 0.000000 1.000000
vn 0.000000 0.000000 1.000000
vn 0.000000 0.000000 1.000000
vn 0.000000 0.000000 1.000000
vn 0.000000 1.000000 0.000000
vn 0.000000 1.000000 0.000000
vn 0.000000 1.000000 0.000000
vn 0.000000 1.000000 0.000000
vn 0.000000 0.000000 -1.000000
vn 0.000000 0.000000 -1.000000
vn 0.000000 0.000000 -1.000000
vn 0.000000 0.000000 -1.000000
vn 1.000000 0.000000 0.000000
vn 1.000000 0.000000 0.000000
vn 1.000000 0.000000 0.000000
vn 1.000000 0.000000 0.000000
vn -1.000000 0.000000 0.000000
vn -1.000000 0.000000 0.000000
vn -1.000000 0.000000 0.000000
vn -1.000000 0.000000 0.000000
vn 0.000000 0.000000 1.000000
vn 0.000000 0.000000 1.000000
vn 1.000000 0.000000 0.000000
vn 1.000000 0.000000 0.000000
vn 0.000000 0.000000 -1.000000
vn 0.000000 0.000000 -1.000000
vn 0.000000 -1.000000 0.000000
vn 0.000000 -1.000000 0.000000
vn 0.000000 -1.000000 0.000000
vn 0.000000 -1.000000 0.000000
vn 0.000000 0.000000 1.000000
vn 0.000000 0.000000 1.000000
vn 0.000000 0.000000 1.000000
vn 0.000000 0.000000 1.000000
vn 0.000000 1.000000 0.000000
vn 0.000000 1.000000 0.000000
vn 0.000000 1.000000 0.000000
vn 0.000000 1.000000 0.000000
vn 0.000000 0.000000 -1.000000
vn 0.000000 0.000000 -1.000000
vn 0.000000 0.000000 -1.000000
vn 0.000000 0.000000 -1.000000
vn 0.000000 0.000000 1.000000
vn 0.000000 0.000000 1.000000
vn 0.000000 0.000000 1.000000
vn 0.000000 0.000000 1.000000
vn 0.000000 1.000000 0.000000
vn 0.000000 1.000000 0.000000
vn 0.000000 1.000000 0.000000
vn 0.000000 1.000000 0.000000
vn 0.000000 0.000000 -1.000000
vn 0.000000 0.000000 -1.000000
vn 0.000000 0.000000 -1.000000
vn 0.000000 0.000000 -1.000000
vn -1.000000 0.000000 0.000000
vn -1.000000 0.000000 0.000000
vn -1.000000 0.000000 0.000000
vn -1.000000 0.000000 0.000000
vn 1.000000 0.000000 0.000000
vn 1.000000 0.000000 0.000000
vn 1.000000 0.000000 0.000000
vn 1.000000 0.000000 0.000000
vn 0.000000 0.000000 1.000000
vn 0.000000 0.000000 1.000000
vn -1.000000 0.000000 0.000000
vn -1.000000 0.000000 0.000000
vn 0.000000 0.000000 -1.000000
vn 0.000000 0.000000 -1.000000
vn 0.000000 -1.000000 0.000000
vn 0.000000 -1.000000 0.000000
vn 0.000000 0.000000 1.000000
vn 0.000000 0.000000 1.000000
vn 0.000000 1.000000 0.000000
vn 0.000000 1.000000 0.000000
vn 0.000000 0.000000 -1.000000
vn 0.000000 0.000000 -1.000000
s 1
g bin pCube19
usemtl initialShadingGroup
f 42/61/111 43/62/112 36/50/113 35/49/114
s off
f 35/49/115 36/50/116 38/52/117 37/51/118
s 2
f 37/51/119 38/52/120 44/63/121 41/60/122
s 3
f 43/62/123 44/64/124 38/56/125 36/50/126
s off
f 39/57/127 33/47/128 42/61/129 41/59/130
s 1
f 33/47/131 34/48/132 43/62/112 42/61/111
s 3
f 34/48/133 40/55/134 44/64/124 43/62/123
s 2
f 41/60/122 44/63/121 40/54/135 39/53/136
s 4
f 41/59/137 42/61/138 46/66/139 45/65/140
s 5
f 42/61/141 35/49/142 47/67/143 46/66/144
s 6
f 35/49/145 37/58/146 48/68/147 47/67/148
s 7
f 37/58/149 41/59/150 45/65/151 48/68/152
s 8
f 58/69/153 51/72/154 52/71/155 59/70/156
s off
f 51/72/157 53/74/158 54/73/159 52/71/160
s 9
f 53/74/161 57/76/162 60/75/163 54/73/164
s 10
f 59/70/165 52/71/166 54/78/167 60/77/168
s off
f 55/79/169 57/81/170 58/69/171 49/80/172
s 8
f 49/80/173 58/69/153 59/70/156 50/82/174
s 10
f 50/82/175 59/70/165 60/77/168 56/83/176
s 9
f 57/76/162 55/85/177 56/84/178 60/75/163
s 4
f 57/81/179 45/87/140 46/86/139 58/69/180
s 5
f 58/69/181 46/86/144 47/88/143 51/72/182
s 6
f 51/72/183 47/88/148 48/90/147 53/89/184
s 7
f 53/89/185 48/90/152 45/87/151 57/81/186
