# This file uses centimeters as units for non-parametric coordinates.

mtllib placement_tree.mtl
g default
v 140.175304 258.748993 -88.139626
v 70.751720 258.748993 -148.295578
v -20.173939 258.748993 -161.368759
v -103.733387 258.748993 -123.208450
v -153.396961 258.748993 -45.930363
v -153.396961 258.748993 45.930309
v -103.733387 258.748993 123.208420
v -20.173939 258.748993 161.368759
v 70.751720 258.748993 148.295593
v 140.175304 258.748993 88.139656
v 166.055431 258.748993 0.000000
v 117.199963 517.626404 -73.009964
v 59.693249 517.626404 -122.839806
v -15.624500 517.626404 -133.668884
v -84.840443 517.626404 -102.059021
v -125.979115 517.626404 -38.046154
v -125.979115 517.626404 38.046116
v -84.840565 517.626404 102.059006
v -15.624500 517.626404 133.668884
v 59.693249 517.626404 122.839836
v 117.199963 517.626404 73.009995
v 138.637585 517.626404 0.000000
v 3.050793 545.313904 0.000000
v -24.188221 332.466827 -185.810455
v 80.509533 332.466827 -170.757172
v 160.448376 332.466827 -101.489693
v 190.248424 332.466827 0.000000
v 160.448376 332.466827 101.489738
v 80.509411 332.466827 170.757202
v -24.188343 332.466827 185.810455
v -120.404041 332.466827 141.870193
v -177.589954 332.466827 52.887146
v -177.589954 332.466827 -52.887207
v -120.403919 332.466827 -141.870224
v -26.291126 449.500946 -198.614410
v 85.621105 449.500946 -182.523804
v 171.068493 449.500946 -108.483208
v 202.922008 449.500946 0.000000
v 171.068493 449.500946 108.483253
v 85.621105 449.500946 182.523865
v -26.291248 449.500946 198.614410
v -129.137074 449.500946 151.646286
v -190.263538 449.500946 56.531528
v -190.263538 449.500946 -56.531586
v -129.136952 449.500946 -151.646317
vt 0.375000 0.312500
vt 0.397727 0.312500
vt 0.420455 0.312500
vt 0.443182 0.312500
vt 0.465909 0.312500
vt 0.488636 0.312500
vt 0.511364 0.312500
vt 0.534091 0.312500
vt 0.556818 0.312500
vt 0.579545 0.312500
vt 0.602273 0.312500
vt 0.625000 0.312500
vt 0.375000 0.688440
vt 0.397727 0.688440
vt 0.420455 0.688440
vt 0.443182 0.688440
vt 0.465909 0.688440
vt 0.488636 0.688440
vt 0.511364 0.688440
vt 0.534091 0.688440
vt 0.556818 0.688440
vt 0.579545 0.688440
vt 0.602273 0.688440
vt 0.625000 0.688440
vt 0.631446 0.759275
vt 0.564909 0.701620
vt 0.477763 0.689090
vt 0.397678 0.725664
vt 0.350079 0.799729
vt 0.350079 0.887771
vt 0.397678 0.961836
vt 0.477763 0.998410
vt 0.564909 0.985880
vt 0.631446 0.928225
vt 0.656250 0.843750
vt 0.500000 0.837500
vt 0.420455 0.419553
vt 0.397727 0.419553
vt 0.625000 0.419553
vt 0.375000 0.419553
vt 0.602273 0.419553
vt 0.579545 0.419553
vt 0.556818 0.419553
vt 0.534091 0.419553
vt 0.511364 0.419553
vt 0.488636 0.419553
vt 0.465909 0.419553
vt 0.443182 0.419553
vt 0.420455 0.589509
vt 0.397727 0.589509
vt 0.625000 0.589509
vt 0.375000 0.589509
vt 0.602273 0.589509
vt 0.579545 0.589509
vt 0.556818 0.589509
vt 0.534091 0.589509
vt 0.511364 0.589509
vt 0.488636 0.589509
vt 0.465909 0.589509
vt 0.443182 0.589509
vn 0.624255 -0.302143 -0.720427
vn 0.624255 -0.302143 -0.720427
vn 0.644774 -0.174845 -0.744108
vn 0.644728 -0.175240 -0.744055
vn 0.135527 -0.305150 -0.942611
vn 0.135527 -0.305150 -0.942611
vn 0.140077 -0.176645 -0.974256
vn 0.140064 -0.177168 -0.974163
vn -0.395165 -0.308412 -0.865290
vn -0.395165 -0.308412 -0.865290
vn -0.408729 -0.178689 -0.894992
vn -0.408692 -0.179175 -0.894912
vn -0.799564 -0.310896 -0.513849
vn -0.799564 -0.310896 -0.513849
vn -0.827462 -0.180332 -0.531778
vn -0.827417 -0.180622 -0.531749
vn -0.950141 -0.311821 0.000000
vn -0.950141 -0.311821 0.000000
vn -0.983473 -0.181053 0.000000
vn -0.983473 -0.181053 0.000000
vn -0.799564 -0.310896 0.513849
vn -0.799564 -0.310896 0.513849
vn -0.827417 -0.180622 0.531748
vn -0.827462 -0.180332 0.531777
vn -0.395165 -0.308413 0.865290
vn -0.395165 -0.308413 0.865290
vn -0.408693 -0.179175 0.894912
vn -0.408729 -0.178689 0.894992
vn 0.135527 -0.305150 0.942611
vn 0.135527 -0.305150 0.942611
vn 0.140063 -0.177168 0.974163
vn 0.140077 -0.176645 0.974256
vn 0.624255 -0.302142 0.720428
vn 0.624255 -0.302142 0.720428
vn 0.644727 -0.175241 0.744055
vn 0.644773 -0.174845 0.744108
vn 0.915192 -0.300352 0.268724
vn 0.915192 -0.300352 0.268724
vn 0.944855 -0.174008 0.277434
vn 0.944880 -0.173861 0.277442
vn 0.915192 -0.300350 -0.268725
vn 0.915192 -0.300350 -0.268725
vn 0.944880 -0.173860 -0.277442
vn 0.944855 -0.174007 -0.277434
vn 0.168470 0.979755 -0.108154
vn 0.083450 0.979688 -0.182337
vn -0.000406 1.000000 -0.000000
vn -0.028423 0.979600 -0.198938
vn -0.131758 0.979518 -0.152266
vn -0.193415 0.979469 -0.056845
vn -0.193415 0.979469 0.056845
vn -0.131758 0.979518 0.152266
vn -0.028423 0.979600 0.198938
vn 0.083450 0.979688 0.182337
vn 0.168470 0.979755 0.108154
vn 0.200076 0.979780 0.000000
vn 0.139260 0.206084 -0.968574
vn 0.139155 0.209582 -0.967839
vn 0.641062 0.204203 -0.739825
vn 0.640696 0.206864 -0.739402
vn 0.939381 0.203672 -0.275827
vn 0.939183 0.204662 -0.275769
vn 0.939183 0.204662 0.275769
vn 0.939381 0.203672 0.275827
vn 0.640696 0.206864 0.739402
vn 0.641062 0.204202 0.739825
vn 0.139154 0.209583 0.967838
vn 0.139260 0.206084 0.968574
vn -0.405977 0.211949 0.888966
vn -0.406266 0.208722 0.889597
vn -0.821911 0.213209 0.528209
vn -0.822262 0.211286 0.528435
vn -0.977061 0.212960 0.000000
vn -0.977061 0.212960 0.000000
vn -0.822261 0.211286 -0.528436
vn -0.821910 0.213209 -0.528210
vn -0.406265 0.208723 -0.889597
vn -0.405977 0.211950 -0.888966
vn 0.104664 0.677589 -0.727956
vn 0.104664 0.677589 -0.727956
vn 0.484016 0.673581 -0.558585
vn 0.484016 0.673581 -0.558585
vn 0.711275 0.671171 -0.208849
vn 0.711275 0.671171 -0.208849
vn 0.711274 0.671172 0.208849
vn 0.711274 0.671172 0.208849
vn 0.484016 0.673581 0.558584
vn 0.484016 0.673581 0.558584
vn 0.104664 0.677589 0.727955
vn 0.104664 0.677589 0.727955
vn -0.303861 0.681881 0.665363
vn -0.303861 0.681881 0.665363
vn -0.612801 0.685112 0.393823
vn -0.612801 0.685112 0.393823
vn -0.727313 0.686306 0.000000
vn -0.727313 0.686306 0.000000
vn -0.612801 0.685111 -0.393824
vn -0.612801 0.685111 -0.393824
vn -0.303860 0.681882 -0.665362
vn -0.303860 0.681882 -0.665362
s 1
g pCylinder4 tree
usemtl lambert2SG
f 1/1/1 2/2/2 25/38/3 26/40/4
s 2
f 2/2/5 3/3/6 24/37/7 25/38/8
s 3
f 3/3/9 4/4/10 34/48/11 24/37/12
s 4
f 4/4/13 5/5/14 33/47/15 34/48/16
s 5
f 5/5/17 6/6/18 32/46/19 33/47/20
s 6
f 6/6/21 7/7/22 31/45/23 32/46/24
s 7
f 7/7/25 8/8/26 30/44/27 31/45/28
s 8
f 8/8/29 9/9/30 29/43/31 30/44/32
s 9
f 9/9/33 10/10/34 28/42/35 29/43/36
s 10
f 10/10/37 11/11/38 27/41/39 28/42/40
s 11
f 11/11/41 1/12/42 26/39/43 27/41/44
s 12
f 12/34/45 13/33/46 23/36/47
f 13/33/46 14/32/48 23/36/47
f 14/32/48 15/31/49 23/36/47
f 15/31/49 16/30/50 23/36/47
f 16/30/50 17/29/51 23/36/47
f 17/29/51 18/28/52 23/36/47
f 18/28/52 19/27/53 23/36/47
f 19/27/53 20/26/54 23/36/47
f 20/26/54 21/25/55 23/36/47
f 21/25/55 22/35/56 23/36/47
f 22/35/56 12/34/45 23/36/47
s 2
f 25/38/8 24/37/7 35/49/57 36/50/58
s 1
f 26/40/4 25/38/3 36/50/59 37/52/60
s 11
f 27/41/44 26/39/43 37/51/61 38/53/62
s 10
f 28/42/40 27/41/39 38/53/63 39/54/64
s 9
f 29/43/36 28/42/35 39/54/65 40/55/66
s 8
f 30/44/32 29/43/31 40/55/67 41/56/68
s 7
f 31/45/28 30/44/27 41/56/69 42/57/70
s 6
f 32/46/24 31/45/23 42/57/71 43/58/72
s 5
f 33/47/20 32/46/19 43/58/73 44/59/74
s 4
f 34/48/16 33/47/15 44/59/75 45/60/76
s 3
f 24/37/12 34/48/11 45/60/77 35/49/78
s 2
f 36/50/58 35/49/57 14/15/79 13/14/80
s 1
f 37/52/60 36/50/59 13/14/81 12/13/82
s 11
f 38/53/62 37/51/61 12/24/83 22/23/84
s 10
f 39/54/64 38/53/63 22/23/85 21/22/86
s 9
f 40/55/66 39/54/65 21/22/87 20/21/88
s 8
f 41/56/68 40/55/67 20/21/89 19/20/90
s 7
f 42/57/70 41/56/69 19/20/91 18/19/92
s 6
f 43/58/72 42/57/71 18/19/93 17/18/94
s 5
f 44/59/74 43/58/73 17/18/95 16/17/96
s 4
f 45/60/76 44/59/75 16/17/97 15/16/98
s 3
f 35/49/78 45/60/77 15/16/99 14/15/100
g default
v -85.848377 176.500778 -24.858440
v -95.727650 149.570450 -30.914190
v -103.650135 127.974007 -13.946363
v -103.650135 127.974007 13.267921
v -95.727650 149.570450 30.235750
v -85.848377 176.500778 24.180004
v -81.451771 188.485901 -0.339219
v -129.473499 193.982727 -26.607077
v -140.057240 165.131805 -33.094704
v -148.544788 141.995163 -14.916782
v -148.544788 141.995163 14.238342
v -140.057240 165.131805 32.416267
v -129.473499 193.982727 25.928640
v -124.763294 206.822586 -0.339219
v -93.233997 156.367966 -0.339219
v -141.912708 174.225418 -0.339219
v -97.029652 184.937180 -29.985504
v -91.713612 199.428436 -0.339219
v -97.029652 184.937180 29.307068
v -108.974598 152.375610 36.629101
v -118.553822 126.263268 16.113228
v -118.553822 126.263268 -16.791672
v -108.974598 152.375610 -37.307537
v -116.702381 194.151566 -32.348263
v -110.962635 209.797760 -0.339219
v -116.702381 194.151566 31.669828
v -129.599354 158.994904 39.575409
v -139.941883 130.801437 17.424461
v -139.941883 130.801453 -18.102903
v -129.599354 158.994904 -40.253845
vt 0.597420 0.034089
vt 0.465231 0.003918
vt 0.359224 0.088456
vt 0.359224 0.224044
vt 0.465231 0.308582
vt 0.597420 0.278411
vt 0.656250 0.156250
vt 0.375000 0.312500
vt 0.410714 0.312500
vt 0.446429 0.312500
vt 0.482143 0.312500
vt 0.517857 0.312500
vt 0.553571 0.312500
vt 0.589286 0.312500
vt 0.625000 0.312500
vt 0.375000 0.688440
vt 0.410714 0.688440
vt 0.446429 0.688440
vt 0.482143 0.688440
vt 0.517857 0.688440
vt 0.553571 0.688440
vt 0.589286 0.688440
vt 0.625000 0.688440
vt 0.597420 0.721589
vt 0.465231 0.691418
vt 0.359224 0.775956
vt 0.359224 0.911544
vt 0.465231 0.996082
vt 0.597420 0.965911
vt 0.656250 0.843750
vt 0.500000 0.150000
vt 0.500000 0.837500
vt 0.625000 0.425333
vt 0.375000 0.425333
vt 0.589286 0.425333
vt 0.553571 0.425333
vt 0.517857 0.425333
vt 0.482143 0.425333
vt 0.446429 0.425333
vt 0.410714 0.425333
vt 0.625000 0.607535
vt 0.375000 0.607535
vt 0.589286 0.607535
vt 0.553571 0.607535
vt 0.517857 0.607535
vt 0.482143 0.607535
vt 0.446429 0.607535
vt 0.410714 0.607535
vn 0.441128 0.039784 -0.896562
vn 0.441128 0.039784 -0.896562
vn 0.272584 0.114811 -0.955257
vn 0.273583 0.114391 -0.955022
vn 0.213789 -0.650808 -0.728521
vn 0.213789 -0.650808 -0.728521
vn 0.016540 -0.621464 -0.783268
vn 0.022424 -0.622722 -0.782122
vn 0.114038 -0.993477 0.000000
vn 0.114038 -0.993477 0.000000
vn -0.099919 -0.994996 -0.000000
vn -0.099919 -0.994996 -0.000000
vn 0.213789 -0.650808 0.728521
vn 0.213789 -0.650808 0.728521
vn 0.022424 -0.622721 0.782122
vn 0.016541 -0.621464 0.783268
vn 0.441128 0.039783 0.896562
vn 0.441128 0.039783 0.896562
vn 0.273583 0.114391 0.955022
vn 0.272584 0.114810 0.955257
vn 0.661380 0.620230 0.421772
vn 0.661380 0.620230 0.421772
vn 0.505398 0.736015 0.450394
vn 0.506887 0.735101 0.450214
vn 0.661378 0.620234 -0.421770
vn 0.661378 0.620234 -0.421770
vn 0.506888 0.735099 -0.450215
vn 0.505400 0.736013 -0.450395
vn 0.938823 -0.344400 -0.000001
vn 0.938823 -0.344399 0.000001
vn 0.938823 -0.344401 0.000000
vn 0.938823 -0.344400 -0.000001
vn 0.938821 -0.344406 0.000001
vn 0.938821 -0.344404 0.000001
vn 0.938824 -0.344397 -0.000001
vn 0.938823 -0.344400 -0.000000
vn -0.900298 0.421282 -0.109471
vn -0.939759 0.311930 -0.139832
vn -0.938951 0.344051 -0.000000
vn -0.972002 0.227171 -0.060051
vn -0.972003 0.227168 0.060051
vn -0.939758 0.311931 0.139832
vn -0.900297 0.421285 0.109471
vn -0.884996 0.465598 -0.000000
vn 0.218516 0.860672 -0.459885
vn 0.221288 0.859900 -0.460005
vn 0.221287 0.859901 0.460003
vn 0.218515 0.860673 0.459883
vn -0.011492 0.223385 0.974663
vn -0.009772 0.222789 0.974818
vn -0.296486 -0.520404 0.800797
vn -0.287331 -0.524357 0.801555
vn -0.438659 -0.898654 -0.000000
vn -0.438659 -0.898654 -0.000000
vn -0.287331 -0.524359 -0.801554
vn -0.296486 -0.520406 -0.800796
vn -0.009772 0.222789 -0.974818
vn -0.011492 0.223386 -0.974662
vn -0.192890 0.894747 -0.402767
vn -0.192890 0.894747 -0.402767
vn -0.192891 0.894746 0.402768
vn -0.192891 0.894746 0.402768
vn -0.389895 0.335840 0.857434
vn -0.389895 0.335840 0.857434
vn -0.653300 -0.304829 0.693021
vn -0.653300 -0.304829 0.693021
vn -0.792883 -0.609374 -0.000000
vn -0.792883 -0.609374 -0.000000
vn -0.653299 -0.304834 -0.693020
vn -0.653299 -0.304834 -0.693020
vn -0.389895 0.335840 -0.857434
vn -0.389895 0.335840 -0.857434
s 1
g tree pCylinder6
usemtl lambert2SG
f 46/68/101 47/69/102 68/100/103 62/94/104
s 2
f 47/69/105 48/70/106 67/99/107 68/100/108
s 3
f 48/70/109 49/71/110 66/98/111 67/99/112
s 4
f 49/71/113 50/72/114 65/97/115 66/98/116
s 5
f 50/72/117 51/73/118 64/96/119 65/97/120
s 6
f 51/73/121 52/74/122 63/95/123 64/96/124
s 7
f 52/74/125 46/75/126 62/93/127 63/95/128
s 8
f 47/62/129 46/61/130 60/91/131
f 48/63/132 47/62/129 60/91/131
f 49/64/133 48/63/132 60/91/131
f 50/65/134 49/64/133 60/91/131
f 51/66/135 50/65/134 60/91/131
f 52/67/136 51/66/135 60/91/131
f 46/61/130 52/67/136 60/91/131
s 9
f 53/89/137 54/88/138 61/92/139
f 54/88/138 55/87/140 61/92/139
f 55/87/140 56/86/141 61/92/139
f 56/86/141 57/85/142 61/92/139
f 57/85/142 58/84/143 61/92/139
f 58/84/143 59/90/144 61/92/139
f 59/90/144 53/89/137 61/92/139
s 7
f 63/95/128 62/93/127 69/101/145 70/103/146
s 6
f 64/96/124 63/95/123 70/103/147 71/104/148
s 5
f 65/97/120 64/96/119 71/104/149 72/105/150
s 4
f 66/98/116 65/97/115 72/105/151 73/106/152
s 3
f 67/99/112 66/98/111 73/106/153 74/107/154
s 2
f 68/100/108 67/99/107 74/107/155 75/108/156
s 1
f 62/94/104 68/100/103 75/108/157 69/102/158
s 7
f 70/103/146 69/101/145 53/83/159 59/82/160
s 6
f 71/104/148 70/103/147 59/82/161 58/81/162
s 5
f 72/105/150 71/104/149 58/81/163 57/80/164
s 4
f 73/106/152 72/105/151 57/80/165 56/79/166
s 3
f 74/107/154 73/106/153 56/79/167 55/78/168
s 2
f 75/108/156 74/107/155 55/78/169 54/77/170
s 1
f 69/102/158 75/108/157 54/77/171 53/76/172
g default
v -111.802723 -0.410830 114.853470
v 117.904308 -0.410830 114.853470
v -76.376576 295.256653 79.427376
v 82.478161 295.256653 79.427376
v -76.376576 295.256653 -79.427376
v 82.478161 295.256653 -79.427376
v -111.802723 -0.410830 -114.853470
v 117.904308 -0.410830 -114.853470
v 2.721691 295.256653 -79.427376
v 2.675548 -0.410830 -90.543739
v 2.675548 -0.410830 90.543739
v 2.721691 295.256653 79.427376
v -76.376576 295.256653 0.773573
v -87.492909 -0.410830 0.881842
v 2.721691 -0.410830 0.773575
v 93.594494 -0.410830 0.881842
v 82.478161 295.256653 0.773573
v -52.696644 70.172211 -55.747383
v -52.696644 70.172211 0.542945
v -52.696644 70.172211 55.747383
v 2.819836 70.172211 55.747383
v 58.798229 70.172211 55.747383
v 58.798229 70.172211 0.542945
v 58.798229 70.172211 -55.747383
v 2.819836 70.172211 -55.747383
v -40.901478 158.876068 -43.952221
v -40.901478 158.876068 0.428067
v -40.901478 158.876068 43.952221
v 2.868664 158.876068 43.952221
v 47.003063 158.876068 43.952221
v 47.003063 158.876068 0.428067
v 47.003063 158.876068 -43.952221
v 2.868664 158.876068 -43.952221
vt 0.375000 0.000000
vt 0.625000 0.000000
vt 0.375000 0.250000
vt 0.625000 0.250000
vt 0.375000 0.500000
vt 0.625000 0.500000
vt 0.375000 0.750000
vt 0.625000 0.750000
vt 0.375000 1.000000
vt 0.625000 1.000000
vt 0.875000 0.000000
vt 0.875000 0.250000
vt 0.125000 0.000000
vt 0.125000 0.250000
vt 0.499482 0.500000
vt 0.499482 0.750000
vt 0.499482 0.000000
vt 0.499482 1.000000
vt 0.499482 0.250000
vt 0.251217 0.250000
vt 0.251217 0.000000
vt 0.375000 0.876217
vt 0.499482 0.876217
vt 0.625000 0.876217
vt 0.748783 0.000000
vt 0.748783 0.250000
vt 0.125000 0.111081
vt 0.375000 0.638919
vt 0.251217 0.111081
vt 0.375000 0.111081
vt 0.499482 0.111081
vt 0.625000 0.111081
vt 0.748783 0.111081
vt 0.625000 0.638919
vt 0.875000 0.111081
vt 0.499482 0.638919
vt 0.125000 0.206066
vt 0.375000 0.543934
vt 0.251217 0.206066
vt 0.375000 0.206066
vt 0.499482 0.206066
vt 0.625000 0.206066
vt 0.748783 0.206066
vt 0.625000 0.543934
vt 0.875000 0.206066
vt 0.499482 0.543934
vn 0.000000 -0.129368 0.991597
vn 0.000000 -0.123736 0.992315
vn 0.000000 -0.251741 0.967795
vn 0.000000 -0.251741 0.967795
vn 0.000000 -0.251741 -0.967795
vn 0.000000 -0.251741 -0.967795
vn 0.000000 -0.123736 -0.992315
vn 0.000000 -0.129368 -0.991597
vn 0.000000 -1.000000 0.000000
vn 0.000000 -1.000000 -0.000000
vn 0.000000 -1.000000 0.000000
vn 0.000000 -1.000000 0.000000
vn 0.991597 -0.129368 0.000000
vn 0.992315 -0.123736 0.000000
vn 0.967795 -0.251741 0.000000
vn 0.967795 -0.251741 0.000000
vn -0.992315 -0.123736 0.000000
vn -0.991597 -0.129369 0.000000
vn -0.967795 -0.251742 0.000000
vn -0.967795 -0.251741 0.000000
vn 0.000000 -0.251741 -0.967795
vn 0.000000 -0.129368 -0.991597
vn 0.000000 -1.000000 0.000000
vn 0.000000 -1.000000 0.000000
vn 0.000000 -0.129368 0.991597
vn 0.000000 -0.251741 0.967795
vn -0.991597 -0.129368 0.000000
vn -0.967795 -0.251741 0.000000
vn 0.000000 -1.000000 -0.000000
vn 0.000000 -1.000000 -0.000000
vn 0.000000 -1.000000 0.000000
vn 0.991597 -0.129369 0.000000
vn 0.967794 -0.251742 0.000000
vn -0.848909 0.514746 0.119964
vn -0.855401 0.517967 -0.000360
vn -0.926731 0.375727 0.000209
vn -0.908637 0.408652 0.085922
vn -0.849324 0.513569 -0.122044
vn -0.908799 0.407964 -0.087465
vn 0.121439 0.513912 0.849204
vn 0.000153 0.517969 0.855399
vn -0.000089 0.375724 0.926732
vn 0.087015 0.408165 0.908752
vn -0.086359 0.408457 0.908683
vn -0.120553 0.514413 0.849027
vn 0.849324 0.513571 -0.122044
vn 0.855400 0.517968 -0.000360
vn 0.926730 0.375727 0.000209
vn 0.908798 0.407965 -0.087464
vn 0.908637 0.408652 0.085921
vn 0.848908 0.514746 0.119964
vn -0.000089 0.375724 -0.926732
vn -0.086359 0.408457 -0.908683
vn -0.120553 0.514413 -0.849027
vn 0.000153 0.517969 -0.855399
vn 0.087015 0.408165 -0.908752
vn 0.121439 0.513912 -0.849204
s 1
g tree pCube2
usemtl lambert3SG
f 103/148/173 104/149/174 87/127/175 78/111/176
s 2
f 80/113/177 84/123/178 108/154/179 101/146/180
s 3
f 89/130/181 90/131/182 86/126/183 76/117/184
s 4
f 105/150/185 106/151/186 92/134/187 79/112/188
s 5
f 102/147/189 103/148/190 78/111/191 88/128/192
s 2
f 84/123/178 81/114/193 107/152/194 108/154/179
s 3
f 86/126/183 90/131/182 91/132/195 77/118/196
s 1
f 87/127/175 104/149/174 105/150/197 79/112/198
s 5
f 101/145/199 102/147/189 88/128/192 80/122/200
s 3
f 82/115/201 85/124/202 90/131/182 89/130/181
f 91/132/195 90/131/182 85/124/202 83/116/203
s 4
f 92/134/187 106/151/186 107/153/204 81/120/205
s 5
f 82/121/206 89/129/207 94/137/208 93/135/209
f 89/129/207 76/109/210 95/138/211 94/137/208
s 1
f 76/109/212 86/125/213 96/139/214 95/138/215
f 97/140/216 96/139/214 86/125/213 77/110/217
s 4
f 77/110/218 91/133/219 98/141/220 97/140/221
f 99/143/222 98/141/220 91/133/219 83/119/223
s 2
f 100/144/224 99/142/225 83/116/226 85/124/227
f 93/136/228 100/144/224 85/124/227 82/115/229
s 5
f 93/135/209 94/137/208 102/147/189 101/145/199
f 94/137/208 95/138/211 103/148/190 102/147/189
s 1
f 95/138/215 96/139/214 104/149/174 103/148/173
f 105/150/197 104/149/174 96/139/214 97/140/216
s 4
f 97/140/221 98/141/220 106/151/186 105/150/185
f 107/153/204 106/151/186 98/141/220 99/143/222
s 2
f 108/154/179 107/152/194 99/142/225 100/144/224
f 101/146/180 108/154/179 100/144/224 93/136/228
g default
v -31.745472 127.454872 31.756062
v -30.637440 190.957321 31.756062
v -113.311878 138.674683 21.961031
v -112.545643 182.590057 21.961031
v -113.311878 138.674683 -21.961031
v -112.545643 182.590057 -21.961031
v -31.745472 127.454872 -31.756062
v -30.637440 190.957306 -31.756062
v -112.930287 160.541382 -21.961031
v -31.193226 159.102356 -25.034618
v -31.193226 159.102356 25.034618
v -112.930287 160.541382 21.961031
v -113.311878 138.674683 0.213887
v -31.628285 134.175278 0.243822
v -30.754749 184.236893 0.243822
v -112.545643 182.590057 0.213887
v -112.930287 160.541382 0.213887
v -50.973133 144.135208 -15.413703
v -50.973133 144.135208 0.150120
v -50.973133 144.135208 15.413703
v -50.705311 159.482712 15.413703
v -50.435169 174.957932 15.413703
v -50.435169 174.957932 0.150120
v -50.435169 174.957932 -15.413703
v -50.705311 159.482712 -15.413703
v -75.438343 147.823883 -12.152436
v -75.438343 147.823883 0.118357
v -75.438343 147.823883 12.152436
v -75.227162 159.924118 12.152436
v -75.014271 172.125061 12.152436
v -75.014271 172.125061 0.118357
v -75.014271 172.125061 -12.152436
v -75.227162 159.924118 -12.152436
vt 0.375000 0.000000
vt 0.625000 0.000000
vt 0.375000 0.250000
vt 0.625000 0.250000
vt 0.375000 0.500000
vt 0.625000 0.500000
vt 0.375000 0.750000
vt 0.625000 0.750000
vt 0.875000 0.000000
vt 0.875000 0.250000
vt 0.125000 0.000000
vt 0.125000 0.250000
vt 0.499482 0.500000
vt 0.499482 0.750000
vt 0.499482 0.000000
vt 0.499482 0.250000
vt 0.251217 0.250000
vt 0.375000 0.373783
vt 0.251217 0.000000
vt 0.748783 0.000000
vt 0.625000 0.373783
vt 0.748783 0.250000
vt 0.499482 0.373783
vt 0.125000 0.111081
vt 0.375000 0.638919
vt 0.251217 0.111081
vt 0.375000 0.111081
vt 0.499482 0.111081
vt 0.625000 0.111081
vt 0.748783 0.111081
vt 0.625000 0.638919
vt 0.875000 0.111081
vt 0.499482 0.638919
vt 0.125000 0.206066
vt 0.375000 0.543934
vt 0.251217 0.206066
vt 0.375000 0.206066
vt 0.499482 0.206066
vt 0.625000 0.206066
vt 0.748783 0.206066
vt 0.625000 0.543934
vt 0.875000 0.206066
vt 0.499482 0.543934
vn 0.129349 -0.002257 0.991597
vn 0.123717 -0.002158 0.992315
vn 0.251703 -0.004391 0.967795
vn 0.251703 -0.004393 0.967795
vn -0.999848 0.017449 0.000000
vn -0.999848 0.017446 0.000000
vn -0.999848 0.017446 0.000000
vn -0.999848 0.017450 0.000000
vn 0.251703 -0.004393 -0.967795
vn 0.251703 -0.004391 -0.967795
vn 0.123717 -0.002158 -0.992315
vn 0.129349 -0.002257 -0.991597
vn 0.146649 0.989189 0.000000
vn 0.141030 0.990005 0.000000
vn 0.268588 0.963255 0.000000
vn 0.268588 0.963255 0.000000
vn 0.106404 -0.994323 0.000000
vn 0.112048 -0.993703 0.000000
vn 0.234818 -0.972040 0.000000
vn 0.234817 -0.972040 0.000000
vn 0.251703 -0.004390 -0.967795
vn 0.129349 -0.002255 -0.991597
vn 0.129349 -0.002255 0.991597
vn 0.251703 -0.004390 0.967795
vn -0.999848 0.017443 0.000000
vn -0.999848 0.017443 0.000000
vn 0.112048 -0.993703 0.000000
vn 0.234817 -0.972040 0.000000
vn 0.146649 0.989189 0.000000
vn 0.268588 0.963255 0.000000
vn -0.999848 0.017446 0.000000
vn -0.999848 0.017442 0.000000
vn -0.999848 0.017450 0.000000
vn -0.529474 -0.839801 0.119961
vn -0.532808 -0.846236 -0.000360
vn -0.391836 -0.920035 0.000209
vn -0.424439 -0.901371 0.085920
vn -0.528306 -0.840237 -0.122042
vn -0.423756 -0.901544 -0.087463
vn -0.511713 0.130391 0.849204
vn -0.517886 0.009189 0.855400
vn -0.375667 0.006466 0.926732
vn -0.406583 0.094127 0.908752
vn -0.409902 -0.079224 0.908683
vn -0.516437 -0.111566 0.849026
vn -0.498673 0.858156 -0.122042
vn -0.502962 0.864308 -0.000360
vn -0.359500 0.933145 0.000209
vn -0.392047 0.915778 -0.087463
vn -0.392734 0.915630 0.085920
vn -0.499854 0.857762 0.119961
vn -0.375667 0.006466 -0.926732
vn -0.409902 -0.079224 -0.908683
vn -0.516437 -0.111566 -0.849026
vn -0.517886 0.009189 -0.855400
vn -0.406583 0.094127 -0.908752
vn -0.511713 0.130391 -0.849204
s 1
g tree pCube3
usemtl lambert3SG
f 136/191/230 137/192/231 120/170/232 111/157/233
s 2
f 111/157/234 120/170/235 125/177/236 121/172/237
s 3
f 113/159/238 117/167/239 141/197/240 134/189/241
s 4
f 138/193/242 139/194/243 124/176/244 112/158/245
s 5
f 135/190/246 136/191/247 111/157/248 121/171/249
s 3
f 117/167/239 114/160/250 140/195/251 141/197/240
s 1
f 120/170/232 137/192/231 138/193/252 112/158/253
s 2
f 125/177/236 120/170/235 112/158/254 124/175/255
s 5
f 134/188/256 135/190/246 121/171/249 113/166/257
s 4
f 124/176/244 139/194/243 140/196/258 114/164/259
s 2
f 117/167/260 125/177/236 124/175/255 114/160/261
f 121/172/237 125/177/236 117/167/260 113/159/262
s 5
f 115/165/263 122/173/264 127/180/265 126/178/266
f 122/173/264 109/155/267 128/181/268 127/180/265
s 1
f 109/155/269 119/169/270 129/182/271 128/181/272
f 130/183/273 129/182/271 119/169/270 110/156/274
s 4
f 110/156/275 123/174/276 131/184/277 130/183/278
f 132/186/279 131/184/277 123/174/276 116/163/280
s 3
f 133/187/281 132/185/282 116/162/283 118/168/284
f 126/179/285 133/187/281 118/168/284 115/161/286
s 5
f 126/178/266 127/180/265 135/190/246 134/188/256
f 127/180/265 128/181/268 136/191/247 135/190/246
s 1
f 128/181/272 129/182/271 137/192/231 136/191/230
f 138/193/252 137/192/231 129/182/271 130/183/273
s 4
f 130/183/278 131/184/277 139/194/243 138/193/242
f 140/196/258 139/194/243 131/184/277 132/186/279
s 3
f 141/197/240 140/195/251 132/185/282 133/187/281
f 134/189/241 141/197/240 133/187/281 126/179/285
