# This file uses centimeters as units for non-parametric coordinates.

mtllib placement_bomb.mtl
g default
v 33.847507 69.948166 -33.847504
v 0.000001 69.948166 -47.867599
v -33.847504 69.948166 -33.847504
v -47.867599 69.948166 0.000000
v -33.847504 69.948166 33.847507
v 0.000001 69.948166 47.867607
v 33.847507 69.948166 33.847507
v 47.867607 69.948166 0.000000
v 34.747021 215.187164 -34.747017
v 0.000001 215.187164 -49.139709
v -34.747017 215.187164 -34.747017
v -49.139709 215.187164 0.000000
v -34.747017 215.187164 34.747017
v 0.000001 215.187164 49.139709
v 34.747021 215.187164 34.747021
v 49.139713 215.187164 0.000000
v 0.000000 47.415848 0.000000
v 0.000000 248.679993 0.000000
v 0.000000 189.249054 -60.183506
v 42.556168 189.249054 -42.556168
v 60.183510 189.249054 0.000000
v 42.556175 189.249054 42.556175
v 0.000000 189.249054 60.183506
v -42.556168 189.249054 42.556168
v -60.183506 189.249054 0.000000
v -42.556168 189.249054 -42.556168
v -0.000000 142.075714 -63.521835
v 44.916725 142.075714 -44.916725
v 63.521843 142.075714 0.000000
v 44.916729 142.075714 44.916729
v -0.000000 142.075714 63.521835
v -44.916725 142.075714 44.916725
v -63.521835 142.075714 0.000000
v -44.916725 142.075714 -44.916725
v 0.000000 103.914856 -60.183506
v 42.556168 103.914856 -42.556168
v 60.183510 103.914856 0.000000
v 42.556175 103.914856 42.556175
v 0.000000 103.914856 60.183506
v -42.556168 103.914856 42.556168
v -60.183506 103.914856 0.000000
v -42.556168 103.914856 -42.556168
vt 0.610485 0.045765
vt 0.500000 0.000000
vt 0.389515 0.045765
vt 0.343750 0.156250
vt 0.389515 0.266735
vt 0.500000 0.312500
vt 0.610485 0.266735
vt 0.656250 0.156250
vt 0.375000 0.312500
vt 0.406250 0.312500
vt 0.437500 0.312500
vt 0.468750 0.312500
vt 0.500000 0.312500
vt 0.531250 0.312500
vt 0.562500 0.312500
vt 0.593750 0.312500
vt 0.625000 0.312500
vt 0.375000 0.688440
vt 0.406250 0.688440
vt 0.437500 0.688440
vt 0.468750 0.688440
vt 0.500000 0.688440
vt 0.531250 0.688440
vt 0.562500 0.688440
vt 0.593750 0.688440
vt 0.625000 0.688440
vt 0.610485 0.733265
vt 0.500000 0.687500
vt 0.389515 0.733265
vt 0.343750 0.843750
vt 0.389515 0.954235
vt 0.500000 1.000000
vt 0.610485 0.954235
vt 0.656250 0.843750
vt 0.500000 0.150000
vt 0.500000 0.837500
vt 0.406250 0.621301
vt 0.625000 0.621301
vt 0.375000 0.621301
vt 0.593750 0.621301
vt 0.562500 0.621301
vt 0.531250 0.621301
vt 0.500000 0.621301
vt 0.468750 0.621301
vt 0.437500 0.621301
vt 0.406250 0.499197
vt 0.625000 0.499197
vt 0.375000 0.499197
vt 0.593750 0.499197
vt 0.562500 0.499197
vt 0.531250 0.499197
vt 0.500000 0.499197
vt 0.468750 0.499197
vt 0.437500 0.499197
vt 0.406250 0.353234
vt 0.625000 0.353234
vt 0.375000 0.353234
vt 0.593750 0.353234
vt 0.562500 0.353234
vt 0.531250 0.353234
vt 0.500000 0.353234
vt 0.468750 0.353234
vt 0.437500 0.353234
vn 0.362865 -0.317639 -0.876034
vn 0.362865 -0.317639 -0.876033
vn 0.376278 -0.182191 -0.908417
vn 0.376278 -0.182191 -0.908417
vn -0.362865 -0.317639 -0.876034
vn -0.362865 -0.317639 -0.876034
vn -0.376278 -0.182191 -0.908417
vn -0.376278 -0.182191 -0.908417
vn -0.876033 -0.317639 -0.362865
vn -0.876033 -0.317639 -0.362865
vn -0.908417 -0.182191 -0.376278
vn -0.908417 -0.182191 -0.376278
vn -0.876033 -0.317639 0.362865
vn -0.876034 -0.317639 0.362865
vn -0.908417 -0.182191 0.376278
vn -0.908417 -0.182191 0.376278
vn -0.362865 -0.317639 0.876033
vn -0.362865 -0.317639 0.876033
vn -0.376278 -0.182191 0.908417
vn -0.376278 -0.182191 0.908417
vn 0.362865 -0.317639 0.876033
vn 0.362865 -0.317639 0.876033
vn 0.376278 -0.182191 0.908417
vn 0.376278 -0.182191 0.908417
vn 0.876034 -0.317639 0.362865
vn 0.876034 -0.317639 0.362865
vn 0.908417 -0.182191 0.376278
vn 0.908417 -0.182191 0.376278
vn 0.876033 -0.317639 -0.362865
vn 0.876033 -0.317639 -0.362865
vn 0.908417 -0.182191 -0.376279
vn 0.908417 -0.182191 -0.376279
vn 0.000000 -0.904772 -0.425896
vn 0.301154 -0.904772 -0.301154
vn -0.000000 -1.000000 0.000000
vn -0.301154 -0.904772 -0.301154
vn -0.425896 -0.904772 0.000000
vn -0.301154 -0.904772 0.301154
vn 0.000000 -0.904772 0.425896
vn 0.301154 -0.904772 0.301154
vn 0.425896 -0.904772 0.000000
vn 0.398246 0.826318 -0.398246
vn 0.000000 0.826317 -0.563205
vn 0.000000 1.000000 -0.000000
vn -0.398246 0.826318 -0.398246
vn -0.563205 0.826317 0.000000
vn -0.398246 0.826318 0.398246
vn 0.000000 0.826318 0.563205
vn 0.398246 0.826318 0.398246
vn 0.563205 0.826317 0.000000
vn 0.377619 0.162142 -0.911654
vn 0.377619 0.162142 -0.911654
vn 0.356122 0.366062 -0.859754
vn 0.356122 0.366062 -0.859754
vn 0.911654 0.162142 -0.377620
vn 0.911654 0.162142 -0.377620
vn 0.859753 0.366062 -0.356122
vn 0.859753 0.366062 -0.356122
vn 0.911654 0.162142 0.377619
vn 0.911654 0.162142 0.377619
vn 0.859754 0.366062 0.356122
vn 0.859754 0.366062 0.356122
vn 0.377619 0.162142 0.911654
vn 0.377619 0.162142 0.911654
vn 0.356121 0.366062 0.859754
vn 0.356121 0.366062 0.859754
vn -0.377619 0.162142 0.911654
vn -0.377619 0.162142 0.911654
vn -0.356122 0.366062 0.859754
vn -0.356122 0.366062 0.859754
vn -0.911654 0.162142 0.377619
vn -0.911654 0.162142 0.377619
vn -0.859754 0.366062 0.356122
vn -0.859754 0.366062 0.356122
vn -0.911654 0.162142 -0.377620
vn -0.911654 0.162142 -0.377620
vn -0.859754 0.366062 -0.356122
vn -0.859754 0.366062 -0.356122
vn -0.377619 0.162142 -0.911654
vn -0.377619 0.162142 -0.911654
vn -0.356122 0.366062 -0.859754
vn -0.356122 0.366062 -0.859754
vn 0.382683 0.000149 -0.923880
vn 0.382683 0.000149 -0.923880
vn 0.923880 0.000149 -0.382683
vn 0.923880 0.000149 -0.382683
vn 0.923880 0.000149 0.382683
vn 0.923880 0.000149 0.382683
vn 0.382683 0.000149 0.923880
vn 0.382683 0.000149 0.923880
vn -0.382683 0.000149 0.923880
vn -0.382683 0.000149 0.923880
vn -0.923880 0.000149 0.382683
vn -0.923880 0.000149 0.382683
vn -0.923880 0.000149 -0.382683
vn -0.923880 0.000149 -0.382683
vn -0.382683 0.000149 -0.923880
vn -0.382683 0.000149 -0.923880
s 1
g pCylinder14 bomb
usemtl lambert12SG
f 1/9/1 2/10/2 35/55/3 36/57/4
s 2
f 2/10/5 3/11/6 42/63/7 35/55/8
s 3
f 3/11/9 4/12/10 41/62/11 42/63/12
s 4
f 4/12/13 5/13/14 40/61/15 41/62/16
s 5
f 5/13/17 6/14/18 39/60/19 40/61/20
s 6
f 6/14/21 7/15/22 38/59/23 39/60/24
s 7
f 7/15/25 8/16/26 37/58/27 38/59/28
s 8
f 8/16/29 1/17/30 36/56/31 37/58/32
s 9
f 2/2/33 1/1/34 17/35/35
f 3/3/36 2/2/33 17/35/35
f 4/4/37 3/3/36 17/35/35
f 5/5/38 4/4/37 17/35/35
f 6/6/39 5/5/38 17/35/35
f 7/7/40 6/6/39 17/35/35
f 8/8/41 7/7/40 17/35/35
f 1/1/34 8/8/41 17/35/35
s 10
f 9/33/42 10/32/43 18/36/44
f 10/32/43 11/31/45 18/36/44
f 11/31/45 12/30/46 18/36/44
f 12/30/46 13/29/47 18/36/44
f 13/29/47 14/28/48 18/36/44
f 14/28/48 15/27/49 18/36/44
f 15/27/49 16/34/50 18/36/44
f 16/34/50 9/33/42 18/36/44
s 1
f 20/39/51 19/37/52 10/19/53 9/18/54
s 8
f 21/40/55 20/38/56 9/26/57 16/25/58
s 7
f 22/41/59 21/40/60 16/25/61 15/24/62
s 6
f 23/42/63 22/41/64 15/24/65 14/23/66
s 5
f 24/43/67 23/42/68 14/23/69 13/22/70
s 4
f 25/44/71 24/43/72 13/22/73 12/21/74
s 3
f 26/45/75 25/44/76 12/21/77 11/20/78
s 2
f 19/37/79 26/45/80 11/20/81 10/19/82
s 1
f 28/48/83 27/46/84 19/37/52 20/39/51
s 8
f 29/49/85 28/47/86 20/38/56 21/40/55
s 7
f 30/50/87 29/49/88 21/40/60 22/41/59
s 6
f 31/51/89 30/50/90 22/41/64 23/42/63
s 5
f 32/52/91 31/51/92 23/42/68 24/43/67
s 4
f 33/53/93 32/52/94 24/43/72 25/44/71
s 3
f 34/54/95 33/53/96 25/44/76 26/45/75
s 2
f 27/46/97 34/54/98 26/45/80 19/37/79
s 1
f 36/57/4 35/55/3 27/46/84 28/48/83
s 8
f 37/58/32 36/56/31 28/47/86 29/49/85
s 7
f 38/59/28 37/58/27 29/49/88 30/50/87
s 6
f 39/60/24 38/59/23 30/50/90 31/51/89
s 5
f 40/61/20 39/60/19 31/51/92 32/52/91
s 4
f 41/62/16 40/61/15 32/52/94 33/53/93
s 3
f 42/63/12 41/62/11 33/53/96 34/54/95
s 2
f 35/55/8 42/63/7 34/54/98 27/46/97
g default
v 31.656067 36.409435 -73.817520
v -29.812645 36.409435 -74.581085
v -73.817520 36.409435 -31.656067
v -74.581085 36.409435 29.812645
v -31.656067 36.409435 73.817520
v 29.812645 36.409435 74.581085
v 73.817520 36.409435 31.656067
v 74.581085 36.409435 -29.812641
v 18.378624 36.409435 45.977058
v -17.737656 27.329254 41.361729
v -41.119083 36.409435 16.436724
v -41.310722 36.409435 -17.715782
v -16.117516 36.409435 -40.320549
v 18.076258 36.409435 -42.790943
v 40.822479 36.409435 -16.318161
v 44.556694 36.409435 19.107794
v -29.812645 19.996305 -74.581085
v 31.656067 19.996305 -73.817520
v 74.581085 19.996305 -29.812641
v 73.817520 19.996305 31.656067
v 29.812645 19.996315 74.581085
v -31.656067 10.916124 73.817520
v -74.581085 19.996305 29.812645
v -73.817520 19.996305 -31.656067
v 31.656067 -5.497002 -73.817520
v -29.812645 -5.497002 -74.581085
v -73.817520 -5.497002 -31.656067
v -74.581085 -5.497002 29.812645
v -31.656067 -5.497002 73.817520
v 29.812645 -5.497002 74.581085
v 73.817520 -5.497002 31.656067
v 74.581085 -5.497002 -29.812641
v 18.378624 -5.497002 45.977058
v -17.737656 -5.497002 41.361729
v -41.119083 -5.497002 16.436724
v -41.310722 -5.497002 -17.715782
v -16.117516 -5.497002 -40.320549
v 18.076258 -5.497002 -42.790943
v 40.822479 -5.497002 -16.318161
v 44.556694 -5.497002 19.107794
v 31.656067 74.460922 -73.817520
v -29.812645 74.460922 -74.581085
v -16.117516 57.532928 -40.320549
v 18.076258 57.532928 -42.790943
v -73.817520 74.460922 -31.656067
v -74.581085 74.460922 29.812645
v -41.119083 57.532928 16.436724
v -41.310722 57.532928 -17.715780
v -31.656067 74.460922 73.817520
v 29.812645 74.460922 74.581085
v 18.378624 57.532928 45.977058
v -17.737656 57.532928 41.361729
v 73.817520 74.460922 31.656067
v 74.581100 74.460922 -29.812649
v 40.822487 57.532928 -16.318161
v 44.556694 57.532928 19.107794
v 31.959267 98.017632 -37.271919
v -29.509441 98.017632 -38.035496
v -15.814320 81.089645 -3.774961
v 18.379456 81.089645 -6.245351
v -37.745819 98.839317 -31.574856
v -38.509388 98.839317 29.893856
v -5.047393 81.911354 16.517935
v -5.239033 81.911354 -17.634567
v -30.687227 96.759277 37.639263
v 30.781483 96.759277 38.402828
v 19.347462 79.831299 9.798811
v -16.768812 79.831299 5.183483
v 38.058094 98.719612 32.224937
v 38.821674 98.719612 -29.243776
v 5.063072 81.791634 -15.749292
v 8.797274 81.791634 19.676666
vt 0.375000 0.688440
vt 0.406250 0.688440
vt 0.437500 0.688440
vt 0.468750 0.688440
vt 0.500000 0.688440
vt 0.531250 0.688440
vt 0.562500 0.688440
vt 0.593750 0.688440
vt 0.625000 0.688440
vt 0.610485 0.733265
vt 0.500000 0.687500
vt 0.389515 0.733265
vt 0.343750 0.843750
vt 0.389515 0.954235
vt 0.500000 1.000000
vt 0.610485 0.954235
vt 0.656250 0.843750
vt 0.500000 0.740780
vt 0.438092 0.779094
vt 0.413854 0.840946
vt 0.438169 0.902829
vt 0.500000 0.925352
vt 0.558367 0.899169
vt 0.585524 0.840921
vt 0.566690 0.774583
vt 0.406250 0.500470
vt 0.500000 0.500470
vt 0.375000 0.500470
vt 0.593750 0.500470
vt 0.562500 0.500470
vt 0.531250 0.500470
vt 0.500000 0.500470
vt 0.468750 0.500470
vt 0.437500 0.500470
vt 0.492743 0.821338
vt 0.453125 0.844220
vt 0.500000 0.925352
vt 0.558367 0.899169
vt 0.413507 0.821338
vt 0.438169 0.902829
vt 0.406250 0.766095
vt 0.413854 0.840946
vt 0.444757 0.710852
vt 0.438092 0.779094
vt 0.500000 0.687500
vt 0.500000 0.740780
vt 0.586493 0.710852
vt 0.566690 0.774583
vt 0.625000 0.766095
vt 0.585524 0.840921
vt 0.531250 0.500470
vt 0.531250 0.688440
vt 0.610485 0.954235
vt 0.500000 1.000000
vt 0.500000 0.925352
vt 0.558367 0.899169
vt 0.389515 0.954235
vt 0.343750 0.843750
vt 0.413854 0.840946
vt 0.438169 0.902829
vt 0.389515 0.733265
vt 0.500000 0.687500
vt 0.500000 0.740780
vt 0.438092 0.779094
vt 0.610485 0.733265
vt 0.656250 0.843750
vt 0.585524 0.840921
vt 0.566690 0.774583
vt 0.610485 0.954235
vt 0.500000 1.000000
vt 0.500000 0.925352
vt 0.558367 0.899169
vt 0.389515 0.954235
vt 0.343750 0.843750
vt 0.413854 0.840946
vt 0.438169 0.902829
vt 0.389515 0.733265
vt 0.500000 0.687500
vt 0.500000 0.740780
vt 0.438092 0.779094
vt 0.610485 0.733265
vt 0.656250 0.843750
vt 0.585524 0.840921
vt 0.566690 0.774583
vn 0.008213 0.887712 0.460327
vn 0.008213 0.887712 0.460327
vn 0.008213 0.887712 0.460327
vn 0.008213 0.887712 0.460327
vn 0.000000 1.000000 -0.000000
vn 0.000000 1.000000 -0.000000
vn 0.000000 1.000000 -0.000000
vn 0.000000 1.000000 -0.000000
vn 0.456572 0.889683 0.002731
vn 0.456572 0.889683 0.002731
vn 0.456572 0.889683 0.002731
vn 0.456572 0.889682 0.002731
vn 0.163007 0.986259 -0.026883
vn 0.163007 0.986259 -0.026883
vn 0.163007 0.986259 -0.026883
vn 0.163007 0.986259 -0.026883
vn 0.026673 0.874708 -0.483916
vn 0.026673 0.874708 -0.483916
vn 0.026673 0.874708 -0.483916
vn 0.026673 0.874708 -0.483916
vn 0.000000 1.000000 -0.000000
vn 0.000000 1.000000 -0.000000
vn 0.000000 1.000000 -0.000000
vn 0.000000 1.000000 -0.000000
vn -0.473040 0.880921 0.014502
vn -0.473040 0.880921 0.014502
vn -0.473040 0.880921 0.014502
vn -0.473040 0.880921 0.014502
vn 0.000000 1.000000 0.000000
vn 0.000000 1.000000 0.000000
vn 0.000000 1.000000 0.000000
vn 0.000000 1.000000 0.000000
vn 0.012421 0.000000 -0.999923
vn 0.012421 0.000000 -0.999923
vn 0.012421 0.000000 -0.999923
vn 0.012421 0.000000 -0.999923
vn 0.715835 0.000000 -0.698269
vn 0.715835 0.000000 -0.698269
vn 0.715835 0.000000 -0.698269
vn 0.715835 0.000000 -0.698269
vn 0.999923 0.000000 0.012421
vn 0.999923 0.000000 0.012421
vn 0.999923 0.000000 0.012421
vn 0.999923 0.000000 0.012421
vn 0.698269 0.000000 0.715835
vn 0.698269 0.000000 0.715835
vn 0.698269 0.000000 0.715835
vn 0.698269 0.000000 0.715835
vn -0.012421 0.000000 0.999923
vn -0.012421 0.000000 0.999923
vn -0.012421 0.000000 0.999923
vn -0.012421 0.000000 0.999923
vn -0.715835 0.000000 0.698269
vn -0.715835 0.000000 0.698269
vn -0.715835 0.000000 0.698269
vn -0.715835 0.000000 0.698269
vn -0.999923 0.000000 -0.012421
vn -0.999923 0.000000 -0.012421
vn -0.999923 0.000000 -0.012421
vn -0.999923 0.000000 -0.012421
vn -0.698269 0.000000 -0.715835
vn -0.698269 0.000000 -0.715835
vn -0.698269 0.000000 -0.715835
vn -0.698269 0.000000 -0.715835
vn 0.000000 -1.000000 0.000000
vn 0.000000 -1.000000 0.000000
vn 0.000000 -1.000000 0.000000
vn 0.000000 -1.000000 0.000000
vn 0.000000 -1.000000 0.000000
vn 0.000000 -1.000000 0.000000
vn 0.000000 -1.000000 0.000000
vn 0.000000 -1.000000 0.000000
vn 0.000000 -1.000000 0.000000
vn 0.000000 -1.000000 0.000000
vn 0.000000 -1.000000 0.000000
vn 0.000000 -1.000000 0.000000
vn 0.000000 -1.000000 -0.000000
vn 0.000000 -1.000000 -0.000000
vn 0.000000 -1.000000 -0.000000
vn 0.000000 -1.000000 -0.000000
vn 0.012421 0.000000 -0.999923
vn 0.012421 0.000000 -0.999923
vn 0.999923 0.000000 0.012421
vn 0.999923 0.000000 0.012421
vn -0.012421 0.000000 0.999923
vn -0.012421 0.000000 0.999923
vn -0.999923 0.000000 -0.012421
vn -0.999923 0.000000 -0.012421
vn 0.126760 0.000000 -0.991933
vn 0.126760 0.000000 -0.991933
vn 0.126760 0.000000 -0.991933
vn 0.126760 0.000000 -0.991933
vn 0.999984 0.000000 -0.005611
vn 0.999984 0.000000 -0.005611
vn 0.999984 0.000000 -0.005611
vn 0.999984 0.000000 -0.005611
vn 0.072059 0.000000 0.997400
vn 0.072059 0.000000 0.997400
vn 0.072059 0.000000 0.997400
vn 0.072059 0.000000 0.997400
vn -0.994490 0.000000 0.104828
vn -0.994490 0.000000 0.104828
vn -0.994490 0.000000 0.104828
vn -0.994490 0.000000 0.104828
vn 0.012421 0.000000 -0.999923
vn 0.012421 0.000000 -0.999923
vn 0.010703 0.507515 -0.861576
vn 0.010664 0.512683 -0.858512
vn -0.928562 0.000000 0.371178
vn -0.928562 0.000000 0.371178
vn -0.940310 -0.191881 0.281067
vn -0.940691 -0.183470 0.285375
vn 0.072059 0.000000 0.997400
vn 0.072059 0.000000 0.997400
vn 0.056190 -0.626064 0.777745
vn 0.055469 -0.638325 0.767766
vn 0.916096 0.000000 0.400960
vn 0.916096 0.000000 0.400960
vn 0.932657 -0.208255 0.294585
vn 0.932675 -0.207858 0.294810
vn -0.999923 0.000000 -0.012421
vn -0.999923 0.000000 -0.012421
vn -0.866512 0.499040 -0.010764
vn -0.865095 0.501493 -0.010746
vn 0.371178 0.000000 0.928562
vn 0.371178 0.000000 0.928562
vn 0.279862 -0.190325 0.940986
vn 0.281886 -0.186457 0.941156
vn 0.999984 0.000000 -0.005611
vn 0.999984 0.000000 -0.005611
vn 0.784212 -0.620477 -0.004400
vn 0.783048 -0.621946 -0.004394
vn 0.394130 -0.000000 -0.919055
vn 0.394130 -0.000000 -0.919055
vn 0.298265 -0.196438 -0.934051
vn 0.297332 -0.198173 -0.933981
vn -0.012421 0.000000 0.999923
vn -0.012421 0.000000 0.999923
vn -0.010639 0.516108 0.856458
vn -0.010667 0.512397 0.858682
vn 0.928562 0.000000 -0.371178
vn 0.928562 0.000000 -0.371178
vn 0.944990 -0.196771 -0.261295
vn 0.944719 -0.202907 -0.257556
vn 0.126760 0.000000 -0.991933
vn 0.126760 0.000000 -0.991933
vn 0.100335 -0.611129 -0.785146
vn 0.102461 -0.588760 -0.801788
vn -0.919055 0.000000 -0.394130
vn -0.919055 0.000000 -0.394130
vn -0.934632 -0.175955 -0.309037
vn -0.934505 -0.182977 -0.305320
vn 0.999923 -0.000000 0.012421
vn 0.999923 -0.000000 0.012421
vn 0.869280 0.494203 0.010798
vn 0.865364 0.501028 0.010750
vn -0.371178 -0.000000 -0.928562
vn -0.371178 -0.000000 -0.928562
vn -0.285103 -0.181669 -0.941123
vn -0.287579 -0.176860 -0.941286
vn -0.994490 0.000000 0.104828
vn -0.994490 0.000000 0.104828
vn -0.788975 -0.608771 0.083165
vn -0.775938 -0.625485 0.081791
vn -0.394129 0.000000 0.919055
vn -0.394129 0.000000 0.919055
vn -0.283131 -0.205092 0.936896
vn -0.287883 -0.197078 0.937168
vn 0.006730 0.840473 -0.541811
vn 0.006730 0.840473 -0.541811
vn -0.924098 -0.317672 0.212433
vn -0.924098 -0.317672 0.212433
vn 0.039096 -0.840023 0.541141
vn 0.039096 -0.840023 0.541141
vn 0.914850 -0.342809 0.213379
vn 0.914850 -0.342809 0.213379
vn -0.559922 0.828516 -0.006955
vn -0.559922 0.828516 -0.006955
vn 0.210681 -0.314819 0.925474
vn 0.210681 -0.314819 0.925474
vn 0.559949 -0.828521 -0.003142
vn 0.559949 -0.828521 -0.003142
vn 0.223285 -0.327327 -0.918151
vn 0.223285 -0.327327 -0.918151
vn -0.006516 0.851352 0.524554
vn -0.006516 0.851352 0.524554
vn 0.928061 -0.327634 -0.177083
vn 0.928061 -0.327634 -0.177083
vn 0.066736 -0.850192 -0.522226
vn 0.066736 -0.850192 -0.522226
vn -0.918766 -0.324629 -0.224689
vn -0.918766 -0.324629 -0.224689
vn 0.561459 0.827475 0.006975
vn 0.561459 0.827475 0.006975
vn -0.219509 -0.301819 -0.927750
vn -0.219509 -0.301819 -0.927751
vn -0.559775 -0.826541 0.059005
vn -0.559775 -0.826541 0.059005
vn -0.206733 -0.326372 0.922357
vn -0.206733 -0.326372 0.922357
vn 0.200254 -0.882677 -0.425183
vn 0.200254 -0.882677 -0.425183
vn 0.200254 -0.882677 -0.425183
vn 0.200254 -0.882677 -0.425183
vn 0.371178 0.000000 0.928562
vn 0.371178 0.000000 0.928562
vn 0.371178 0.000000 0.928562
vn 0.371178 0.000000 0.928562
vn -0.919055 0.000000 -0.394130
vn -0.919055 0.000000 -0.394130
vn -0.919055 0.000000 -0.394130
vn -0.919055 0.000000 -0.394129
vn 0.303378 -0.897402 0.320361
vn 0.303378 -0.897402 0.320361
vn 0.303378 -0.897402 0.320361
vn 0.303378 -0.897402 0.320361
vn -0.928562 0.000000 0.371178
vn -0.928562 0.000000 0.371178
vn -0.928562 0.000000 0.371178
vn -0.928562 0.000000 0.371178
vn 0.394130 0.000000 -0.919055
vn 0.394130 0.000000 -0.919055
vn 0.394130 0.000000 -0.919055
vn 0.394130 0.000000 -0.919055
vn -0.347886 -0.869827 -0.349823
vn -0.347886 -0.869827 -0.349823
vn -0.347886 -0.869827 -0.349823
vn -0.347886 -0.869827 -0.349823
vn -0.394129 0.000000 0.919055
vn -0.394129 0.000000 0.919055
vn -0.394129 0.000000 0.919055
vn -0.394129 0.000000 0.919055
vn 0.928562 0.000000 -0.371178
vn 0.928562 0.000000 -0.371178
vn 0.928562 0.000000 -0.371178
vn 0.928562 0.000000 -0.371178
vn -0.329871 -0.892584 0.307374
vn -0.329871 -0.892584 0.307374
vn -0.329871 -0.892584 0.307374
vn -0.329871 -0.892584 0.307374
vn 0.916096 0.000000 0.400960
vn 0.916096 0.000000 0.400960
vn 0.916096 0.000000 0.400960
vn 0.916096 0.000000 0.400960
vn -0.371178 0.000000 -0.928562
vn -0.371178 0.000000 -0.928562
vn -0.371178 0.000000 -0.928562
vn -0.371178 0.000000 -0.928562
s off
g bomb pCylinder16
usemtl lambert11SG
f 99/132/99 100/133/100 101/134/101 102/135/102
f 44/78/103 45/77/104 54/84/105 55/85/106
f 103/136/107 104/137/108 105/138/109 106/139/110
f 46/76/111 47/75/112 52/82/113 53/83/114
f 107/140/115 108/141/116 109/142/117 110/143/118
f 48/74/119 49/73/120 58/88/121 51/81/122
f 111/144/123 112/145/124 113/146/125 114/147/126
f 50/80/127 43/79/128 56/86/129 57/87/130
s 1
f 60/91/131 59/89/132 44/65/133 43/64/134
s off
f 61/92/135 60/90/136 43/72/137 50/71/138
s 2
f 62/93/139 61/92/140 50/71/141 49/70/142
s off
f 63/94/143 62/93/144 49/70/145 48/69/146
s 3
f 64/95/147 63/94/148 48/69/149 47/68/150
s off
f 65/96/151 64/95/152 47/68/153 46/67/154
s 4
f 66/97/155 65/96/156 46/67/157 45/66/158
s off
f 59/89/159 66/97/160 45/66/161 44/65/162
f 67/98/163 80/101/164 79/100/165 68/99/166
f 69/102/167 78/103/168 77/105/169 70/104/170
f 71/106/171 76/107/172 75/109/173 72/108/174
f 73/110/175 82/111/176 81/113/177 74/112/178
s 1
f 60/90/131 67/98/179 68/99/180 59/89/132
s 2
f 62/93/139 73/110/181 74/112/182 61/92/140
s 3
f 64/95/147 71/106/183 72/115/184 63/114/148
s 4
f 66/97/155 69/102/185 70/104/186 65/96/156
s off
f 52/82/187 51/81/188 75/109/189 76/107/190
f 54/84/191 53/83/192 77/105/193 78/103/194
f 56/86/195 55/85/196 79/100/197 80/101/198
f 58/88/199 57/87/200 81/113/201 82/111/202
s 5
f 43/79/203 44/78/204 84/117/205 83/116/206
s 6
f 44/78/207 55/85/208 85/118/209 84/117/210
s 7
f 55/85/211 56/86/212 86/119/213 85/118/214
s 8
f 56/86/215 43/79/216 83/116/217 86/119/218
s 9
f 45/77/219 46/76/220 88/121/221 87/120/222
s 10
f 46/76/223 53/83/224 89/122/225 88/121/226
s 11
f 53/83/227 54/84/228 90/123/229 89/122/230
s 12
f 54/84/231 45/77/232 87/120/233 90/123/234
s 13
f 47/75/235 48/74/236 92/125/237 91/124/238
s 14
f 48/74/239 51/81/240 93/126/241 92/125/242
s 15
f 51/81/243 52/82/244 94/127/245 93/126/246
s 16
f 52/82/247 47/75/248 91/124/249 94/127/250
s 17
f 49/73/251 50/80/252 96/129/253 95/128/254
s 18
f 50/80/255 57/87/256 97/130/257 96/129/258
s 19
f 57/87/259 58/88/260 98/131/261 97/130/262
s 20
f 58/88/263 49/73/264 95/128/265 98/131/266
s 5
f 83/116/206 84/117/205 100/133/267 99/132/268
s 6
f 84/117/210 85/118/209 101/134/269 100/133/270
s 7
f 85/118/214 86/119/213 102/135/271 101/134/272
s 8
f 86/119/218 83/116/217 99/132/273 102/135/274
s 9
f 87/120/222 88/121/221 104/137/275 103/136/276
s 10
f 88/121/226 89/122/225 105/138/277 104/137/278
s 11
f 89/122/230 90/123/229 106/139/279 105/138/280
s 12
f 90/123/234 87/120/233 103/136/281 106/139/282
s 13
f 91/124/238 92/125/237 108/141/283 107/140/284
s 14
f 92/125/242 93/126/241 109/142/285 108/141/286
s 15
f 93/126/246 94/127/245 110/143/287 109/142/288
s 16
f 94/127/250 91/124/249 107/140/289 110/143/290
s 17
f 95/128/254 96/129/253 112/145/291 111/144/292
s 18
f 96/129/258 97/130/257 113/146/293 112/145/294
s 19
f 97/130/262 98/131/261 114/147/295 113/146/296
s 20
f 98/131/266 95/128/265 111/144/297 114/147/298
s off
f 53/83/299 52/82/300 64/95/301 65/96/302
f 70/104/303 77/105/304 53/83/305 65/96/306
f 76/107/307 71/106/308 64/95/309 52/82/310
f 55/85/311 54/84/312 66/97/313 59/89/314
f 59/89/315 68/99/316 79/100/317 55/85/318
f 69/102/319 66/97/320 54/84/321 78/103/322
f 51/81/323 58/88/324 62/93/325 63/94/326
f 73/110/327 62/93/328 58/88/329 82/111/330
f 75/109/331 51/81/332 63/114/333 72/108/334
f 57/87/335 56/86/336 60/90/337 61/92/338
f 67/98/339 60/90/340 56/86/341 80/101/342
f 61/92/343 74/112/344 81/113/345 57/87/346
