# This file uses centimeters as units for non-parametric coordinates.

mtllib placement_pinetree.mtl
g default
v 99.810928 353.094635 -81.190865
v 23.870966 353.094635 -127.542061
v -64.096390 353.094635 -114.235802
v -122.930183 353.094635 -47.498264
v -125.101440 353.094635 41.443268
v -69.594215 353.094635 110.972115
v 17.619059 353.094635 128.554916
v 95.730286 353.094635 85.964447
v 128.190414 353.094635 3.129400
v 54.113495 491.580231 -43.200642
v 13.684503 491.580231 -67.877090
v -33.147617 491.580231 -60.793095
v -64.469597 491.580231 -25.263332
v -65.625534 491.580231 22.087425
v -36.074547 491.580231 59.103226
v 10.356112 491.580231 68.463974
v 51.941036 491.580231 45.789661
v 69.222168 491.580231 1.689859
v 0.000000 568.234070 0.000000
v 73.274467 418.514343 -59.129982
v 93.947617 418.514343 2.293460
v 70.301918 418.514343 62.634995
v 13.401473 418.514343 93.660164
v -50.129379 418.514343 80.851906
v -90.563843 418.514343 30.203352
v -88.982185 418.514343 -34.586460
v -46.124466 418.514343 -83.201683
v 17.955696 418.514343 -92.894676
vt 0.375000 0.312500
vt 0.402778 0.312500
vt 0.430556 0.312500
vt 0.458333 0.312500
vt 0.486111 0.312500
vt 0.513889 0.312500
vt 0.541667 0.312500
vt 0.569445 0.312500
vt 0.597222 0.312500
vt 0.625000 0.312500
vt 0.375000 0.688440
vt 0.402778 0.688440
vt 0.430556 0.688440
vt 0.458333 0.688440
vt 0.486111 0.688440
vt 0.513889 0.688440
vt 0.541667 0.688440
vt 0.569445 0.688440
vt 0.597222 0.688440
vt 0.625000 0.688440
vt 0.619694 0.743314
vt 0.527133 0.689874
vt 0.421875 0.708434
vt 0.353173 0.790309
vt 0.353173 0.897191
vt 0.421875 0.979066
vt 0.527133 0.997626
vt 0.619694 0.944186
vt 0.656250 0.843750
vt 0.500000 0.837500
vt 0.625000 0.490092
vt 0.375000 0.490092
vt 0.597222 0.490092
vt 0.569445 0.490092
vt 0.541667 0.490092
vt 0.513889 0.490092
vt 0.486111 0.490092
vt 0.458333 0.490092
vt 0.430556 0.490092
vt 0.402778 0.490092
vn 0.466140 0.446619 -0.763705
vn 0.466140 0.446619 -0.763705
vn 0.478961 0.393479 -0.784711
vn 0.479152 0.392622 -0.785023
vn -0.133228 0.454423 -0.880767
vn -0.133228 0.454423 -0.880767
vn -0.137025 0.400787 -0.905867
vn -0.137089 0.399803 -0.906291
vn -0.665587 0.461199 -0.586762
vn -0.665587 0.461199 -0.586762
vn -0.685213 0.406928 -0.604064
vn -0.685429 0.406282 -0.604254
vn -0.885648 0.463853 -0.021621
vn -0.885648 0.463853 -0.021621
vn -0.912226 0.409081 -0.022269
vn -0.912226 0.409081 -0.022269
vn -0.693425 0.461199 0.553585
vn -0.693426 0.461199 0.553585
vn -0.714097 0.406282 0.570088
vn -0.713872 0.406928 0.569909
vn -0.176047 0.454422 0.873217
vn -0.176047 0.454422 0.873217
vn -0.181148 0.399803 0.898522
vn -0.181063 0.400787 0.898101
vn 0.428319 0.446619 0.785541
vn 0.428319 0.446619 0.785541
vn 0.440275 0.392622 0.807469
vn 0.440100 0.393479 0.807147
vn 0.835423 0.441470 0.327373
vn 0.835423 0.441470 0.327373
vn 0.858081 0.388114 0.336251
vn 0.857949 0.388451 0.336200
vn 0.850402 0.441471 -0.286218
vn 0.850402 0.441471 -0.286218
vn 0.873332 0.388451 -0.293935
vn 0.873466 0.388115 -0.293980
vn 0.579929 0.670324 -0.462978
vn 0.146655 0.670324 -0.727433
vn -0.000000 1.000000 -0.000000
vn -0.355240 0.670324 -0.651514
vn -0.690915 0.670324 -0.270745
vn -0.703303 0.670324 0.236709
vn -0.386607 0.670324 0.633404
vn 0.110985 0.670324 0.733722
vn 0.556647 0.670324 0.490724
vn 0.741848 0.670324 0.018110
vn 0.903170 0.303121 -0.303978
vn 0.903170 0.303121 -0.303978
vn 0.887261 0.303121 0.347686
vn 0.887261 0.303121 0.347686
vn 0.455581 0.307117 0.835539
vn 0.455581 0.307117 0.835539
vn -0.187687 0.313209 0.930953
vn -0.187687 0.313209 0.930953
vn -0.740796 0.318534 0.591403
vn -0.740796 0.318534 0.591403
vn -0.946923 0.320629 -0.023117
vn -0.946923 0.320629 -0.023117
vn -0.711056 0.318534 -0.626846
vn -0.711056 0.318534 -0.626846
vn -0.142037 0.313209 -0.939002
vn -0.142037 0.313209 -0.939002
vn 0.495808 0.307117 -0.812313
vn 0.495808 0.307117 -0.812313
s 1
g pCylinder3 pinetree
usemtl lambert2SG
f 1/1/1 2/2/2 28/40/3 20/32/4
s 2
f 2/2/5 3/3/6 27/39/7 28/40/8
s 3
f 3/3/9 4/4/10 26/38/11 27/39/12
s 4
f 4/4/13 5/5/14 25/37/15 26/38/16
s 5
f 5/5/17 6/6/18 24/36/19 25/37/20
s 6
f 6/6/21 7/7/22 23/35/23 24/36/24
s 7
f 7/7/25 8/8/26 22/34/27 23/35/28
s 8
f 8/8/29 9/9/30 21/33/31 22/34/32
s 9
f 9/9/33 1/10/34 20/31/35 21/33/36
s 10
f 10/28/37 11/27/38 19/30/39
f 11/27/38 12/26/40 19/30/39
f 12/26/40 13/25/41 19/30/39
f 13/25/41 14/24/42 19/30/39
f 14/24/42 15/23/43 19/30/39
f 15/23/43 16/22/44 19/30/39
f 16/22/44 17/21/45 19/30/39
f 17/21/45 18/29/46 19/30/39
f 18/29/46 10/28/37 19/30/39
s 9
f 21/33/36 20/31/35 10/20/47 18/19/48
s 8
f 22/34/32 21/33/31 18/19/49 17/18/50
s 7
f 23/35/28 22/34/27 17/18/51 16/17/52
s 6
f 24/36/24 23/35/23 16/17/53 15/16/54
s 5
f 25/37/20 24/36/19 15/16/55 14/15/56
s 4
f 26/38/16 25/37/15 14/15/57 13/14/58
s 3
f 27/39/12 26/38/11 13/14/59 12/13/60
s 2
f 28/40/8 27/39/7 12/13/61 11/12/62
s 1
f 20/32/4 28/40/3 11/12/63 10/11/64
g default
v 138.656204 113.554436 -118.491219
v 29.454105 113.554436 -181.539215
v -94.726028 113.554436 -159.642944
v -175.778870 113.554436 -63.047913
v -175.778870 113.554436 63.047890
v -94.726067 113.554436 159.642914
v 29.454046 113.554436 181.539215
v 138.656174 113.554436 118.491241
v 181.783524 113.554436 0.000002
v 76.273247 312.689667 -64.000832
v 17.289753 312.689667 -98.054970
v -49.783806 312.689667 -86.228104
v -93.562965 312.689667 -34.054146
v -93.562965 312.689667 34.054127
v -49.783817 312.689667 86.228088
v 17.289730 312.689667 98.054970
v 76.273224 312.689667 64.000832
v 99.567619 312.689667 0.000000
v 111.185150 176.763123 -94.495743
v 145.578796 176.763123 0.000001
v 111.185112 176.763123 94.495750
v 24.097347 176.763123 144.775955
v -74.935226 176.763123 127.313835
v -139.574142 176.763123 50.280151
v -139.574127 176.763123 -50.280170
v -74.935196 176.763123 -127.313873
v 24.097391 176.763123 -144.775970
vt 0.375000 0.312500
vt 0.402778 0.312500
vt 0.430556 0.312500
vt 0.458333 0.312500
vt 0.486111 0.312500
vt 0.513889 0.312500
vt 0.541667 0.312500
vt 0.569445 0.312500
vt 0.597222 0.312500
vt 0.625000 0.312500
vt 0.375000 0.688440
vt 0.402778 0.688440
vt 0.430556 0.688440
vt 0.458333 0.688440
vt 0.486111 0.688440
vt 0.513889 0.688440
vt 0.541667 0.688440
vt 0.569445 0.688440
vt 0.597222 0.688440
vt 0.625000 0.688440
vt 0.625000 0.431829
vt 0.375000 0.431829
vt 0.597222 0.431829
vt 0.569445 0.431829
vt 0.541667 0.431829
vt 0.513889 0.431829
vt 0.486111 0.431829
vt 0.458333 0.431829
vt 0.430556 0.431829
vt 0.402778 0.431829
vn 0.438835 0.479267 -0.760083
vn 0.438835 0.479267 -0.760083
vn 0.461145 0.386500 -0.798726
vn 0.461386 0.385350 -0.799142
vn -0.151634 0.487317 -0.859959
vn -0.151634 0.487317 -0.859959
vn -0.159621 0.393736 -0.905259
vn -0.159719 0.392418 -0.905814
vn -0.665919 0.494294 -0.558772
vn -0.665919 0.494294 -0.558772
vn -0.702178 0.399740 -0.589197
vn -0.702467 0.398874 -0.589440
vn -0.867737 0.497024 -0.000000
vn -0.867737 0.497024 -0.000000
vn -0.915748 0.401752 -0.000000
vn -0.915748 0.401752 -0.000000
vn -0.665919 0.494294 0.558772
vn -0.665919 0.494294 0.558772
vn -0.702467 0.398874 0.589440
vn -0.702178 0.399740 0.589197
vn -0.151634 0.487317 0.859959
vn -0.151634 0.487317 0.859959
vn -0.159719 0.392418 0.905814
vn -0.159621 0.393736 0.905259
vn 0.438835 0.479267 0.760084
vn 0.438835 0.479267 0.760084
vn 0.461386 0.385350 0.799142
vn 0.461145 0.386500 0.798726
vn 0.827449 0.473947 0.301167
vn 0.827449 0.473947 0.301167
vn 0.868819 0.380994 0.316224
vn 0.868644 0.381445 0.316161
vn 0.827450 0.473947 -0.301167
vn 0.827450 0.473947 -0.301167
vn 0.868644 0.381445 -0.316161
vn 0.868819 0.380994 -0.316224
vn 0.895482 0.303121 -0.325929
vn 0.895482 0.303121 -0.325929
vn 0.895482 0.303121 0.325929
vn 0.895482 0.303121 0.325929
vn 0.475836 0.307117 0.824172
vn 0.475836 0.307117 0.824172
vn -0.164911 0.313209 0.935256
vn -0.164911 0.313209 0.935256
vn -0.726142 0.318534 0.609306
vn -0.726142 0.318534 0.609306
vn -0.947205 0.320629 -0.000000
vn -0.947205 0.320629 -0.000000
vn -0.726142 0.318534 -0.609306
vn -0.726142 0.318534 -0.609306
vn -0.164911 0.313209 -0.935256
vn -0.164911 0.313209 -0.935256
vn 0.475836 0.307118 -0.824172
vn 0.475836 0.307117 -0.824172
s 1
g pinetree pCylinder1
usemtl lambert2SG
f 29/41/65 30/42/66 55/70/67 47/62/68
s 2
f 30/42/69 31/43/70 54/69/71 55/70/72
s 3
f 31/43/73 32/44/74 53/68/75 54/69/76
s 4
f 32/44/77 33/45/78 52/67/79 53/68/80
s 5
f 33/45/81 34/46/82 51/66/83 52/67/84
s 6
f 34/46/85 35/47/86 50/65/87 51/66/88
s 7
f 35/47/89 36/48/90 49/64/91 50/65/92
s 8
f 36/48/93 37/49/94 48/63/95 49/64/96
s 9
f 37/49/97 29/50/98 47/61/99 48/63/100
f 48/63/100 47/61/99 38/60/101 46/59/102
s 8
f 49/64/96 48/63/95 46/59/103 45/58/104
s 7
f 50/65/92 49/64/91 45/58/105 44/57/106
s 6
f 51/66/88 50/65/87 44/57/107 43/56/108
s 5
f 52/67/84 51/66/83 43/56/109 42/55/110
s 4
f 53/68/80 52/67/79 42/55/111 41/54/112
s 3
f 54/69/76 53/68/75 41/54/113 40/53/114
s 2
f 55/70/72 54/69/71 40/53/115 39/52/116
s 1
f 47/62/68 55/70/67 39/52/117 38/51/118
g default
v -110.979897 -1.852173 110.979897
v 110.979897 -1.852173 110.979897
v -82.421867 211.107819 82.421867
v 82.421867 211.107819 82.421867
v -82.421867 211.107819 -82.421867
v 82.421867 211.107819 -82.421867
v -110.979897 -1.852173 -110.979897
v 110.979897 -1.852173 -110.979897
v -0.769244 211.107819 -82.421867
v -0.768344 -1.852173 -82.325356
v -0.768344 -1.852173 82.325356
v -0.769244 211.107819 82.421867
v 82.421867 211.107819 -0.286756
v -82.421867 211.107819 -0.286756
v -82.325356 -1.852173 -0.286420
v -0.670523 -1.852173 -0.249955
v 82.325356 -1.852173 -0.286420
v 55.196556 91.597260 -0.192036
v 55.196556 91.597260 55.196556
v -0.515150 91.597260 55.196556
v -55.196556 91.597260 55.196556
v -55.196556 91.597260 -0.192036
v -55.196556 91.597260 -55.196556
v -0.515150 91.597260 -55.196556
v 55.196556 91.597260 -55.196556
v 71.844261 53.705101 -0.249955
v 71.844261 53.705101 71.844261
v -0.670523 53.705101 71.844261
v -71.844261 53.705101 71.844261
v -71.844261 53.705101 -0.249955
v -71.844261 53.705101 -71.844261
v -0.670523 53.705101 -71.844261
v 71.844261 53.705101 -71.844261
vt 0.375000 0.000000
vt 0.625000 0.000000
vt 0.375000 0.250000
vt 0.625000 0.250000
vt 0.375000 0.500000
vt 0.625000 0.500000
vt 0.375000 0.750000
vt 0.625000 0.750000
vt 0.375000 1.000000
vt 0.625000 1.000000
vt 0.875000 0.000000
vt 0.875000 0.250000
vt 0.125000 0.000000
vt 0.125000 0.250000
vt 0.498833 0.500000
vt 0.498833 0.750000
vt 0.498833 0.000000
vt 0.498833 1.000000
vt 0.498833 0.250000
vt 0.750435 0.250000
vt 0.249565 0.250000
vt 0.249565 0.000000
vt 0.375000 0.874565
vt 0.498833 0.874565
vt 0.625000 0.874565
vt 0.750435 0.000000
vt 0.750435 0.184485
vt 0.625000 0.184485
vt 0.498833 0.184485
vt 0.375000 0.184485
vt 0.249565 0.184485
vt 0.125000 0.184485
vt 0.375000 0.565515
vt 0.498833 0.565515
vt 0.625000 0.565515
vt 0.875000 0.184485
vt 0.750435 0.096663
vt 0.625000 0.096663
vt 0.498833 0.096663
vt 0.375000 0.096663
vt 0.249565 0.096663
vt 0.125000 0.096663
vt 0.375000 0.653337
vt 0.498833 0.653337
vt 0.625000 0.653337
vt 0.875000 0.096663
vn 0.145574 0.360080 0.921494
vn 0.000179 0.364423 0.931234
vn -0.000108 0.376792 0.926298
vn 0.114810 0.369766 0.922004
vn 0.114810 0.369766 -0.922004
vn -0.000108 0.376792 -0.926298
vn 0.000179 0.364423 -0.931234
vn 0.145574 0.360080 -0.921494
vn 0.000000 -1.000000 0.000000
vn 0.000000 -1.000000 0.000000
vn 0.000000 -1.000000 0.000000
vn 0.000000 -1.000000 -0.000000
vn 0.921461 0.360795 -0.144001
vn 0.931234 0.364423 0.000067
vn 0.926298 0.376792 -0.000040
vn 0.921939 0.370329 -0.113517
vn -0.931234 0.364423 0.000067
vn -0.921461 0.360795 -0.144001
vn -0.921939 0.370329 -0.113517
vn -0.926298 0.376792 -0.000040
vn -0.112935 0.370581 -0.921909
vn -0.143293 0.361116 -0.921446
vn 0.000000 -1.000000 0.000000
vn 0.000000 -1.000000 0.000000
vn -0.143293 0.361116 0.921446
vn -0.112935 0.370581 0.921909
vn -0.921479 0.360409 0.144851
vn -0.921974 0.370025 0.114216
vn 0.000000 -1.000000 0.000000
vn 0.000000 -1.000000 -0.000000
vn 0.000000 -1.000000 -0.000000
vn 0.921974 0.370025 0.114216
vn 0.921479 0.360409 0.144851
vn 0.997812 -0.066122 0.000000
vn 0.997068 -0.076525 0.000000
vn 0.975020 -0.222116 0.000000
vn 0.975020 -0.222116 0.000000
vn 0.000000 -0.222116 0.975020
vn 0.000000 -0.076524 0.997068
vn 0.000000 -0.066122 0.997812
vn 0.000000 -0.222116 0.975020
vn 0.000000 -0.066122 0.997812
vn 0.000000 -0.222116 0.975020
vn -0.997068 -0.076525 0.000000
vn -0.997812 -0.066122 0.000000
vn -0.975020 -0.222116 0.000000
vn -0.975020 -0.222116 0.000000
vn -0.997812 -0.066122 0.000000
vn -0.975020 -0.222116 0.000000
vn 0.000000 -0.222116 -0.975020
vn 0.000000 -0.222116 -0.975020
vn 0.000000 -0.076524 -0.997068
vn 0.000000 -0.066122 -0.997812
vn 0.000000 -0.222116 -0.975020
vn 0.000000 -0.066122 -0.997812
vn 0.997812 -0.066122 0.000000
vn 0.975020 -0.222116 0.000000
s 1
g pinetree pCube1
usemtl lambert3SG
f 56/71/119 66/87/120 83/109/121 84/110/122
s 2
f 86/113/123 87/114/124 65/86/125 62/77/126
s 3
f 70/93/127 71/94/128 66/88/129 56/79/130
s 4
f 57/72/131 72/96/132 81/107/133 82/108/134
s 5
f 70/92/135 56/71/136 84/110/137 85/111/138
s 2
f 87/114/124 88/115/139 63/78/140 65/86/125
s 3
f 66/88/129 71/94/128 72/95/141 57/80/142
s 1
f 83/109/121 66/87/120 57/72/143 82/108/144
s 5
f 62/83/145 70/92/135 85/111/138 86/112/146
s 3
f 62/77/147 65/86/148 71/94/128 70/93/127
f 72/95/141 71/94/128 65/86/148 63/78/149
s 4
f 88/116/150 81/107/133 72/96/132 63/81/151
f 74/98/152 73/97/153 68/90/154 59/74/155
s 1
f 67/89/156 75/99/157 74/98/158 59/74/159
f 76/100/160 75/99/157 67/89/156 58/73/161
s 5
f 77/101/162 76/100/163 58/73/164 69/91/165
f 78/102/166 77/101/162 69/91/165 60/84/167
s 2
f 60/75/168 64/85/169 79/104/170 78/103/171
f 64/85/169 61/76/172 80/105/173 79/104/170
s 4
f 68/90/154 73/97/153 80/106/174 61/82/175
f 82/108/134 81/107/133 73/97/153 74/98/152
s 1
f 75/99/157 83/109/121 82/108/144 74/98/158
f 84/110/122 83/109/121 75/99/157 76/100/160
s 5
f 85/111/138 84/110/137 76/100/163 77/101/162
f 86/112/146 85/111/138 77/101/162 78/102/166
s 2
f 78/103/171 79/104/170 87/114/124 86/113/123
f 79/104/170 80/105/173 88/115/139 87/114/124
s 4
f 80/106/174 73/97/153 81/107/133 88/116/150
g default
v 85.782990 231.913025 -129.242493
v -18.222708 231.913025 -155.334213
v -114.667107 231.913025 -108.468002
v -158.422760 231.913025 -10.573090
v -129.015930 231.913025 92.544327
v -40.206387 231.913025 152.634521
v 66.450874 231.913025 141.580597
v 141.049713 231.913025 64.554749
v 148.684601 231.913025 -42.401608
v 47.978119 403.143127 -70.908653
v -8.825836 403.143127 -85.158920
v -61.500080 403.143127 -59.562378
v -85.397751 403.143127 -6.095936
v -69.336868 403.143127 50.222862
v -20.832481 403.143127 83.041809
v 37.419640 403.143127 77.004578
v 78.162697 403.143127 34.936050
v 82.332558 403.143127 -23.479452
v 67.891029 295.778564 -101.634766
v 117.282097 295.778564 -33.446301
v 111.287109 295.778564 50.537075
v 52.711227 295.778564 111.018631
v -31.037281 295.778564 119.698311
v -100.771561 295.778564 72.514801
v -123.862137 295.778564 -8.454182
v -89.504684 295.778564 -85.322380
v -13.775436 295.778564 -122.122276
vt 0.375000 0.312500
vt 0.402778 0.312500
vt 0.430556 0.312500
vt 0.458333 0.312500
vt 0.486111 0.312500
vt 0.513889 0.312500
vt 0.541667 0.312500
vt 0.569445 0.312500
vt 0.597222 0.312500
vt 0.625000 0.312500
vt 0.375000 0.688440
vt 0.402778 0.688440
vt 0.430556 0.688440
vt 0.458333 0.688440
vt 0.486111 0.688440
vt 0.513889 0.688440
vt 0.541667 0.688440
vt 0.569445 0.688440
vt 0.597222 0.688440
vt 0.625000 0.688440
vt 0.625000 0.452718
vt 0.375000 0.452718
vt 0.597222 0.452718
vt 0.569445 0.452718
vt 0.541667 0.452718
vt 0.513889 0.452718
vt 0.486111 0.452718
vt 0.458333 0.452718
vt 0.430556 0.452718
vt 0.402778 0.452718
vn 0.218726 0.438169 -0.871875
vn 0.218726 0.438170 -0.871875
vn 0.225660 0.374098 -0.899516
vn 0.225742 0.373255 -0.899845
vn -0.391213 0.445898 -0.805064
vn -0.391213 0.445898 -0.805064
vn -0.404071 0.381173 -0.831525
vn -0.404246 0.380204 -0.831883
vn -0.814088 0.452614 -0.363869
vn -0.814088 0.452614 -0.363869
vn -0.841772 0.387120 -0.376243
vn -0.842016 0.386483 -0.376352
vn -0.856230 0.455245 0.244178
vn -0.856230 0.455245 0.244178
vn -0.885836 0.389201 0.252621
vn -0.885836 0.389201 0.252621
vn -0.499707 0.452614 0.738535
vn -0.499707 0.452614 0.738535
vn -0.516849 0.386483 0.763871
vn -0.516699 0.387120 0.763649
vn 0.092272 0.445899 0.890315
vn 0.092272 0.445899 0.890315
vn 0.095346 0.380205 0.919975
vn 0.095305 0.381173 0.919578
vn 0.645704 0.438169 0.625359
vn 0.645704 0.438169 0.625359
vn 0.666418 0.373255 0.645421
vn 0.666174 0.374098 0.645184
vn 0.899072 0.433072 0.064179
vn 0.899072 0.433072 0.064179
vn 0.927110 0.368899 0.066180
vn 0.926979 0.369230 0.066171
vn 0.729982 0.433072 -0.528749
vn 0.729982 0.433072 -0.528749
vn 0.752641 0.369230 -0.545161
vn 0.752747 0.368899 -0.545239
vn 0.771765 0.303121 -0.559014
vn 0.771765 0.303121 -0.559014
vn 0.950534 0.303121 0.067852
vn 0.950534 0.303121 0.067852
vn 0.683617 0.307117 0.662078
vn 0.683617 0.307117 0.662078
vn 0.097901 0.313209 0.944625
vn 0.097901 0.313209 0.944625
vn -0.531203 0.318534 0.785085
vn -0.531203 0.318534 0.785085
vn -0.910889 0.320629 0.259766
vn -0.910889 0.320629 0.259766
vn -0.865401 0.318534 -0.386804
vn -0.865401 0.318534 -0.386804
vn -0.415077 0.313209 -0.854173
vn -0.415077 0.313209 -0.854173
vn 0.231568 0.307117 -0.923068
vn 0.231568 0.307117 -0.923068
s 1
g pinetree pCylinder2
usemtl lambert2SG
f 89/117/176 90/118/177 115/146/178 107/138/179
s 2
f 90/118/180 91/119/181 114/145/182 115/146/183
s 3
f 91/119/184 92/120/185 113/144/186 114/145/187
s 4
f 92/120/188 93/121/189 112/143/190 113/144/191
s 5
f 93/121/192 94/122/193 111/142/194 112/143/195
s 6
f 94/122/196 95/123/197 110/141/198 111/142/199
s 7
f 95/123/200 96/124/201 109/140/202 110/141/203
s 8
f 96/124/204 97/125/205 108/139/206 109/140/207
s 9
f 97/125/208 89/126/209 107/137/210 108/139/211
f 108/139/211 107/137/210 98/136/212 106/135/213
s 8
f 109/140/207 108/139/206 106/135/214 105/134/215
s 7
f 110/141/203 109/140/202 105/134/216 104/133/217
s 6
f 111/142/199 110/141/198 104/133/218 103/132/219
s 5
f 112/143/195 111/142/194 103/132/220 102/131/221
s 4
f 113/144/191 112/143/190 102/131/222 101/130/223
s 3
f 114/145/187 113/144/186 101/130/224 100/129/225
s 2
f 115/146/183 114/145/182 100/129/226 99/128/227
s 1
f 107/138/179 115/146/178 99/128/228 98/127/229
