# This file uses centimeters as units for non-parametric coordinates.

mtllib placement_fire.mtl
g default
v -21.581099 0.448562 -61.176651
v -32.708466 0.448562 -50.693657
v -28.581287 0.448562 -35.165615
v -13.326741 0.448562 -30.120565
v -2.199375 0.448562 -40.603558
v -6.326556 0.448562 -56.131599
v -24.602404 17.986183 -72.543968
v -43.875572 17.986183 -54.386890
v -36.727085 17.986183 -27.491529
v -10.305436 17.986183 -18.753248
v 8.967730 17.986183 -36.910328
v 1.819242 17.986183 -63.805683
v -25.002125 41.943020 -74.047882
v -45.352993 41.943020 -54.875507
v -37.804787 41.943020 -26.476238
v -9.905714 41.943020 -17.249336
v 10.445153 41.943020 -36.421707
v 2.896942 41.943020 -64.820976
v -23.203541 65.899857 -67.280899
v -38.705204 65.899857 -52.676922
v -32.955585 65.899857 -31.044628
v -11.704300 65.899857 -24.016312
v 3.797363 65.899857 -38.620293
v -1.952260 65.899857 -60.252586
v -21.581099 83.437477 -61.176651
v -32.708466 83.437477 -50.693657
v -28.581287 83.437477 -35.165615
v -13.326741 83.437477 -30.120565
v -2.199375 83.437477 -40.603558
v -6.326556 83.437477 -56.131599
v -17.453920 -1.650557 -45.648605
v -21.299623 119.275360 -42.025604
vt 0.000000 0.166667
vt 0.166667 0.166667
vt 0.333333 0.166667
vt 0.500000 0.166667
vt 0.666667 0.166667
vt 0.833333 0.166667
vt 1.000000 0.166667
vt 0.000000 0.333333
vt 0.166667 0.333333
vt 0.333333 0.333333
vt 0.500000 0.333333
vt 0.666667 0.333333
vt 0.833333 0.333333
vt 1.000000 0.333333
vt 0.000000 0.500000
vt 0.166667 0.500000
vt 0.333333 0.500000
vt 0.500000 0.500000
vt 0.666667 0.500000
vt 0.833333 0.500000
vt 1.000000 0.500000
vt 0.000000 0.666667
vt 0.166667 0.666667
vt 0.333333 0.666667
vt 0.500000 0.666667
vt 0.666667 0.666667
vt 0.833333 0.666667
vt 1.000000 0.666667
vt 0.000000 0.833333
vt 0.166667 0.833333
vt 0.333333 0.833333
vt 0.500000 0.833333
vt 0.666667 0.833333
vt 0.833333 0.833333
vt 1.000000 0.833333
vt 0.083333 0.000000
vt 0.250000 0.000000
vt 0.416667 0.000000
vt 0.583333 0.000000
vt 0.750000 0.000000
vt 0.916667 0.000000
vt 0.083333 1.000000
vt 0.250000 1.000000
vt 0.416667 1.000000
vt 0.583333 1.000000
vt 0.750000 1.000000
vt 0.916667 1.000000
vn -0.590610 -0.508093 -0.626914
vn -0.590610 -0.508093 -0.626914
vn -0.590610 -0.508093 -0.626914
vn -0.590610 -0.508093 -0.626914
vn -0.842765 -0.489461 0.223998
vn -0.842765 -0.489461 0.223998
vn -0.842765 -0.489461 0.223998
vn -0.842765 -0.489461 0.223998
vn -0.273814 -0.489461 0.827922
vn -0.273814 -0.489461 0.827922
vn -0.273814 -0.489461 0.827922
vn -0.273814 -0.489460 0.827922
vn 0.590610 -0.508093 0.626914
vn 0.590610 -0.508093 0.626914
vn 0.590610 -0.508093 0.626914
vn 0.590610 -0.508093 0.626914
vn 0.842765 -0.489460 -0.223998
vn 0.842765 -0.489461 -0.223998
vn 0.842765 -0.489461 -0.223998
vn 0.842765 -0.489460 -0.223998
vn 0.273814 -0.489461 -0.827922
vn 0.273814 -0.489461 -0.827922
vn 0.273814 -0.489461 -0.827922
vn 0.273814 -0.489461 -0.827922
vn -0.684601 -0.057041 -0.726682
vn -0.684601 -0.057041 -0.726682
vn -0.684601 -0.057041 -0.726682
vn -0.684601 -0.057041 -0.726682
vn -0.965021 -0.054282 0.256492
vn -0.965021 -0.054282 0.256492
vn -0.965021 -0.054282 0.256492
vn -0.965021 -0.054282 0.256492
vn -0.313535 -0.054282 0.948024
vn -0.313535 -0.054282 0.948024
vn -0.313535 -0.054282 0.948024
vn -0.313535 -0.054282 0.948024
vn 0.684601 -0.057041 0.726683
vn 0.684601 -0.057041 0.726683
vn 0.684601 -0.057041 0.726683
vn 0.684601 -0.057041 0.726683
vn 0.965021 -0.054282 -0.256492
vn 0.965021 -0.054282 -0.256492
vn 0.965021 -0.054282 -0.256492
vn 0.965021 -0.054282 -0.256492
vn 0.313535 -0.054282 -0.948024
vn 0.313535 -0.054282 -0.948024
vn 0.313535 -0.054282 -0.948024
vn 0.313535 -0.054282 -0.948024
vn -0.664123 0.248983 -0.704946
vn -0.664123 0.248983 -0.704946
vn -0.664123 0.248983 -0.704946
vn -0.664123 0.248983 -0.704946
vn -0.938770 0.237601 0.249514
vn -0.938770 0.237601 0.249514
vn -0.938770 0.237601 0.249514
vn -0.938770 0.237601 0.249514
vn -0.305006 0.237601 0.922235
vn -0.305006 0.237601 0.922235
vn -0.305006 0.237601 0.922235
vn -0.305006 0.237601 0.922235
vn 0.664123 0.248983 0.704946
vn 0.664123 0.248983 0.704946
vn 0.664123 0.248982 0.704946
vn 0.664123 0.248982 0.704946
vn 0.938770 0.237601 -0.249515
vn 0.938770 0.237601 -0.249515
vn 0.938770 0.237601 -0.249515
vn 0.938770 0.237601 -0.249515
vn 0.305006 0.237601 -0.922235
vn 0.305006 0.237601 -0.922235
vn 0.305006 0.237601 -0.922235
vn 0.305006 0.237601 -0.922235
vn -0.653702 0.301993 -0.693884
vn -0.653702 0.301993 -0.693884
vn -0.653702 0.301993 -0.693884
vn -0.653702 0.301993 -0.693884
vn -0.925326 0.288590 0.245941
vn -0.925326 0.288590 0.245941
vn -0.925326 0.288590 0.245941
vn -0.925326 0.288590 0.245941
vn -0.300638 0.288590 0.909029
vn -0.300638 0.288590 0.909029
vn -0.300638 0.288590 0.909029
vn -0.300638 0.288590 0.909029
vn 0.653701 0.301993 0.693884
vn 0.653701 0.301993 0.693884
vn 0.653701 0.301993 0.693884
vn 0.653701 0.301993 0.693884
vn 0.925326 0.288589 -0.245941
vn 0.925326 0.288589 -0.245941
vn 0.925326 0.288589 -0.245941
vn 0.925326 0.288589 -0.245941
vn 0.300638 0.288589 -0.909029
vn 0.300638 0.288589 -0.909029
vn 0.300638 0.288589 -0.909029
vn 0.300638 0.288589 -0.909029
vn -0.100746 -0.989148 -0.106938
vn -0.100746 -0.989148 -0.106938
vn -0.100746 -0.989148 -0.106938
vn -0.149063 -0.988034 0.039619
vn -0.149062 -0.988034 0.039619
vn -0.149062 -0.988034 0.039619
vn -0.048430 -0.988034 0.146437
vn -0.048430 -0.988034 0.146437
vn -0.048430 -0.988034 0.146437
vn 0.100746 -0.989148 0.106938
vn 0.100746 -0.989148 0.106938
vn 0.100746 -0.989148 0.106938
vn 0.149062 -0.988034 -0.039619
vn 0.149062 -0.988034 -0.039619
vn 0.149062 -0.988034 -0.039619
vn 0.048430 -0.988034 -0.146437
vn 0.048430 -0.988034 -0.146437
vn 0.048430 -0.988034 -0.146437
vn -0.637909 0.366850 -0.677121
vn -0.637909 0.366850 -0.677121
vn -0.637909 0.366850 -0.677121
vn -0.938568 0.238453 0.249461
vn -0.938568 0.238453 0.249461
vn -0.938568 0.238453 0.249461
vn -0.304940 0.238453 0.922037
vn -0.304940 0.238453 0.922037
vn -0.304940 0.238453 0.922037
vn 0.637910 0.366850 0.677121
vn 0.637910 0.366850 0.677121
vn 0.637910 0.366850 0.677121
vn 0.862722 0.450700 -0.229302
vn 0.862722 0.450700 -0.229302
vn 0.862722 0.450700 -0.229302
vn 0.280298 0.450700 -0.847527
vn 0.280298 0.450700 -0.847527
vn 0.280298 0.450700 -0.847527
s off
g pSphere3 fire
usemtl lambert13SG
f 1/1/1 2/2/2 8/9/3 7/8/4
f 2/2/5 3/3/6 9/10/7 8/9/8
f 3/3/9 4/4/10 10/11/11 9/10/12
f 4/4/13 5/5/14 11/12/15 10/11/16
f 5/5/17 6/6/18 12/13/19 11/12/20
f 6/6/21 1/7/22 7/14/23 12/13/24
f 7/8/25 8/9/26 14/16/27 13/15/28
f 8/9/29 9/10/30 15/17/31 14/16/32
f 9/10/33 10/11/34 16/18/35 15/17/36
f 10/11/37 11/12/38 17/19/39 16/18/40
f 11/12/41 12/13/42 18/20/43 17/19/44
f 12/13/45 7/14/46 13/21/47 18/20/48
f 13/15/49 14/16/50 20/23/51 19/22/52
f 14/16/53 15/17/54 21/24/55 20/23/56
f 15/17/57 16/18/58 22/25/59 21/24/60
f 16/18/61 17/19/62 23/26/63 22/25/64
f 17/19/65 18/20/66 24/27/67 23/26/68
f 18/20/69 13/21/70 19/28/71 24/27/72
f 19/22/73 20/23/74 26/30/75 25/29/76
f 20/23/77 21/24/78 27/31/79 26/30/80
f 21/24/81 22/25/82 28/32/83 27/31/84
f 22/25/85 23/26/86 29/33/87 28/32/88
f 23/26/89 24/27/90 30/34/91 29/33/92
f 24/27/93 19/28/94 25/35/95 30/34/96
f 2/2/97 1/1/98 31/36/99
f 3/3/100 2/2/101 31/37/102
f 4/4/103 3/3/104 31/38/105
f 5/5/106 4/4/107 31/39/108
f 6/6/109 5/5/110 31/40/111
f 1/7/112 6/6/113 31/41/114
f 25/29/115 26/30/116 32/42/117
f 26/30/118 27/31/119 32/43/120
f 27/31/121 28/32/122 32/44/123
f 28/32/124 29/33/125 32/45/126
f 29/33/127 30/34/128 32/46/129
f 30/34/130 25/35/131 32/47/132
g default
v 11.340089 -2.041517 -20.966375
v -11.340080 -2.041517 -20.966379
v -22.680166 -2.041517 -0.000004
v -11.340086 -2.041517 20.966377
v 11.340083 -2.041517 20.966377
v 22.680166 -2.041517 0.000000
v 19.641611 23.976667 -36.314831
v -19.641596 23.976667 -36.314838
v -39.283203 23.976667 -0.000006
v -19.641605 23.976667 36.314831
v 19.641600 23.976667 36.314835
v 39.283203 23.976667 0.000000
v 20.739914 59.518166 -38.345448
v -20.739899 59.518166 -38.345455
v -41.479809 59.518166 -0.000007
v -20.739908 59.518166 38.345448
v 20.739902 59.518166 38.345455
v 41.479809 59.518166 -0.000000
v 15.798009 95.059662 -29.208504
v -15.797997 95.059662 -29.208508
v -31.596004 95.059662 -0.000005
v -15.798004 95.059662 29.208502
v 15.798000 95.059662 29.208504
v 31.596004 95.059662 -0.000000
v 11.340089 121.077850 -20.966375
v -11.340080 121.077850 -20.966379
v -22.680166 121.077850 -0.000004
v -11.340086 121.077850 20.966377
v 11.340083 121.077850 20.966377
v 22.680166 121.077850 0.000000
v 0.000000 -5.155693 0.000000
v -7.838438 174.245651 0.000000
vt 0.000000 0.166667
vt 0.166667 0.166667
vt 0.333333 0.166667
vt 0.500000 0.166667
vt 0.666667 0.166667
vt 0.833333 0.166667
vt 1.000000 0.166667
vt 0.000000 0.333333
vt 0.166667 0.333333
vt 0.333333 0.333333
vt 0.500000 0.333333
vt 0.666667 0.333333
vt 0.833333 0.333333
vt 1.000000 0.333333
vt 0.000000 0.500000
vt 0.166667 0.500000
vt 0.333333 0.500000
vt 0.500000 0.500000
vt 0.666667 0.500000
vt 0.833333 0.500000
vt 1.000000 0.500000
vt 0.000000 0.666667
vt 0.166667 0.666667
vt 0.333333 0.666667
vt 0.500000 0.666667
vt 0.666667 0.666667
vt 0.833333 0.666667
vt 1.000000 0.666667
vt 0.000000 0.833333
vt 0.166667 0.833333
vt 0.333333 0.833333
vt 0.500000 0.833333
vt 0.666667 0.833333
vt 0.833333 0.833333
vt 1.000000 0.833333
vt 0.083333 0.000000
vt 0.250000 0.000000
vt 0.416667 0.000000
vt 0.583333 0.000000
vt 0.750000 0.000000
vt 0.916667 0.000000
vt 0.083333 1.000000
vt 0.250000 1.000000
vt 0.416667 1.000000
vt 0.583333 1.000000
vt 0.750000 1.000000
vt 0.916667 1.000000
vn 0.000000 -0.508093 -0.861302
vn 0.000000 -0.508093 -0.861302
vn 0.000000 -0.508093 -0.861302
vn 0.000000 -0.508093 -0.861302
vn -0.767021 -0.489460 -0.414859
vn -0.767021 -0.489460 -0.414859
vn -0.767021 -0.489460 -0.414859
vn -0.767021 -0.489460 -0.414859
vn -0.767021 -0.489461 0.414858
vn -0.767021 -0.489461 0.414858
vn -0.767021 -0.489461 0.414858
vn -0.767021 -0.489461 0.414858
vn -0.000000 -0.508093 0.861302
vn -0.000000 -0.508093 0.861302
vn -0.000000 -0.508093 0.861302
vn -0.000000 -0.508093 0.861302
vn 0.767021 -0.489461 0.414858
vn 0.767021 -0.489461 0.414858
vn 0.767021 -0.489460 0.414858
vn 0.767021 -0.489460 0.414858
vn 0.767021 -0.489460 -0.414858
vn 0.767021 -0.489461 -0.414858
vn 0.767021 -0.489461 -0.414858
vn 0.767021 -0.489460 -0.414858
vn 0.000000 -0.057041 -0.998372
vn 0.000000 -0.057041 -0.998372
vn 0.000000 -0.057041 -0.998372
vn 0.000000 -0.057041 -0.998372
vn -0.878288 -0.054282 -0.475040
vn -0.878288 -0.054282 -0.475040
vn -0.878288 -0.054282 -0.475040
vn -0.878288 -0.054282 -0.475040
vn -0.878289 -0.054282 0.475040
vn -0.878289 -0.054282 0.475040
vn -0.878289 -0.054282 0.475040
vn -0.878289 -0.054282 0.475040
vn -0.000000 -0.057041 0.998372
vn -0.000000 -0.057041 0.998372
vn -0.000000 -0.057041 0.998372
vn -0.000000 -0.057041 0.998372
vn 0.878289 -0.054282 0.475040
vn 0.878289 -0.054282 0.475040
vn 0.878289 -0.054282 0.475040
vn 0.878289 -0.054282 0.475040
vn 0.878289 -0.054282 -0.475040
vn 0.878289 -0.054282 -0.475040
vn 0.878289 -0.054282 -0.475040
vn 0.878289 -0.054282 -0.475040
vn 0.000000 0.248982 -0.968508
vn 0.000000 0.248982 -0.968508
vn 0.000000 0.248982 -0.968508
vn 0.000000 0.248982 -0.968508
vn -0.854397 0.237601 -0.462118
vn -0.854396 0.237601 -0.462118
vn -0.854397 0.237601 -0.462118
vn -0.854396 0.237601 -0.462118
vn -0.854397 0.237601 0.462117
vn -0.854397 0.237601 0.462117
vn -0.854397 0.237601 0.462117
vn -0.854397 0.237601 0.462117
vn -0.000000 0.248982 0.968508
vn -0.000000 0.248982 0.968508
vn -0.000000 0.248982 0.968508
vn -0.000000 0.248982 0.968508
vn 0.854397 0.237601 0.462117
vn 0.854397 0.237601 0.462117
vn 0.854396 0.237601 0.462117
vn 0.854396 0.237601 0.462117
vn 0.854397 0.237601 -0.462117
vn 0.854397 0.237601 -0.462117
vn 0.854397 0.237601 -0.462117
vn 0.854397 0.237601 -0.462117
vn 0.000000 0.301993 -0.953310
vn 0.000000 0.301993 -0.953310
vn 0.000000 0.301993 -0.953310
vn 0.000000 0.301993 -0.953310
vn -0.842161 0.288589 -0.455500
vn -0.842162 0.288589 -0.455500
vn -0.842162 0.288589 -0.455500
vn -0.842161 0.288589 -0.455500
vn -0.842162 0.288589 0.455500
vn -0.842162 0.288589 0.455500
vn -0.842162 0.288589 0.455500
vn -0.842162 0.288589 0.455500
vn 0.000000 0.301993 0.953310
vn 0.000000 0.301993 0.953310
vn 0.000000 0.301993 0.953310
vn 0.000000 0.301993 0.953310
vn 0.842162 0.288589 0.455500
vn 0.842162 0.288589 0.455500
vn 0.842162 0.288589 0.455500
vn 0.842161 0.288589 0.455500
vn 0.842162 0.288590 -0.455500
vn 0.842162 0.288590 -0.455500
vn 0.842162 0.288590 -0.455500
vn 0.842162 0.288590 -0.455500
vn 0.000000 -0.989148 -0.146920
vn 0.000000 -0.989148 -0.146920
vn 0.000000 -0.989148 -0.146920
vn -0.135665 -0.988034 -0.073377
vn -0.135665 -0.988034 -0.073377
vn -0.135665 -0.988034 -0.073377
vn -0.135665 -0.988034 0.073377
vn -0.135665 -0.988034 0.073377
vn -0.135665 -0.988034 0.073377
vn 0.000000 -0.989148 0.146920
vn 0.000000 -0.989148 0.146920
vn 0.000000 -0.989148 0.146920
vn 0.135665 -0.988034 0.073377
vn 0.135665 -0.988034 0.073377
vn 0.135665 -0.988034 0.073377
vn 0.135665 -0.988034 -0.073377
vn 0.135665 -0.988034 -0.073377
vn 0.135665 -0.988034 -0.073377
vn 0.000000 0.366850 -0.930280
vn 0.000000 0.366850 -0.930280
vn 0.000000 0.366850 -0.930280
vn -0.854213 0.238453 -0.462018
vn -0.854213 0.238453 -0.462018
vn -0.854213 0.238453 -0.462018
vn -0.854213 0.238453 0.462018
vn -0.854213 0.238452 0.462018
vn -0.854213 0.238453 0.462018
vn 0.000000 0.366850 0.930280
vn 0.000000 0.366850 0.930280
vn 0.000000 0.366850 0.930280
vn 0.785184 0.450700 0.424683
vn 0.785184 0.450700 0.424683
vn 0.785184 0.450700 0.424683
vn 0.785184 0.450700 -0.424682
vn 0.785184 0.450700 -0.424682
vn 0.785184 0.450700 -0.424682
s off
g fire pSphere1
usemtl lambert13SG
f 33/48/133 34/49/134 40/56/135 39/55/136
f 34/49/137 35/50/138 41/57/139 40/56/140
f 35/50/141 36/51/142 42/58/143 41/57/144
f 36/51/145 37/52/146 43/59/147 42/58/148
f 37/52/149 38/53/150 44/60/151 43/59/152
f 38/53/153 33/54/154 39/61/155 44/60/156
f 39/55/157 40/56/158 46/63/159 45/62/160
f 40/56/161 41/57/162 47/64/163 46/63/164
f 41/57/165 42/58/166 48/65/167 47/64/168
f 42/58/169 43/59/170 49/66/171 48/65/172
f 43/59/173 44/60/174 50/67/175 49/66/176
f 44/60/177 39/61/178 45/68/179 50/67/180
f 45/62/181 46/63/182 52/70/183 51/69/184
f 46/63/185 47/64/186 53/71/187 52/70/188
f 47/64/189 48/65/190 54/72/191 53/71/192
f 48/65/193 49/66/194 55/73/195 54/72/196
f 49/66/197 50/67/198 56/74/199 55/73/200
f 50/67/201 45/68/202 51/75/203 56/74/204
f 51/69/205 52/70/206 58/77/207 57/76/208
f 52/70/209 53/71/210 59/78/211 58/77/212
f 53/71/213 54/72/214 60/79/215 59/78/216
f 54/72/217 55/73/218 61/80/219 60/79/220
f 55/73/221 56/74/222 62/81/223 61/80/224
f 56/74/225 51/75/226 57/82/227 62/81/228
f 34/49/229 33/48/230 63/83/231
f 35/50/232 34/49/233 63/84/234
f 36/51/235 35/50/236 63/85/237
f 37/52/238 36/51/239 63/86/240
f 38/53/241 37/52/242 63/87/243
f 33/54/244 38/53/245 63/88/246
f 57/76/247 58/77/248 64/89/249
f 58/77/250 59/78/251 64/90/252
f 59/78/253 60/79/254 64/91/255
f 60/79/256 61/80/257 64/92/258
f 61/80/259 62/81/260 64/93/261
f 62/81/262 57/82/263 64/94/264
g default
v -67.392021 -1.017920 33.221138
v -40.690498 -1.017920 30.909161
v -29.477018 -1.017920 5.069303
v -44.965061 -1.017920 -18.458572
v -71.666580 -1.017920 -16.146587
v -82.880058 -1.017920 9.693272
v -75.600861 29.728081 52.137230
v -29.352461 29.728081 48.132759
v -9.930147 29.728081 3.376814
v -36.756226 29.728081 -37.374660
v -83.004616 29.728081 -33.370186
v -102.426926 29.728081 11.385764
v -76.686905 71.727898 54.639858
v -27.852427 71.727898 50.411465
v -7.344069 71.727898 3.152896
v -35.670185 71.727898 -39.877285
v -84.504662 71.727898 -35.648895
v -105.013008 71.727898 11.609683
v -71.800163 113.727715 43.379093
v -34.601967 113.727715 40.158241
v -18.980343 113.727715 4.160437
v -40.556915 113.727715 -28.616514
v -77.755112 113.727715 -25.395662
v -93.376732 113.727715 10.602141
v -67.392021 144.473709 33.221138
v -40.690498 144.473709 30.909161
v -29.477018 144.473709 5.069303
v -44.965061 144.473709 -18.458572
v -71.666580 144.473709 -16.146587
v -82.880058 144.473709 9.693272
v -56.178539 -4.697980 7.381286
v -46.950291 207.302750 6.582245
vt 0.000000 0.166667
vt 0.166667 0.166667
vt 0.333333 0.166667
vt 0.500000 0.166667
vt 0.666667 0.166667
vt 0.833333 0.166667
vt 1.000000 0.166667
vt 0.000000 0.333333
vt 0.166667 0.333333
vt 0.333333 0.333333
vt 0.500000 0.333333
vt 0.666667 0.333333
vt 0.833333 0.333333
vt 1.000000 0.333333
vt 0.000000 0.500000
vt 0.166667 0.500000
vt 0.333333 0.500000
vt 0.500000 0.500000
vt 0.666667 0.500000
vt 0.833333 0.500000
vt 1.000000 0.500000
vt 0.000000 0.666667
vt 0.166667 0.666667
vt 0.333333 0.666667
vt 0.500000 0.666667
vt 0.666667 0.666667
vt 0.833333 0.666667
vt 1.000000 0.666667
vt 0.000000 0.833333
vt 0.166667 0.833333
vt 0.333333 0.833333
vt 0.500000 0.833333
vt 0.666667 0.833333
vt 0.833333 0.833333
vt 1.000000 0.833333
vt 0.083333 0.000000
vt 0.250000 0.000000
vt 0.416667 0.000000
vt 0.583333 0.000000
vt 0.750000 0.000000
vt 0.916667 0.000000
vt 0.083333 1.000000
vt 0.250000 1.000000
vt 0.416667 1.000000
vt 0.583333 1.000000
vt 0.750000 1.000000
vt 0.916667 1.000000
vn 0.074299 -0.508093 0.858092
vn 0.074299 -0.508093 0.858092
vn 0.074299 -0.508093 0.858092
vn 0.074299 -0.508093 0.858092
vn 0.799949 -0.489461 0.347146
vn 0.799949 -0.489461 0.347146
vn 0.799949 -0.489461 0.347146
vn 0.799949 -0.489461 0.347146
vn 0.728374 -0.489460 -0.479478
vn 0.728374 -0.489460 -0.479478
vn 0.728374 -0.489461 -0.479478
vn 0.728375 -0.489460 -0.479478
vn -0.074299 -0.508093 -0.858092
vn -0.074299 -0.508093 -0.858092
vn -0.074299 -0.508093 -0.858092
vn -0.074299 -0.508093 -0.858092
vn -0.799949 -0.489461 -0.347146
vn -0.799949 -0.489461 -0.347146
vn -0.799949 -0.489461 -0.347146
vn -0.799949 -0.489461 -0.347146
vn -0.728375 -0.489460 0.479478
vn -0.728375 -0.489460 0.479478
vn -0.728375 -0.489460 0.479478
vn -0.728375 -0.489460 0.479478
vn 0.086123 -0.057041 0.994650
vn 0.086123 -0.057041 0.994650
vn 0.086123 -0.057041 0.994650
vn 0.086123 -0.057041 0.994650
vn 0.915993 -0.054282 0.397505
vn 0.915993 -0.054282 0.397505
vn 0.915993 -0.054282 0.397505
vn 0.915993 -0.054282 0.397505
vn 0.834036 -0.054282 -0.549033
vn 0.834036 -0.054282 -0.549033
vn 0.834036 -0.054282 -0.549033
vn 0.834036 -0.054282 -0.549033
vn -0.086123 -0.057041 -0.994650
vn -0.086123 -0.057041 -0.994650
vn -0.086123 -0.057041 -0.994650
vn -0.086123 -0.057041 -0.994650
vn -0.915993 -0.054282 -0.397505
vn -0.915993 -0.054282 -0.397505
vn -0.915993 -0.054282 -0.397505
vn -0.915993 -0.054282 -0.397505
vn -0.834036 -0.054282 0.549033
vn -0.834036 -0.054282 0.549033
vn -0.834036 -0.054282 0.549033
vn -0.834036 -0.054282 0.549033
vn 0.083547 0.248982 0.964898
vn 0.083547 0.248982 0.964898
vn 0.083547 0.248982 0.964898
vn 0.083547 0.248982 0.964898
vn 0.891075 0.237601 0.386692
vn 0.891075 0.237601 0.386692
vn 0.891075 0.237601 0.386692
vn 0.891075 0.237601 0.386692
vn 0.811348 0.237601 -0.534098
vn 0.811348 0.237601 -0.534098
vn 0.811348 0.237601 -0.534098
vn 0.811348 0.237601 -0.534098
vn -0.083547 0.248983 -0.964898
vn -0.083547 0.248983 -0.964898
vn -0.083547 0.248983 -0.964898
vn -0.083547 0.248983 -0.964898
vn -0.891076 0.237601 -0.386691
vn -0.891075 0.237601 -0.386691
vn -0.891075 0.237601 -0.386691
vn -0.891075 0.237601 -0.386691
vn -0.811348 0.237601 0.534098
vn -0.811348 0.237601 0.534098
vn -0.811348 0.237601 0.534098
vn -0.811348 0.237601 0.534098
vn 0.082236 0.301993 0.949757
vn 0.082236 0.301993 0.949757
vn 0.082236 0.301993 0.949757
vn 0.082236 0.301993 0.949757
vn 0.878315 0.288590 0.381154
vn 0.878315 0.288590 0.381154
vn 0.878315 0.288590 0.381154
vn 0.878315 0.288590 0.381154
vn 0.799729 0.288589 -0.526450
vn 0.799729 0.288589 -0.526450
vn 0.799729 0.288589 -0.526450
vn 0.799729 0.288589 -0.526450
vn -0.082236 0.301993 -0.949757
vn -0.082236 0.301993 -0.949757
vn -0.082236 0.301993 -0.949757
vn -0.082236 0.301993 -0.949757
vn -0.878315 0.288589 -0.381154
vn -0.878315 0.288589 -0.381154
vn -0.878315 0.288589 -0.381154
vn -0.878315 0.288589 -0.381154
vn -0.799729 0.288590 0.526450
vn -0.799729 0.288590 0.526450
vn -0.799729 0.288590 0.526450
vn -0.799729 0.288590 0.526450
vn 0.012674 -0.989148 0.146372
vn 0.012674 -0.989148 0.146372
vn 0.012674 -0.989148 0.146372
vn 0.141489 -0.988034 0.061401
vn 0.141489 -0.988034 0.061401
vn 0.141489 -0.988034 0.061401
vn 0.128830 -0.988034 -0.084807
vn 0.128830 -0.988034 -0.084807
vn 0.128830 -0.988034 -0.084807
vn -0.012674 -0.989148 -0.146372
vn -0.012674 -0.989148 -0.146372
vn -0.012674 -0.989148 -0.146372
vn -0.141489 -0.988034 -0.061401
vn -0.141489 -0.988034 -0.061401
vn -0.141490 -0.988034 -0.061401
vn -0.128830 -0.988034 0.084807
vn -0.128830 -0.988034 0.084807
vn -0.128830 -0.988034 0.084807
vn 0.080249 0.366850 0.926812
vn 0.080249 0.366850 0.926812
vn 0.080249 0.366850 0.926813
vn 0.890884 0.238453 0.386609
vn 0.890884 0.238453 0.386609
vn 0.890884 0.238453 0.386609
vn 0.811173 0.238452 -0.533983
vn 0.811173 0.238452 -0.533983
vn 0.811173 0.238452 -0.533983
vn -0.080249 0.366850 -0.926812
vn -0.080249 0.366850 -0.926812
vn -0.080249 0.366850 -0.926812
vn -0.818892 0.450700 -0.355367
vn -0.818892 0.450700 -0.355367
vn -0.818892 0.450700 -0.355367
vn -0.745623 0.450700 0.490832
vn -0.745623 0.450700 0.490832
vn -0.745623 0.450700 0.490832
s off
g fire pSphere2
usemtl lambert13SG
f 65/95/265 66/96/266 72/103/267 71/102/268
f 66/96/269 67/97/270 73/104/271 72/103/272
f 67/97/273 68/98/274 74/105/275 73/104/276
f 68/98/277 69/99/278 75/106/279 74/105/280
f 69/99/281 70/100/282 76/107/283 75/106/284
f 70/100/285 65/101/286 71/108/287 76/107/288
f 71/102/289 72/103/290 78/110/291 77/109/292
f 72/103/293 73/104/294 79/111/295 78/110/296
f 73/104/297 74/105/298 80/112/299 79/111/300
f 74/105/301 75/106/302 81/113/303 80/112/304
f 75/106/305 76/107/306 82/114/307 81/113/308
f 76/107/309 71/108/310 77/115/311 82/114/312
f 77/109/313 78/110/314 84/117/315 83/116/316
f 78/110/317 79/111/318 85/118/319 84/117/320
f 79/111/321 80/112/322 86/119/323 85/118/324
f 80/112/325 81/113/326 87/120/327 86/119/328
f 81/113/329 82/114/330 88/121/331 87/120/332
f 82/114/333 77/115/334 83/122/335 88/121/336
f 83/116/337 84/117/338 90/124/339 89/123/340
f 84/117/341 85/118/342 91/125/343 90/124/344
f 85/118/345 86/119/346 92/126/347 91/125/348
f 86/119/349 87/120/350 93/127/351 92/126/352
f 87/120/353 88/121/354 94/128/355 93/127/356
f 88/121/357 83/122/358 89/129/359 94/128/360
f 66/96/361 65/95/362 95/130/363
f 67/97/364 66/96/365 95/131/366
f 68/98/367 67/97/368 95/132/369
f 69/99/370 68/98/371 95/133/372
f 70/100/373 69/99/374 95/134/375
f 65/101/376 70/100/377 95/135/378
f 89/123/379 90/124/380 96/136/381
f 90/124/382 91/125/383 96/137/384
f 91/125/385 92/126/386 96/138/387
f 92/126/388 93/127/389 96/139/390
f 93/127/391 94/128/392 96/140/393
f 94/128/394 89/129/395 96/141/396
