# This file uses centimeters as units for non-parametric coordinates.

mtllib tree.mtl
g default
v -115.314941 -0.410830 114.853470
v 114.392090 -0.410830 114.853470
v -79.888794 295.256653 79.427376
v 78.965942 295.256653 79.427376
v -79.888794 295.256653 -79.427376
v 78.965942 295.256653 -79.427376
v -115.314941 -0.410830 -114.853470
v 114.392090 -0.410830 -114.853470
v -0.790527 295.256653 -79.427376
v -0.836670 -0.410830 -90.543739
v -0.836670 -0.410830 90.543739
v -0.790527 295.256653 79.427376
v -79.888794 295.256653 0.773573
v -91.005127 -0.410830 0.881842
v 90.082275 -0.410830 0.881842
v 78.965942 295.256653 0.773573
v -56.208862 70.172211 -55.747383
v -56.208862 70.172211 0.542945
v -56.208862 70.172211 55.747383
v -0.692383 70.172211 55.747383
v 55.286011 70.172211 55.747383
v 55.286011 70.172211 0.542945
v 55.286011 70.172211 -55.747383
v -0.692383 70.172211 -55.747383
v -44.413696 158.876068 -43.952221
v -44.413696 158.876068 0.428067
v -44.413696 158.876068 43.952221
v -0.643555 158.876068 43.952221
v 43.490845 158.876068 43.952221
v 43.490845 158.876068 0.428067
v 43.490845 158.876068 -43.952221
v -0.643555 158.876068 -43.952221
v 136.663086 258.748993 -88.139626
v 67.239502 258.748993 -148.295578
v -23.686157 258.748993 -161.368759
v -107.245605 258.748993 -123.208450
v -156.909180 258.748993 -45.930363
v -156.909180 258.748993 45.930309
v -107.245605 258.748993 123.208420
v -23.686157 258.748993 161.368759
v 67.239502 258.748993 148.295593
v 136.663086 258.748993 88.139656
v 162.543213 258.748993 0.000000
v 113.687744 517.626404 -73.009964
v 56.181030 517.626404 -122.839806
v -19.136719 517.626404 -133.668884
v -88.352661 517.626404 -102.059021
v -129.491333 517.626404 -38.046154
v -129.491333 517.626404 38.046116
v -88.352783 517.626404 102.059006
v -19.136719 517.626404 133.668884
v 56.181030 517.626404 122.839836
v 113.687744 517.626404 73.009995
v 135.125366 517.626404 0.000000
v -0.461426 545.313904 0.000000
v -27.700439 332.466827 -185.810455
v 76.997314 332.466827 -170.757172
v 156.936157 332.466827 -101.489693
v 186.736206 332.466827 0.000000
v 156.936157 332.466827 101.489738
v 76.997192 332.466827 170.757202
v -27.700562 332.466827 185.810455
v -123.916260 332.466827 141.870193
v -181.102173 332.466827 52.887146
v -181.102173 332.466827 -52.887207
v -123.916138 332.466827 -141.870224
v -29.803345 449.500946 -198.614410
v 82.108887 449.500946 -182.523804
v 167.556274 449.500946 -108.483208
v 199.409790 449.500946 0.000000
v 167.556274 449.500946 108.483253
v 82.108887 449.500946 182.523865
v -29.803467 449.500946 198.614410
v -132.649292 449.500946 151.646286
v -193.775757 449.500946 56.531528
v -193.775757 449.500946 -56.531586
v -132.649170 449.500946 -151.646317
vt 0.155633 0.714811
vt 0.612373 0.712722
vt 0.681118 0.562521
vt 0.109232 0.533144
vt 0.274864 0.523338
vt 0.352263 0.537896
vt 0.353482 0.719517
vt 0.285807 0.719173
vt 0.182153 0.921568
vt -0.000248 0.850843
vt 0.065381 0.957193
vt 0.551826 0.712381
vt 0.489203 0.715696
vt 0.508558 0.537379
vt 0.595778 0.530026
vt 0.218279 0.717336
vt 0.196595 0.539358
vt 0.430111 0.522350
vt 0.421702 0.718376
vt 0.527747 0.919569
vt 0.644842 0.953855
vt 0.264198 0.991292
vt 0.354648 0.930273
vt 0.446509 0.990268
vt 0.202110 0.832074
vt 0.277225 0.848115
vt 0.125492 0.827483
vt 0.644277 0.789578
vt 0.583334 0.824820
vt 0.506760 0.830313
vt 0.431822 0.847255
vt 0.354175 0.839991
vt 0.095635 0.715961
vt 0.025006 0.566556
vt 0.064660 0.793239
vt 0.709899 0.846326
vt 0.407077 0.029853
vt 0.534472 0.010333
vt 0.425229 0.098651
vt 0.535408 0.081806
vt 0.664746 0.031147
vt 0.646356 0.100428
vt 0.784027 0.091867
vt 0.746827 0.153736
vt 0.880300 0.185674
vt 0.826671 0.236111
vt 0.947199 0.299912
vt 0.879144 0.338707
vt 0.974376 0.419132
vt 0.902456 0.448742
vt 0.995673 0.517729
vt 0.918929 0.553374
vt 0.117115 0.239672
vt 0.168813 0.300298
vt 0.050561 0.318431
vt 0.105079 0.388253
vt 0.196018 0.154584
vt 0.238736 0.215759
vt 0.294917 0.084245
vt 0.325239 0.146540
vt 0.473623 0.284055
vt 0.530057 0.275183
vt 0.526851 0.425471
vt 0.585019 0.285670
vt 0.633129 0.315070
vt 0.669033 0.361603
vt 0.688659 0.419830
vt 0.689277 0.485878
vt 0.662828 0.550115
vt 0.345988 0.492813
vt 0.350465 0.419716
vt 0.378427 0.358298
vt 0.421111 0.311431
vt 0.534093 0.186835
vt 0.616150 0.201744
vt 0.450608 0.199699
vt 0.371686 0.238285
vt 0.308401 0.302084
vt 0.259478 0.382399
vt 0.223081 0.475558
vt 0.779856 0.592673
vt 0.788866 0.484079
vt 0.775487 0.390086
vt 0.744313 0.307715
vt 0.688816 0.243512
vn 0.000000 -0.104628 0.994512
vn 0.000000 -0.251742 0.967795
vn 0.000000 -0.122142 0.992513
vn 0.000000 -0.251742 0.967795
vn 0.000000 -0.251742 -0.967795
vn 0.000000 -0.251742 -0.967795
vn 0.000000 -0.122142 -0.992513
vn 0.000000 -0.104628 -0.994512
vn 0.994511 -0.104628 0.000000
vn 0.967795 -0.251741 0.000000
vn 0.992519 -0.122088 0.000000
vn 0.967795 -0.251741 0.000000
vn -0.994511 -0.104628 0.000000
vn -0.992519 -0.122088 0.000000
vn -0.967795 -0.251741 0.000000
vn -0.967795 -0.251741 0.000000
vn 0.000000 -0.251742 -0.967795
vn 0.000000 -0.122222 -0.992503
vn 0.000000 -0.122222 0.992503
vn 0.000000 -0.251742 0.967795
vn -0.992496 -0.122276 0.000000
vn -0.967795 -0.251741 0.000000
vn 0.992496 -0.122276 0.000000
vn 0.967795 -0.251741 0.000000
vn -0.821521 0.543440 0.172558
vn -0.848649 0.528955 -0.001077
vn -0.908445 0.408038 0.090731
vn -0.958310 0.285730 0.000000
vn -0.822136 0.541610 -0.175359
vn -0.909042 0.406524 -0.091550
vn 0.174545 0.542143 0.821958
vn 0.000458 0.528960 0.848647
vn 0.091313 0.406962 0.908869
vn 0.000000 0.285728 0.958311
vn -0.090965 0.407607 0.908615
vn -0.173353 0.542922 0.821696
vn 0.822136 0.541610 -0.175359
vn 0.848649 0.528955 -0.001077
vn 0.909042 0.406524 -0.091550
vn 0.958310 0.285730 0.000000
vn 0.908445 0.408038 0.090731
vn 0.821521 0.543440 0.172558
vn 0.000000 0.285728 -0.958311
vn -0.090965 0.407607 -0.908615
vn 0.000458 0.528960 -0.848647
vn -0.173353 0.542922 -0.821696
vn 0.091313 0.406962 -0.908869
vn 0.174545 0.542143 -0.821958
vn 0.624255 -0.302143 -0.720427
vn 0.624255 -0.302143 -0.720428
vn 0.644585 -0.176462 -0.743890
vn 0.644400 -0.178026 -0.743677
vn 0.135527 -0.305150 -0.942611
vn 0.135527 -0.305150 -0.942611
vn 0.140032 -0.178403 -0.973942
vn 0.139994 -0.179856 -0.973680
vn -0.395165 -0.308412 -0.865290
vn -0.395165 -0.308412 -0.865290
vn -0.408598 -0.180425 -0.894704
vn -0.408482 -0.181935 -0.894451
vn -0.799565 -0.310895 -0.513849
vn -0.799564 -0.310896 -0.513849
vn -0.827221 -0.181885 -0.531623
vn -0.826952 -0.183606 -0.531451
vn -0.950141 -0.311821 0.000000
vn -0.950141 -0.311821 0.000000
vn -0.983239 -0.182320 0.000000
vn -0.982863 -0.184340 0.000000
vn -0.799564 -0.310896 0.513848
vn -0.827221 -0.181885 0.531623
vn -0.799564 -0.310896 0.513849
vn -0.826952 -0.183606 0.531450
vn -0.395165 -0.308413 0.865290
vn -0.408598 -0.180426 0.894704
vn -0.395165 -0.308413 0.865290
vn -0.408482 -0.181936 0.894451
vn 0.135527 -0.305150 0.942611
vn 0.140032 -0.178403 0.973942
vn 0.135527 -0.305150 0.942611
vn 0.139994 -0.179856 0.973680
vn 0.624255 -0.302143 0.720427
vn 0.644584 -0.176462 0.743890
vn 0.624254 -0.302142 0.720428
vn 0.644400 -0.178026 0.743677
vn 0.915192 -0.300351 0.268725
vn 0.944649 -0.175221 0.277374
vn 0.915192 -0.300351 0.268724
vn 0.944339 -0.177025 0.277283
vn 0.915192 -0.300351 -0.268725
vn 0.915192 -0.300351 -0.268724
vn 0.944649 -0.175221 -0.277374
vn 0.944339 -0.177025 -0.277283
vn 0.168470 0.979755 -0.108154
vn 0.083450 0.979688 -0.182337
vn -0.000407 1.000000 0.000000
vn -0.028423 0.979600 -0.198938
vn -0.131758 0.979518 -0.152266
vn -0.193415 0.979469 -0.056845
vn -0.193415 0.979469 0.056845
vn -0.131758 0.979518 0.152266
vn -0.028423 0.979600 0.198938
vn 0.083450 0.979688 0.182337
vn 0.168470 0.979755 0.108154
vn 0.200076 0.979780 0.000000
vn 0.139012 0.214191 -0.966850
vn 0.138279 0.236469 -0.961749
vn 0.640071 0.211325 -0.738681
vn 0.636630 0.234314 -0.734710
vn 0.938294 0.209046 -0.275508
vn 0.932938 0.233638 -0.273935
vn 0.938294 0.209046 0.275508
vn 0.932938 0.233638 0.273935
vn 0.640071 0.211324 0.738682
vn 0.636630 0.234313 0.734710
vn 0.139012 0.214191 0.966850
vn 0.138278 0.236469 0.961749
vn -0.405541 0.216733 0.888011
vn -0.403333 0.239423 0.883176
vn -0.820995 0.218135 0.527621
vn -0.816198 0.242241 0.524538
vn -0.968082 0.250634 0.000000
vn -0.977371 0.211534 0.000000
vn -0.820995 0.218135 -0.527622
vn -0.816198 0.242241 -0.524539
vn -0.405541 0.216732 -0.888011
vn -0.403333 0.239423 -0.883176
vn 0.104664 0.677588 -0.727956
vn 0.104664 0.677588 -0.727956
vn 0.484016 0.673581 -0.558584
vn 0.484016 0.673581 -0.558585
vn 0.711274 0.671171 -0.208849
vn 0.711274 0.671171 -0.208849
vn 0.711274 0.671171 0.208849
vn 0.711274 0.671172 0.208849
vn 0.484016 0.673581 0.558584
vn 0.484016 0.673581 0.558585
vn 0.104664 0.677588 0.727956
vn 0.104664 0.677588 0.727956
vn -0.303861 0.681881 0.665362
vn -0.303860 0.681882 0.665362
vn -0.612801 0.685112 0.393823
vn -0.612801 0.685112 0.393823
vn -0.727313 0.686306 0.000000
vn -0.727313 0.686306 0.000000
vn -0.612801 0.685112 -0.393824
vn -0.612800 0.685112 -0.393824
vn -0.303861 0.681881 -0.665362
vn -0.303861 0.681881 -0.665362
s 1
g pCube49
usemtl lambert3SG
f 28/33/1 12/34/2 27/1/3
f 27/1/3 12/34/2 3/4/4
s 2
f 5/5/5 9/6/6 25/8/7
f 25/8/7 9/6/6 32/7/8
s 3
f 30/13/9 16/14/10 29/12/11
f 29/12/11 16/14/10 4/15/12
s 4
f 26/16/13 27/1/14 13/17/15
f 13/17/15 27/1/14 3/4/16
s 2
f 6/18/17 31/19/18 9/6/6
f 9/6/6 31/19/18 32/7/8
s 1
f 28/2/1 29/12/19 12/3/2
f 12/3/2 29/12/19 4/15/20
s 4
f 26/16/13 13/17/15 25/8/21
f 25/8/21 13/17/15 5/5/22
s 3
f 30/13/9 31/19/23 16/14/10
f 16/14/10 31/19/23 6/18/24
s 4
f 7/22/25 14/9/26 17/26/27
f 17/26/27 14/9/26 18/25/28
f 1/11/29 19/27/30 14/9/26
f 14/9/26 19/27/30 18/25/28
s 1
f 1/11/31 11/10/32 19/27/33
f 19/27/33 11/10/32 20/35/34
f 20/28/34 11/36/32 21/29/35
f 21/29/35 11/36/32 2/21/36
s 3
f 2/21/37 15/20/38 21/29/39
f 21/29/39 15/20/38 22/30/40
f 22/30/40 15/20/38 23/31/41
f 23/31/41 15/20/38 8/24/42
s 2
f 24/32/43 23/31/44 10/23/45
f 10/23/45 23/31/44 8/24/46
f 24/32/43 10/23/45 17/26/47
f 17/26/47 10/23/45 7/22/48
s 4
f 17/26/27 18/25/28 25/8/21
f 25/8/21 18/25/28 26/16/13
f 19/27/30 27/1/14 18/25/28
f 18/25/28 27/1/14 26/16/13
s 1
f 19/27/33 20/35/34 27/1/3
f 27/1/3 20/35/34 28/33/1
f 28/2/1 20/28/34 29/12/19
f 29/12/19 20/28/34 21/29/35
s 3
f 21/29/39 22/30/40 29/12/11
f 29/12/11 22/30/40 30/13/9
f 30/13/9 22/30/40 31/19/23
f 31/19/23 22/30/40 23/31/41
s 2
f 32/7/8 31/19/18 24/32/43
f 24/32/43 31/19/18 23/31/44
f 32/7/8 24/32/43 25/8/7
f 25/8/7 24/32/43 17/26/47
s 9
usemtl lambert2SG
f 33/37/49 34/38/50 58/39/51
f 58/39/51 34/38/50 57/40/52
s 10
f 34/38/53 35/41/54 57/40/55
f 57/40/55 35/41/54 56/42/56
s 11
f 35/41/57 36/43/58 56/42/59
f 56/42/59 36/43/58 66/44/60
s 12
f 36/43/61 37/45/62 66/44/63
f 66/44/63 37/45/62 65/46/64
s 13
f 37/45/65 38/47/66 65/46/67
f 65/46/67 38/47/66 64/48/68
s 14
f 39/49/69 63/50/70 38/47/71
f 38/47/71 63/50/70 64/48/72
s 15
f 40/51/73 62/52/74 39/49/75
f 39/49/75 62/52/74 63/50/76
s 16
f 41/53/77 61/54/78 40/55/79
f 40/55/79 61/54/78 62/56/80
s 17
f 42/57/81 60/58/82 41/53/83
f 41/53/83 60/58/82 61/54/84
s 18
f 43/59/85 59/60/86 42/57/87
f 42/57/87 59/60/86 60/58/88
s 19
f 43/59/89 33/37/90 59/60/91
f 59/60/91 33/37/90 58/39/92
s 20
f 44/61/93 45/62/94 55/63/95
f 45/62/94 46/64/96 55/63/95
f 46/64/96 47/65/97 55/63/95
f 47/65/97 48/66/98 55/63/95
f 48/66/98 49/67/99 55/63/95
f 49/67/99 50/68/100 55/63/95
f 50/68/100 51/69/101 55/63/95
f 51/70/101 52/71/102 55/63/95
f 52/71/102 53/72/103 55/63/95
f 53/72/103 54/73/104 55/63/95
f 54/73/104 44/61/93 55/63/95
s 10
f 57/40/55 56/42/56 68/74/105
f 68/74/105 56/42/56 67/75/106
s 9
f 58/39/51 57/40/52 69/76/107
f 69/76/107 57/40/52 68/74/108
s 19
f 59/60/91 58/39/92 70/77/109
f 70/77/109 58/39/92 69/76/110
s 18
f 59/60/86 70/77/111 60/58/88
f 60/58/88 70/77/111 71/78/112
s 17
f 60/58/82 71/78/113 61/54/84
f 61/54/84 71/78/113 72/79/114
s 16
f 61/54/78 72/79/115 62/56/80
f 62/56/80 72/79/115 73/80/116
s 15
f 62/52/74 73/81/117 63/50/76
f 63/50/76 73/81/117 74/82/118
s 14
f 63/50/70 74/82/119 64/48/72
f 64/48/72 74/82/119 75/83/120
s 13
f 65/46/67 64/48/68 76/84/121
f 76/84/121 64/48/68 75/83/122
s 12
f 66/44/63 65/46/64 77/85/123
f 77/85/123 65/46/64 76/84/124
s 11
f 56/42/59 66/44/60 67/75/125
f 67/75/125 66/44/60 77/85/126
s 10
f 67/75/106 46/64/127 68/74/105
f 68/74/105 46/64/127 45/62/128
s 9
f 68/74/108 45/62/129 69/76/107
f 69/76/107 45/62/129 44/61/130
s 19
f 69/76/110 44/61/131 70/77/109
f 70/77/109 44/61/131 54/73/132
s 18
f 71/78/112 70/77/111 53/72/133
f 53/72/133 70/77/111 54/73/134
s 17
f 72/79/114 71/78/113 52/71/135
f 52/71/135 71/78/113 53/72/136
s 16
f 73/80/116 72/79/115 51/70/137
f 51/70/137 72/79/115 52/71/138
s 15
f 74/82/118 73/81/117 50/68/139
f 50/68/139 73/81/117 51/69/140
s 14
f 75/83/120 74/82/119 49/67/141
f 49/67/141 74/82/119 50/68/142
s 13
f 76/84/121 75/83/122 48/66/143
f 48/66/143 75/83/122 49/67/144
s 12
f 76/84/124 48/66/145 77/85/123
f 77/85/123 48/66/145 47/65/146
s 11
f 77/85/126 47/65/147 67/75/125
f 67/75/125 47/65/147 46/64/148
